G04 #@! TF.GenerationSoftware,KiCad,Pcbnew,5.1.10-88a1d61d58~88~ubuntu20.04.1*
G04 #@! TF.CreationDate,2021-09-15T20:12:52+01:00*
G04 #@! TF.ProjectId,ogsolar,6f67736f-6c61-4722-9e6b-696361645f70,1.5*
G04 #@! TF.SameCoordinates,Original*
G04 #@! TF.FileFunction,Legend,Top*
G04 #@! TF.FilePolarity,Positive*
%FSLAX46Y46*%
G04 Gerber Fmt 4.6, Leading zero omitted, Abs format (unit mm)*
G04 Created by KiCad (PCBNEW 5.1.10-88a1d61d58~88~ubuntu20.04.1) date 2021-09-15 20:12:52*
%MOMM*%
%LPD*%
G01*
G04 APERTURE LIST*
%ADD10C,0.300000*%
%ADD11C,0.120000*%
%ADD12C,0.304800*%
%ADD13C,0.150000*%
%ADD14C,0.203200*%
%ADD15C,0.127000*%
%ADD16C,0.101600*%
G04 APERTURE END LIST*
D10*
X139321428Y-92903571D02*
X139607142Y-92903571D01*
X139750000Y-92975000D01*
X139892857Y-93117857D01*
X139964285Y-93403571D01*
X139964285Y-93903571D01*
X139892857Y-94189285D01*
X139750000Y-94332142D01*
X139607142Y-94403571D01*
X139321428Y-94403571D01*
X139178571Y-94332142D01*
X139035714Y-94189285D01*
X138964285Y-93903571D01*
X138964285Y-93403571D01*
X139035714Y-93117857D01*
X139178571Y-92975000D01*
X139321428Y-92903571D01*
X141392857Y-92975000D02*
X141250000Y-92903571D01*
X141035714Y-92903571D01*
X140821428Y-92975000D01*
X140678571Y-93117857D01*
X140607142Y-93260714D01*
X140535714Y-93546428D01*
X140535714Y-93760714D01*
X140607142Y-94046428D01*
X140678571Y-94189285D01*
X140821428Y-94332142D01*
X141035714Y-94403571D01*
X141178571Y-94403571D01*
X141392857Y-94332142D01*
X141464285Y-94260714D01*
X141464285Y-93760714D01*
X141178571Y-93760714D01*
X142035714Y-94332142D02*
X142250000Y-94403571D01*
X142607142Y-94403571D01*
X142750000Y-94332142D01*
X142821428Y-94260714D01*
X142892857Y-94117857D01*
X142892857Y-93975000D01*
X142821428Y-93832142D01*
X142750000Y-93760714D01*
X142607142Y-93689285D01*
X142321428Y-93617857D01*
X142178571Y-93546428D01*
X142107142Y-93475000D01*
X142035714Y-93332142D01*
X142035714Y-93189285D01*
X142107142Y-93046428D01*
X142178571Y-92975000D01*
X142321428Y-92903571D01*
X142678571Y-92903571D01*
X142892857Y-92975000D01*
X143750000Y-94403571D02*
X143607142Y-94332142D01*
X143535714Y-94260714D01*
X143464285Y-94117857D01*
X143464285Y-93689285D01*
X143535714Y-93546428D01*
X143607142Y-93475000D01*
X143750000Y-93403571D01*
X143964285Y-93403571D01*
X144107142Y-93475000D01*
X144178571Y-93546428D01*
X144250000Y-93689285D01*
X144250000Y-94117857D01*
X144178571Y-94260714D01*
X144107142Y-94332142D01*
X143964285Y-94403571D01*
X143750000Y-94403571D01*
X145107142Y-94403571D02*
X144964285Y-94332142D01*
X144892857Y-94189285D01*
X144892857Y-92903571D01*
X146321428Y-94403571D02*
X146321428Y-93617857D01*
X146250000Y-93475000D01*
X146107142Y-93403571D01*
X145821428Y-93403571D01*
X145678571Y-93475000D01*
X146321428Y-94332142D02*
X146178571Y-94403571D01*
X145821428Y-94403571D01*
X145678571Y-94332142D01*
X145607142Y-94189285D01*
X145607142Y-94046428D01*
X145678571Y-93903571D01*
X145821428Y-93832142D01*
X146178571Y-93832142D01*
X146321428Y-93760714D01*
X147035714Y-94403571D02*
X147035714Y-93403571D01*
X147035714Y-93689285D02*
X147107142Y-93546428D01*
X147178571Y-93475000D01*
X147321428Y-93403571D01*
X147464285Y-93403571D01*
X149964285Y-94403571D02*
X149464285Y-93689285D01*
X149107142Y-94403571D02*
X149107142Y-92903571D01*
X149678571Y-92903571D01*
X149821428Y-92975000D01*
X149892857Y-93046428D01*
X149964285Y-93189285D01*
X149964285Y-93403571D01*
X149892857Y-93546428D01*
X149821428Y-93617857D01*
X149678571Y-93689285D01*
X149107142Y-93689285D01*
X150607142Y-93403571D02*
X150607142Y-94903571D01*
X150607142Y-93475000D02*
X150750000Y-93403571D01*
X151035714Y-93403571D01*
X151178571Y-93475000D01*
X151250000Y-93546428D01*
X151321428Y-93689285D01*
X151321428Y-94117857D01*
X151250000Y-94260714D01*
X151178571Y-94332142D01*
X151035714Y-94403571D01*
X150750000Y-94403571D01*
X150607142Y-94332142D01*
X151964285Y-94403571D02*
X151964285Y-93403571D01*
X151964285Y-92903571D02*
X151892857Y-92975000D01*
X151964285Y-93046428D01*
X152035714Y-92975000D01*
X151964285Y-92903571D01*
X151964285Y-93046428D01*
X143214285Y-95453571D02*
X143714285Y-96953571D01*
X144214285Y-95453571D01*
X145500000Y-96953571D02*
X144642857Y-96953571D01*
X145071428Y-96953571D02*
X145071428Y-95453571D01*
X144928571Y-95667857D01*
X144785714Y-95810714D01*
X144642857Y-95882142D01*
X146142857Y-96810714D02*
X146214285Y-96882142D01*
X146142857Y-96953571D01*
X146071428Y-96882142D01*
X146142857Y-96810714D01*
X146142857Y-96953571D01*
X147571428Y-95453571D02*
X146857142Y-95453571D01*
X146785714Y-96167857D01*
X146857142Y-96096428D01*
X147000000Y-96025000D01*
X147357142Y-96025000D01*
X147500000Y-96096428D01*
X147571428Y-96167857D01*
X147642857Y-96310714D01*
X147642857Y-96667857D01*
X147571428Y-96810714D01*
X147500000Y-96882142D01*
X147357142Y-96953571D01*
X147000000Y-96953571D01*
X146857142Y-96882142D01*
X146785714Y-96810714D01*
X111607142Y-100607142D02*
X111821428Y-100678571D01*
X112178571Y-100678571D01*
X112321428Y-100607142D01*
X112392857Y-100535714D01*
X112464285Y-100392857D01*
X112464285Y-100250000D01*
X112392857Y-100107142D01*
X112321428Y-100035714D01*
X112178571Y-99964285D01*
X111892857Y-99892857D01*
X111750000Y-99821428D01*
X111678571Y-99750000D01*
X111607142Y-99607142D01*
X111607142Y-99464285D01*
X111678571Y-99321428D01*
X111750000Y-99250000D01*
X111892857Y-99178571D01*
X112250000Y-99178571D01*
X112464285Y-99250000D01*
X113107142Y-100678571D02*
X113107142Y-99178571D01*
X113750000Y-100678571D02*
X113750000Y-99892857D01*
X113678571Y-99750000D01*
X113535714Y-99678571D01*
X113321428Y-99678571D01*
X113178571Y-99750000D01*
X113107142Y-99821428D01*
X115107142Y-99678571D02*
X115107142Y-100678571D01*
X114464285Y-99678571D02*
X114464285Y-100464285D01*
X114535714Y-100607142D01*
X114678571Y-100678571D01*
X114892857Y-100678571D01*
X115035714Y-100607142D01*
X115107142Y-100535714D01*
X115821428Y-99678571D02*
X115821428Y-100678571D01*
X115821428Y-99821428D02*
X115892857Y-99750000D01*
X116035714Y-99678571D01*
X116250000Y-99678571D01*
X116392857Y-99750000D01*
X116464285Y-99892857D01*
X116464285Y-100678571D01*
X116964285Y-99678571D02*
X117535714Y-99678571D01*
X117178571Y-99178571D02*
X117178571Y-100464285D01*
X117250000Y-100607142D01*
X117392857Y-100678571D01*
X117535714Y-100678571D01*
X144607142Y-100607142D02*
X144821428Y-100678571D01*
X145178571Y-100678571D01*
X145321428Y-100607142D01*
X145392857Y-100535714D01*
X145464285Y-100392857D01*
X145464285Y-100250000D01*
X145392857Y-100107142D01*
X145321428Y-100035714D01*
X145178571Y-99964285D01*
X144892857Y-99892857D01*
X144750000Y-99821428D01*
X144678571Y-99750000D01*
X144607142Y-99607142D01*
X144607142Y-99464285D01*
X144678571Y-99321428D01*
X144750000Y-99250000D01*
X144892857Y-99178571D01*
X145250000Y-99178571D01*
X145464285Y-99250000D01*
X146107142Y-100678571D02*
X146107142Y-99178571D01*
X146750000Y-100678571D02*
X146750000Y-99892857D01*
X146678571Y-99750000D01*
X146535714Y-99678571D01*
X146321428Y-99678571D01*
X146178571Y-99750000D01*
X146107142Y-99821428D01*
X148107142Y-99678571D02*
X148107142Y-100678571D01*
X147464285Y-99678571D02*
X147464285Y-100464285D01*
X147535714Y-100607142D01*
X147678571Y-100678571D01*
X147892857Y-100678571D01*
X148035714Y-100607142D01*
X148107142Y-100535714D01*
X148821428Y-99678571D02*
X148821428Y-100678571D01*
X148821428Y-99821428D02*
X148892857Y-99750000D01*
X149035714Y-99678571D01*
X149250000Y-99678571D01*
X149392857Y-99750000D01*
X149464285Y-99892857D01*
X149464285Y-100678571D01*
X149964285Y-99678571D02*
X150535714Y-99678571D01*
X150178571Y-99178571D02*
X150178571Y-100464285D01*
X150250000Y-100607142D01*
X150392857Y-100678571D01*
X150535714Y-100678571D01*
X129642857Y-100678571D02*
X128928571Y-100678571D01*
X128928571Y-99178571D01*
X130357142Y-100678571D02*
X130214285Y-100607142D01*
X130142857Y-100535714D01*
X130071428Y-100392857D01*
X130071428Y-99964285D01*
X130142857Y-99821428D01*
X130214285Y-99750000D01*
X130357142Y-99678571D01*
X130571428Y-99678571D01*
X130714285Y-99750000D01*
X130785714Y-99821428D01*
X130857142Y-99964285D01*
X130857142Y-100392857D01*
X130785714Y-100535714D01*
X130714285Y-100607142D01*
X130571428Y-100678571D01*
X130357142Y-100678571D01*
X132142857Y-100678571D02*
X132142857Y-99892857D01*
X132071428Y-99750000D01*
X131928571Y-99678571D01*
X131642857Y-99678571D01*
X131500000Y-99750000D01*
X132142857Y-100607142D02*
X132000000Y-100678571D01*
X131642857Y-100678571D01*
X131500000Y-100607142D01*
X131428571Y-100464285D01*
X131428571Y-100321428D01*
X131500000Y-100178571D01*
X131642857Y-100107142D01*
X132000000Y-100107142D01*
X132142857Y-100035714D01*
X133500000Y-100678571D02*
X133500000Y-99178571D01*
X133500000Y-100607142D02*
X133357142Y-100678571D01*
X133071428Y-100678571D01*
X132928571Y-100607142D01*
X132857142Y-100535714D01*
X132785714Y-100392857D01*
X132785714Y-99964285D01*
X132857142Y-99821428D01*
X132928571Y-99750000D01*
X133071428Y-99678571D01*
X133357142Y-99678571D01*
X133500000Y-99750000D01*
X135285714Y-99321428D02*
X135357142Y-99250000D01*
X135500000Y-99178571D01*
X135857142Y-99178571D01*
X136000000Y-99250000D01*
X136071428Y-99321428D01*
X136142857Y-99464285D01*
X136142857Y-99607142D01*
X136071428Y-99821428D01*
X135214285Y-100678571D01*
X136142857Y-100678571D01*
X162142857Y-100678571D02*
X161428571Y-100678571D01*
X161428571Y-99178571D01*
X162857142Y-100678571D02*
X162714285Y-100607142D01*
X162642857Y-100535714D01*
X162571428Y-100392857D01*
X162571428Y-99964285D01*
X162642857Y-99821428D01*
X162714285Y-99750000D01*
X162857142Y-99678571D01*
X163071428Y-99678571D01*
X163214285Y-99750000D01*
X163285714Y-99821428D01*
X163357142Y-99964285D01*
X163357142Y-100392857D01*
X163285714Y-100535714D01*
X163214285Y-100607142D01*
X163071428Y-100678571D01*
X162857142Y-100678571D01*
X164642857Y-100678571D02*
X164642857Y-99892857D01*
X164571428Y-99750000D01*
X164428571Y-99678571D01*
X164142857Y-99678571D01*
X164000000Y-99750000D01*
X164642857Y-100607142D02*
X164500000Y-100678571D01*
X164142857Y-100678571D01*
X164000000Y-100607142D01*
X163928571Y-100464285D01*
X163928571Y-100321428D01*
X164000000Y-100178571D01*
X164142857Y-100107142D01*
X164500000Y-100107142D01*
X164642857Y-100035714D01*
X166000000Y-100678571D02*
X166000000Y-99178571D01*
X166000000Y-100607142D02*
X165857142Y-100678571D01*
X165571428Y-100678571D01*
X165428571Y-100607142D01*
X165357142Y-100535714D01*
X165285714Y-100392857D01*
X165285714Y-99964285D01*
X165357142Y-99821428D01*
X165428571Y-99750000D01*
X165571428Y-99678571D01*
X165857142Y-99678571D01*
X166000000Y-99750000D01*
X168642857Y-100678571D02*
X167785714Y-100678571D01*
X168214285Y-100678571D02*
X168214285Y-99178571D01*
X168071428Y-99392857D01*
X167928571Y-99535714D01*
X167785714Y-99607142D01*
X133964285Y-84035714D02*
X133892857Y-84107142D01*
X133678571Y-84178571D01*
X133535714Y-84178571D01*
X133321428Y-84107142D01*
X133178571Y-83964285D01*
X133107142Y-83821428D01*
X133035714Y-83535714D01*
X133035714Y-83321428D01*
X133107142Y-83035714D01*
X133178571Y-82892857D01*
X133321428Y-82750000D01*
X133535714Y-82678571D01*
X133678571Y-82678571D01*
X133892857Y-82750000D01*
X133964285Y-82821428D01*
X134607142Y-84178571D02*
X134607142Y-82678571D01*
X135178571Y-82678571D01*
X135321428Y-82750000D01*
X135392857Y-82821428D01*
X135464285Y-82964285D01*
X135464285Y-83178571D01*
X135392857Y-83321428D01*
X135321428Y-83392857D01*
X135178571Y-83464285D01*
X134607142Y-83464285D01*
X136107142Y-82678571D02*
X136107142Y-83892857D01*
X136178571Y-84035714D01*
X136250000Y-84107142D01*
X136392857Y-84178571D01*
X136678571Y-84178571D01*
X136821428Y-84107142D01*
X136892857Y-84035714D01*
X136964285Y-83892857D01*
X136964285Y-82678571D01*
X138607142Y-82678571D02*
X139464285Y-82678571D01*
X139035714Y-84178571D02*
X139035714Y-82678571D01*
X140535714Y-84107142D02*
X140392857Y-84178571D01*
X140107142Y-84178571D01*
X139964285Y-84107142D01*
X139892857Y-83964285D01*
X139892857Y-83392857D01*
X139964285Y-83250000D01*
X140107142Y-83178571D01*
X140392857Y-83178571D01*
X140535714Y-83250000D01*
X140607142Y-83392857D01*
X140607142Y-83535714D01*
X139892857Y-83678571D01*
X141250000Y-84178571D02*
X141250000Y-83178571D01*
X141250000Y-83321428D02*
X141321428Y-83250000D01*
X141464285Y-83178571D01*
X141678571Y-83178571D01*
X141821428Y-83250000D01*
X141892857Y-83392857D01*
X141892857Y-84178571D01*
X141892857Y-83392857D02*
X141964285Y-83250000D01*
X142107142Y-83178571D01*
X142321428Y-83178571D01*
X142464285Y-83250000D01*
X142535714Y-83392857D01*
X142535714Y-84178571D01*
X143250000Y-83178571D02*
X143250000Y-84678571D01*
X143250000Y-83250000D02*
X143392857Y-83178571D01*
X143678571Y-83178571D01*
X143821428Y-83250000D01*
X143892857Y-83321428D01*
X143964285Y-83464285D01*
X143964285Y-83892857D01*
X143892857Y-84035714D01*
X143821428Y-84107142D01*
X143678571Y-84178571D01*
X143392857Y-84178571D01*
X143250000Y-84107142D01*
X164975000Y-78214285D02*
X164975000Y-77500000D01*
X165403571Y-78357142D02*
X163903571Y-77857142D01*
X165403571Y-77357142D01*
X165260714Y-76000000D02*
X165332142Y-76071428D01*
X165403571Y-76285714D01*
X165403571Y-76428571D01*
X165332142Y-76642857D01*
X165189285Y-76785714D01*
X165046428Y-76857142D01*
X164760714Y-76928571D01*
X164546428Y-76928571D01*
X164260714Y-76857142D01*
X164117857Y-76785714D01*
X163975000Y-76642857D01*
X163903571Y-76428571D01*
X163903571Y-76285714D01*
X163975000Y-76071428D01*
X164046428Y-76000000D01*
X163903571Y-73928571D02*
X163903571Y-73642857D01*
X163975000Y-73500000D01*
X164117857Y-73357142D01*
X164403571Y-73285714D01*
X164903571Y-73285714D01*
X165189285Y-73357142D01*
X165332142Y-73500000D01*
X165403571Y-73642857D01*
X165403571Y-73928571D01*
X165332142Y-74071428D01*
X165189285Y-74214285D01*
X164903571Y-74285714D01*
X164403571Y-74285714D01*
X164117857Y-74214285D01*
X163975000Y-74071428D01*
X163903571Y-73928571D01*
X165403571Y-72642857D02*
X163903571Y-72642857D01*
X163903571Y-72071428D01*
X163975000Y-71928571D01*
X164046428Y-71857142D01*
X164189285Y-71785714D01*
X164403571Y-71785714D01*
X164546428Y-71857142D01*
X164617857Y-71928571D01*
X164689285Y-72071428D01*
X164689285Y-72642857D01*
X167953571Y-75214285D02*
X167239285Y-75714285D01*
X167953571Y-76071428D02*
X166453571Y-76071428D01*
X166453571Y-75500000D01*
X166525000Y-75357142D01*
X166596428Y-75285714D01*
X166739285Y-75214285D01*
X166953571Y-75214285D01*
X167096428Y-75285714D01*
X167167857Y-75357142D01*
X167239285Y-75500000D01*
X167239285Y-76071428D01*
X167953571Y-73857142D02*
X167953571Y-74571428D01*
X166453571Y-74571428D01*
X167239285Y-73071428D02*
X167953571Y-73071428D01*
X166453571Y-73571428D02*
X167239285Y-73071428D01*
X166453571Y-72571428D01*
X165332142Y-68892857D02*
X165403571Y-68678571D01*
X165403571Y-68321428D01*
X165332142Y-68178571D01*
X165260714Y-68107142D01*
X165117857Y-68035714D01*
X164975000Y-68035714D01*
X164832142Y-68107142D01*
X164760714Y-68178571D01*
X164689285Y-68321428D01*
X164617857Y-68607142D01*
X164546428Y-68750000D01*
X164475000Y-68821428D01*
X164332142Y-68892857D01*
X164189285Y-68892857D01*
X164046428Y-68821428D01*
X163975000Y-68750000D01*
X163903571Y-68607142D01*
X163903571Y-68250000D01*
X163975000Y-68035714D01*
X164403571Y-67392857D02*
X165903571Y-67392857D01*
X164475000Y-67392857D02*
X164403571Y-67250000D01*
X164403571Y-66964285D01*
X164475000Y-66821428D01*
X164546428Y-66750000D01*
X164689285Y-66678571D01*
X165117857Y-66678571D01*
X165260714Y-66750000D01*
X165332142Y-66821428D01*
X165403571Y-66964285D01*
X165403571Y-67250000D01*
X165332142Y-67392857D01*
X165403571Y-65392857D02*
X164617857Y-65392857D01*
X164475000Y-65464285D01*
X164403571Y-65607142D01*
X164403571Y-65892857D01*
X164475000Y-66035714D01*
X165332142Y-65392857D02*
X165403571Y-65535714D01*
X165403571Y-65892857D01*
X165332142Y-66035714D01*
X165189285Y-66107142D01*
X165046428Y-66107142D01*
X164903571Y-66035714D01*
X164832142Y-65892857D01*
X164832142Y-65535714D01*
X164760714Y-65392857D01*
X165403571Y-64678571D02*
X164403571Y-64678571D01*
X164689285Y-64678571D02*
X164546428Y-64607142D01*
X164475000Y-64535714D01*
X164403571Y-64392857D01*
X164403571Y-64250000D01*
X165332142Y-63178571D02*
X165403571Y-63321428D01*
X165403571Y-63607142D01*
X165332142Y-63750000D01*
X165189285Y-63821428D01*
X164617857Y-63821428D01*
X164475000Y-63750000D01*
X164403571Y-63607142D01*
X164403571Y-63321428D01*
X164475000Y-63178571D01*
X164617857Y-63107142D01*
X164760714Y-63107142D01*
X164903571Y-63821428D01*
X167953571Y-66214285D02*
X167239285Y-66714285D01*
X167953571Y-67071428D02*
X166453571Y-67071428D01*
X166453571Y-66500000D01*
X166525000Y-66357142D01*
X166596428Y-66285714D01*
X166739285Y-66214285D01*
X166953571Y-66214285D01*
X167096428Y-66285714D01*
X167167857Y-66357142D01*
X167239285Y-66500000D01*
X167239285Y-67071428D01*
X167953571Y-64857142D02*
X167953571Y-65571428D01*
X166453571Y-65571428D01*
X167239285Y-64071428D02*
X167953571Y-64071428D01*
X166453571Y-64571428D02*
X167239285Y-64071428D01*
X166453571Y-63571428D01*
D11*
X139970000Y-110350000D02*
X143570000Y-110350000D01*
X139931522Y-110338478D02*
G75*
G02*
X141770000Y-105900000I1838478J1838478D01*
G01*
X143608478Y-110338478D02*
G75*
G03*
X141770000Y-105900000I-1838478J1838478D01*
G01*
X125100000Y-86590000D02*
X118165000Y-86590000D01*
X118165000Y-86590000D02*
X118165000Y-90010000D01*
X118165000Y-90010000D02*
X125100000Y-90010000D01*
X128210000Y-85300000D02*
X128210000Y-78365000D01*
X128210000Y-78365000D02*
X124790000Y-78365000D01*
X124790000Y-78365000D02*
X124790000Y-85300000D01*
X117930000Y-88050000D02*
X117930000Y-84220000D01*
X117930000Y-84220000D02*
X116070000Y-84220000D01*
X116070000Y-84220000D02*
X116070000Y-88050000D01*
X122052064Y-76710000D02*
X117947936Y-76710000D01*
X122052064Y-73290000D02*
X117947936Y-73290000D01*
X115210000Y-73390000D02*
X111190000Y-73390000D01*
X111190000Y-73390000D02*
X111190000Y-81110000D01*
X111190000Y-81110000D02*
X115210000Y-81110000D01*
X115210000Y-81110000D02*
X115210000Y-73390000D01*
X113500000Y-73390000D02*
X113500000Y-73890000D01*
X113500000Y-73890000D02*
X114710000Y-73890000D01*
X114710000Y-73890000D02*
X114710000Y-80610000D01*
X114710000Y-80610000D02*
X113500000Y-80610000D01*
X113500000Y-80610000D02*
X113500000Y-81110000D01*
X112690000Y-73390000D02*
X112690000Y-74390000D01*
X112690000Y-74390000D02*
X111190000Y-74390000D01*
X112690000Y-81110000D02*
X112690000Y-80110000D01*
X112690000Y-80110000D02*
X111190000Y-80110000D01*
X113390000Y-73090000D02*
X110890000Y-73090000D01*
X110890000Y-73090000D02*
X110890000Y-75590000D01*
X115210000Y-82390000D02*
X111190000Y-82390000D01*
X111190000Y-82390000D02*
X111190000Y-92610000D01*
X111190000Y-92610000D02*
X115210000Y-92610000D01*
X115210000Y-92610000D02*
X115210000Y-82390000D01*
X113500000Y-82390000D02*
X113500000Y-82890000D01*
X113500000Y-82890000D02*
X114710000Y-82890000D01*
X114710000Y-82890000D02*
X114710000Y-92110000D01*
X114710000Y-92110000D02*
X113500000Y-92110000D01*
X113500000Y-92110000D02*
X113500000Y-92610000D01*
X112690000Y-82390000D02*
X112690000Y-83390000D01*
X112690000Y-83390000D02*
X111190000Y-83390000D01*
X112690000Y-92610000D02*
X112690000Y-91610000D01*
X112690000Y-91610000D02*
X111190000Y-91610000D01*
X113390000Y-82090000D02*
X110890000Y-82090000D01*
X110890000Y-82090000D02*
X110890000Y-84590000D01*
X126554724Y-78022500D02*
X126045276Y-78022500D01*
X126554724Y-76977500D02*
X126045276Y-76977500D01*
D12*
X121854200Y-83639440D02*
X118046740Y-83639440D01*
X118046740Y-83639440D02*
X118046740Y-77291980D01*
X118046740Y-77291980D02*
X121854200Y-77291980D01*
X121854200Y-77291980D02*
X121854200Y-83639440D01*
D11*
X117045000Y-61080000D02*
X117045000Y-59750000D01*
X118375000Y-61080000D02*
X117045000Y-61080000D01*
X117045000Y-58480000D02*
X117045000Y-55880000D01*
X119645000Y-58480000D02*
X117045000Y-58480000D01*
X119645000Y-61080000D02*
X119645000Y-58480000D01*
X117045000Y-55880000D02*
X167965000Y-55880000D01*
X119645000Y-61080000D02*
X167965000Y-61080000D01*
X167965000Y-61080000D02*
X167965000Y-55880000D01*
D13*
X130340000Y-62000000D02*
X111840000Y-62000000D01*
X130340000Y-72500000D02*
X130340000Y-62000000D01*
X111840000Y-72500000D02*
X130340000Y-72500000D01*
X111840000Y-62000000D02*
X111840000Y-72500000D01*
D11*
X127873752Y-73540000D02*
X126451248Y-73540000D01*
X127873752Y-76260000D02*
X126451248Y-76260000D01*
X139603733Y-74490000D02*
X139896267Y-74490000D01*
X139603733Y-75510000D02*
X139896267Y-75510000D01*
X156510000Y-85991233D02*
X156510000Y-86283767D01*
X155490000Y-85991233D02*
X155490000Y-86283767D01*
X168353733Y-84260000D02*
X168646267Y-84260000D01*
X168353733Y-83240000D02*
X168646267Y-83240000D01*
X135820000Y-73930000D02*
X139650000Y-73930000D01*
X135820000Y-72070000D02*
X135820000Y-73930000D01*
X139650000Y-72070000D02*
X135820000Y-72070000D01*
X159180000Y-88350000D02*
X159180000Y-84520000D01*
X159180000Y-84520000D02*
X157320000Y-84520000D01*
X157320000Y-84520000D02*
X157320000Y-88350000D01*
X153180000Y-88350000D02*
X153180000Y-84520000D01*
X153180000Y-84520000D02*
X151320000Y-84520000D01*
X151320000Y-84520000D02*
X151320000Y-88350000D01*
X150600000Y-65115000D02*
X146540000Y-65115000D01*
X146540000Y-65115000D02*
X146540000Y-67385000D01*
X146540000Y-67385000D02*
X150600000Y-67385000D01*
X157500000Y-93950000D02*
X157500000Y-99650000D01*
X160500000Y-93950000D02*
X157500000Y-93950000D01*
X160500000Y-99650000D02*
X160500000Y-93950000D01*
X128500000Y-99650000D02*
X128500000Y-93950000D01*
X128500000Y-93950000D02*
X125500000Y-93950000D01*
X125500000Y-93950000D02*
X125500000Y-99650000D01*
X163100000Y-69100000D02*
X163100000Y-63400000D01*
X160100000Y-69100000D02*
X163100000Y-69100000D01*
X160100000Y-63400000D02*
X160100000Y-69100000D01*
X160300000Y-72600000D02*
X160300000Y-78300000D01*
X160300000Y-78300000D02*
X163300000Y-78300000D01*
X163300000Y-78300000D02*
X163300000Y-72600000D01*
X174610000Y-69910000D02*
X174610000Y-67410000D01*
X172110000Y-69910000D02*
X174610000Y-69910000D01*
X172810000Y-62890000D02*
X174310000Y-62890000D01*
X172810000Y-61890000D02*
X172810000Y-62890000D01*
X172810000Y-68610000D02*
X174310000Y-68610000D01*
X172810000Y-69610000D02*
X172810000Y-68610000D01*
X172000000Y-62390000D02*
X172000000Y-61890000D01*
X170790000Y-62390000D02*
X172000000Y-62390000D01*
X170790000Y-69110000D02*
X170790000Y-62390000D01*
X172000000Y-69110000D02*
X170790000Y-69110000D01*
X172000000Y-69610000D02*
X172000000Y-69110000D01*
X170290000Y-61890000D02*
X170290000Y-69610000D01*
X174310000Y-61890000D02*
X170290000Y-61890000D01*
X174310000Y-69610000D02*
X174310000Y-61890000D01*
X170290000Y-69610000D02*
X174310000Y-69610000D01*
X170290000Y-78610000D02*
X174310000Y-78610000D01*
X174310000Y-78610000D02*
X174310000Y-70890000D01*
X174310000Y-70890000D02*
X170290000Y-70890000D01*
X170290000Y-70890000D02*
X170290000Y-78610000D01*
X172000000Y-78610000D02*
X172000000Y-78110000D01*
X172000000Y-78110000D02*
X170790000Y-78110000D01*
X170790000Y-78110000D02*
X170790000Y-71390000D01*
X170790000Y-71390000D02*
X172000000Y-71390000D01*
X172000000Y-71390000D02*
X172000000Y-70890000D01*
X172810000Y-78610000D02*
X172810000Y-77610000D01*
X172810000Y-77610000D02*
X174310000Y-77610000D01*
X172810000Y-70890000D02*
X172810000Y-71890000D01*
X172810000Y-71890000D02*
X174310000Y-71890000D01*
X172110000Y-78910000D02*
X174610000Y-78910000D01*
X174610000Y-78910000D02*
X174610000Y-76410000D01*
X133420000Y-91010000D02*
X134350000Y-91010000D01*
X136580000Y-91010000D02*
X135650000Y-91010000D01*
X136580000Y-91010000D02*
X136580000Y-88850000D01*
X133420000Y-91010000D02*
X133420000Y-89550000D01*
X166920000Y-91010000D02*
X166920000Y-89550000D01*
X170080000Y-91010000D02*
X170080000Y-88850000D01*
X170080000Y-91010000D02*
X169150000Y-91010000D01*
X166920000Y-91010000D02*
X167850000Y-91010000D01*
X129920000Y-94760000D02*
X129920000Y-93300000D01*
X133080000Y-94760000D02*
X133080000Y-92600000D01*
X133080000Y-94760000D02*
X132150000Y-94760000D01*
X129920000Y-94760000D02*
X130850000Y-94760000D01*
X163420000Y-94760000D02*
X164350000Y-94760000D01*
X166580000Y-94760000D02*
X165650000Y-94760000D01*
X166580000Y-94760000D02*
X166580000Y-92600000D01*
X163420000Y-94760000D02*
X163420000Y-93300000D01*
X124449000Y-110020000D02*
X124449000Y-107779000D01*
X127650000Y-110020000D02*
X127650000Y-107779000D01*
X119200000Y-107779000D02*
X118130000Y-107779000D01*
X124650000Y-107779000D02*
X122000000Y-107779000D01*
X130100000Y-107779000D02*
X127449000Y-107779000D01*
X133970000Y-107779000D02*
X132900000Y-107779000D01*
X118130000Y-110020000D02*
X118130000Y-104980000D01*
X133970000Y-110020000D02*
X133970000Y-104980000D01*
X133970000Y-104980000D02*
X118130000Y-104980000D01*
X119200000Y-110020000D02*
X118130000Y-110020000D01*
X124650000Y-110020000D02*
X122000000Y-110020000D01*
X130100000Y-110020000D02*
X127449000Y-110020000D01*
X133970000Y-110020000D02*
X132900000Y-110020000D01*
X166970000Y-110020000D02*
X165900000Y-110020000D01*
X163100000Y-110020000D02*
X160449000Y-110020000D01*
X157650000Y-110020000D02*
X155000000Y-110020000D01*
X152200000Y-110020000D02*
X151130000Y-110020000D01*
X166970000Y-104980000D02*
X151130000Y-104980000D01*
X166970000Y-110020000D02*
X166970000Y-104980000D01*
X151130000Y-110020000D02*
X151130000Y-104980000D01*
X166970000Y-107779000D02*
X165900000Y-107779000D01*
X163100000Y-107779000D02*
X160449000Y-107779000D01*
X157650000Y-107779000D02*
X155000000Y-107779000D01*
X152200000Y-107779000D02*
X151130000Y-107779000D01*
X160650000Y-110020000D02*
X160650000Y-107779000D01*
X157449000Y-110020000D02*
X157449000Y-107779000D01*
X157560000Y-67380000D02*
X157560000Y-66450000D01*
X157560000Y-64220000D02*
X157560000Y-65150000D01*
X157560000Y-64220000D02*
X155400000Y-64220000D01*
X157560000Y-67380000D02*
X156100000Y-67380000D01*
X157560000Y-76780000D02*
X156100000Y-76780000D01*
X157560000Y-73620000D02*
X155400000Y-73620000D01*
X157560000Y-73620000D02*
X157560000Y-74550000D01*
X157560000Y-76780000D02*
X157560000Y-75850000D01*
X164495276Y-87022500D02*
X165004724Y-87022500D01*
X164495276Y-85977500D02*
X165004724Y-85977500D01*
X165004724Y-81272500D02*
X164495276Y-81272500D01*
X165004724Y-80227500D02*
X164495276Y-80227500D01*
X168754724Y-80227500D02*
X168245276Y-80227500D01*
X168754724Y-81272500D02*
X168245276Y-81272500D01*
X131504724Y-89772500D02*
X130995276Y-89772500D01*
X131504724Y-88727500D02*
X130995276Y-88727500D01*
X135504724Y-93522500D02*
X134995276Y-93522500D01*
X135504724Y-92477500D02*
X134995276Y-92477500D01*
X135254724Y-87022500D02*
X134745276Y-87022500D01*
X135254724Y-85977500D02*
X134745276Y-85977500D01*
X165254724Y-89772500D02*
X164745276Y-89772500D01*
X165254724Y-88727500D02*
X164745276Y-88727500D01*
X168754724Y-85977500D02*
X168245276Y-85977500D01*
X168754724Y-87022500D02*
X168245276Y-87022500D01*
X149254724Y-62227500D02*
X148745276Y-62227500D01*
X149254724Y-63272500D02*
X148745276Y-63272500D01*
X168917224Y-92477500D02*
X168407776Y-92477500D01*
X168917224Y-93522500D02*
X168407776Y-93522500D01*
X160995276Y-87022500D02*
X161504724Y-87022500D01*
X160995276Y-85977500D02*
X161504724Y-85977500D01*
X127495276Y-91772500D02*
X128004724Y-91772500D01*
X127495276Y-90727500D02*
X128004724Y-90727500D01*
X130727500Y-66157776D02*
X130727500Y-66667224D01*
X131772500Y-66157776D02*
X131772500Y-66667224D01*
X162522500Y-93745276D02*
X162522500Y-94254724D01*
X161477500Y-93745276D02*
X161477500Y-94254724D01*
X132495276Y-63227500D02*
X133004724Y-63227500D01*
X132495276Y-64272500D02*
X133004724Y-64272500D01*
X133522500Y-66245276D02*
X133522500Y-66754724D01*
X132477500Y-66245276D02*
X132477500Y-66754724D01*
D14*
X141747520Y-66000000D02*
G75*
G03*
X141747520Y-66000000I-1747520J0D01*
G01*
X136901200Y-66998220D02*
X136901200Y-65001780D01*
X141498600Y-69098800D02*
X138501400Y-69098800D01*
X143098800Y-66998220D02*
X143098800Y-65001780D01*
X141498600Y-62901200D02*
X138501400Y-62901200D01*
D11*
X145500000Y-75610000D02*
X147000000Y-75610000D01*
X145500000Y-75610000D02*
X144000000Y-75610000D01*
X145500000Y-72390000D02*
X147000000Y-72390000D01*
X145500000Y-72390000D02*
X142575000Y-72390000D01*
X139754724Y-71522500D02*
X139245276Y-71522500D01*
X139754724Y-70477500D02*
X139245276Y-70477500D01*
X137490000Y-108946267D02*
X137490000Y-108653733D01*
X138510000Y-108946267D02*
X138510000Y-108653733D01*
X142653733Y-104290000D02*
X142946267Y-104290000D01*
X142653733Y-105310000D02*
X142946267Y-105310000D01*
X135760000Y-79396267D02*
X135760000Y-79103733D01*
X134740000Y-79396267D02*
X134740000Y-79103733D01*
X142850000Y-100670000D02*
X139020000Y-100670000D01*
X139020000Y-100670000D02*
X139020000Y-102530000D01*
X139020000Y-102530000D02*
X142850000Y-102530000D01*
X155504724Y-89772500D02*
X154995276Y-89772500D01*
X155504724Y-88727500D02*
X154995276Y-88727500D01*
X136970000Y-81850000D02*
X140570000Y-81850000D01*
X140608478Y-81838478D02*
G75*
G03*
X138770000Y-77400000I-1838478J1838478D01*
G01*
X136931522Y-81838478D02*
G75*
G02*
X138770000Y-77400000I1838478J1838478D01*
G01*
X157254724Y-67977500D02*
X156745276Y-67977500D01*
X157254724Y-69022500D02*
X156745276Y-69022500D01*
X156495276Y-77227500D02*
X157004724Y-77227500D01*
X156495276Y-78272500D02*
X157004724Y-78272500D01*
X145646267Y-70760000D02*
X145353733Y-70760000D01*
X145646267Y-69740000D02*
X145353733Y-69740000D01*
D13*
X138638095Y-104652380D02*
X138638095Y-105461904D01*
X138685714Y-105557142D01*
X138733333Y-105604761D01*
X138828571Y-105652380D01*
X139019047Y-105652380D01*
X139114285Y-105604761D01*
X139161904Y-105557142D01*
X139209523Y-105461904D01*
X139209523Y-104652380D01*
X140114285Y-104985714D02*
X140114285Y-105652380D01*
X139876190Y-104604761D02*
X139638095Y-105319047D01*
X140257142Y-105319047D01*
X119433333Y-86157142D02*
X119385714Y-86204761D01*
X119242857Y-86252380D01*
X119147619Y-86252380D01*
X119004761Y-86204761D01*
X118909523Y-86109523D01*
X118861904Y-86014285D01*
X118814285Y-85823809D01*
X118814285Y-85680952D01*
X118861904Y-85490476D01*
X118909523Y-85395238D01*
X119004761Y-85300000D01*
X119147619Y-85252380D01*
X119242857Y-85252380D01*
X119385714Y-85300000D01*
X119433333Y-85347619D01*
X120385714Y-86252380D02*
X119814285Y-86252380D01*
X120100000Y-86252380D02*
X120100000Y-85252380D01*
X120004761Y-85395238D01*
X119909523Y-85490476D01*
X119814285Y-85538095D01*
X123433333Y-85357142D02*
X123385714Y-85404761D01*
X123242857Y-85452380D01*
X123147619Y-85452380D01*
X123004761Y-85404761D01*
X122909523Y-85309523D01*
X122861904Y-85214285D01*
X122814285Y-85023809D01*
X122814285Y-84880952D01*
X122861904Y-84690476D01*
X122909523Y-84595238D01*
X123004761Y-84500000D01*
X123147619Y-84452380D01*
X123242857Y-84452380D01*
X123385714Y-84500000D01*
X123433333Y-84547619D01*
X123814285Y-84547619D02*
X123861904Y-84500000D01*
X123957142Y-84452380D01*
X124195238Y-84452380D01*
X124290476Y-84500000D01*
X124338095Y-84547619D01*
X124385714Y-84642857D01*
X124385714Y-84738095D01*
X124338095Y-84880952D01*
X123766666Y-85452380D01*
X124385714Y-85452380D01*
X117452380Y-91688095D02*
X116452380Y-91688095D01*
X116452380Y-91450000D01*
X116500000Y-91307142D01*
X116595238Y-91211904D01*
X116690476Y-91164285D01*
X116880952Y-91116666D01*
X117023809Y-91116666D01*
X117214285Y-91164285D01*
X117309523Y-91211904D01*
X117404761Y-91307142D01*
X117452380Y-91450000D01*
X117452380Y-91688095D01*
X116547619Y-90735714D02*
X116500000Y-90688095D01*
X116452380Y-90592857D01*
X116452380Y-90354761D01*
X116500000Y-90259523D01*
X116547619Y-90211904D01*
X116642857Y-90164285D01*
X116738095Y-90164285D01*
X116880952Y-90211904D01*
X117452380Y-90783333D01*
X117452380Y-90164285D01*
X119666666Y-74928571D02*
X119333333Y-74928571D01*
X119333333Y-75452380D02*
X119333333Y-74452380D01*
X119809523Y-74452380D01*
X120714285Y-75452380D02*
X120142857Y-75452380D01*
X120428571Y-75452380D02*
X120428571Y-74452380D01*
X120333333Y-74595238D01*
X120238095Y-74690476D01*
X120142857Y-74738095D01*
X111452380Y-93833333D02*
X112166666Y-93833333D01*
X112309523Y-93880952D01*
X112404761Y-93976190D01*
X112452380Y-94119047D01*
X112452380Y-94214285D01*
X111452380Y-93452380D02*
X111452380Y-92833333D01*
X111833333Y-93166666D01*
X111833333Y-93023809D01*
X111880952Y-92928571D01*
X111928571Y-92880952D01*
X112023809Y-92833333D01*
X112261904Y-92833333D01*
X112357142Y-92880952D01*
X112404761Y-92928571D01*
X112452380Y-93023809D01*
X112452380Y-93309523D01*
X112404761Y-93404761D01*
X112357142Y-93452380D01*
X128633333Y-77952380D02*
X128300000Y-77476190D01*
X128061904Y-77952380D02*
X128061904Y-76952380D01*
X128442857Y-76952380D01*
X128538095Y-77000000D01*
X128585714Y-77047619D01*
X128633333Y-77142857D01*
X128633333Y-77285714D01*
X128585714Y-77380952D01*
X128538095Y-77428571D01*
X128442857Y-77476190D01*
X128061904Y-77476190D01*
X129585714Y-77952380D02*
X129014285Y-77952380D01*
X129300000Y-77952380D02*
X129300000Y-76952380D01*
X129204761Y-77095238D01*
X129109523Y-77190476D01*
X129014285Y-77238095D01*
D15*
X119304523Y-81467619D02*
X120332619Y-81467619D01*
X120453571Y-81407142D01*
X120514047Y-81346666D01*
X120574523Y-81225714D01*
X120574523Y-80983809D01*
X120514047Y-80862857D01*
X120453571Y-80802380D01*
X120332619Y-80741904D01*
X119304523Y-80741904D01*
X120574523Y-79471904D02*
X120574523Y-80197619D01*
X120574523Y-79834761D02*
X119304523Y-79834761D01*
X119485952Y-79955714D01*
X119606904Y-80076666D01*
X119667380Y-80197619D01*
D13*
X115497380Y-58813333D02*
X116211666Y-58813333D01*
X116354523Y-58860952D01*
X116449761Y-58956190D01*
X116497380Y-59099047D01*
X116497380Y-59194285D01*
X115592619Y-58384761D02*
X115545000Y-58337142D01*
X115497380Y-58241904D01*
X115497380Y-58003809D01*
X115545000Y-57908571D01*
X115592619Y-57860952D01*
X115687857Y-57813333D01*
X115783095Y-57813333D01*
X115925952Y-57860952D01*
X116497380Y-58432380D01*
X116497380Y-57813333D01*
X120238095Y-70952380D02*
X120238095Y-71761904D01*
X120285714Y-71857142D01*
X120333333Y-71904761D01*
X120428571Y-71952380D01*
X120619047Y-71952380D01*
X120714285Y-71904761D01*
X120761904Y-71857142D01*
X120809523Y-71761904D01*
X120809523Y-70952380D01*
X121238095Y-71047619D02*
X121285714Y-71000000D01*
X121380952Y-70952380D01*
X121619047Y-70952380D01*
X121714285Y-71000000D01*
X121761904Y-71047619D01*
X121809523Y-71142857D01*
X121809523Y-71238095D01*
X121761904Y-71380952D01*
X121190476Y-71952380D01*
X121809523Y-71952380D01*
X115118095Y-68000000D02*
X115022857Y-67952380D01*
X114880000Y-67952380D01*
X114737142Y-68000000D01*
X114641904Y-68095238D01*
X114594285Y-68190476D01*
X114546666Y-68380952D01*
X114546666Y-68523809D01*
X114594285Y-68714285D01*
X114641904Y-68809523D01*
X114737142Y-68904761D01*
X114880000Y-68952380D01*
X114975238Y-68952380D01*
X115118095Y-68904761D01*
X115165714Y-68857142D01*
X115165714Y-68523809D01*
X114975238Y-68523809D01*
X115594285Y-68952380D02*
X115594285Y-67952380D01*
X116165714Y-68952380D01*
X116165714Y-67952380D01*
X116641904Y-68952380D02*
X116641904Y-67952380D01*
X116880000Y-67952380D01*
X117022857Y-68000000D01*
X117118095Y-68095238D01*
X117165714Y-68190476D01*
X117213333Y-68380952D01*
X117213333Y-68523809D01*
X117165714Y-68714285D01*
X117118095Y-68809523D01*
X117022857Y-68904761D01*
X116880000Y-68952380D01*
X116641904Y-68952380D01*
X114784761Y-65412380D02*
X115118095Y-66412380D01*
X115451428Y-65412380D01*
X115784761Y-66412380D02*
X115784761Y-65412380D01*
X116260952Y-66412380D02*
X116260952Y-65412380D01*
X116832380Y-66412380D01*
X116832380Y-65412380D01*
X114626190Y-63348571D02*
X114959523Y-63348571D01*
X115102380Y-63872380D02*
X114626190Y-63872380D01*
X114626190Y-62872380D01*
X115102380Y-62872380D01*
X115530952Y-63872380D02*
X115530952Y-62872380D01*
X116102380Y-63872380D01*
X116102380Y-62872380D01*
X116530952Y-63586666D02*
X117007142Y-63586666D01*
X116435714Y-63872380D02*
X116769047Y-62872380D01*
X117102380Y-63872380D01*
X117769047Y-63348571D02*
X117911904Y-63396190D01*
X117959523Y-63443809D01*
X118007142Y-63539047D01*
X118007142Y-63681904D01*
X117959523Y-63777142D01*
X117911904Y-63824761D01*
X117816666Y-63872380D01*
X117435714Y-63872380D01*
X117435714Y-62872380D01*
X117769047Y-62872380D01*
X117864285Y-62920000D01*
X117911904Y-62967619D01*
X117959523Y-63062857D01*
X117959523Y-63158095D01*
X117911904Y-63253333D01*
X117864285Y-63300952D01*
X117769047Y-63348571D01*
X117435714Y-63348571D01*
X118911904Y-63872380D02*
X118435714Y-63872380D01*
X118435714Y-62872380D01*
X119245238Y-63348571D02*
X119578571Y-63348571D01*
X119721428Y-63872380D02*
X119245238Y-63872380D01*
X119245238Y-62872380D01*
X119721428Y-62872380D01*
X115388095Y-70492380D02*
X115721428Y-71492380D01*
X116054761Y-70492380D01*
X116578571Y-70492380D02*
X116769047Y-70492380D01*
X116864285Y-70540000D01*
X116959523Y-70635238D01*
X117007142Y-70825714D01*
X117007142Y-71159047D01*
X116959523Y-71349523D01*
X116864285Y-71444761D01*
X116769047Y-71492380D01*
X116578571Y-71492380D01*
X116483333Y-71444761D01*
X116388095Y-71349523D01*
X116340476Y-71159047D01*
X116340476Y-70825714D01*
X116388095Y-70635238D01*
X116483333Y-70540000D01*
X116578571Y-70492380D01*
X117435714Y-70492380D02*
X117435714Y-71301904D01*
X117483333Y-71397142D01*
X117530952Y-71444761D01*
X117626190Y-71492380D01*
X117816666Y-71492380D01*
X117911904Y-71444761D01*
X117959523Y-71397142D01*
X118007142Y-71301904D01*
X118007142Y-70492380D01*
X118340476Y-70492380D02*
X118911904Y-70492380D01*
X118626190Y-71492380D02*
X118626190Y-70492380D01*
X128033333Y-73157142D02*
X127985714Y-73204761D01*
X127842857Y-73252380D01*
X127747619Y-73252380D01*
X127604761Y-73204761D01*
X127509523Y-73109523D01*
X127461904Y-73014285D01*
X127414285Y-72823809D01*
X127414285Y-72680952D01*
X127461904Y-72490476D01*
X127509523Y-72395238D01*
X127604761Y-72300000D01*
X127747619Y-72252380D01*
X127842857Y-72252380D01*
X127985714Y-72300000D01*
X128033333Y-72347619D01*
X128366666Y-72252380D02*
X128985714Y-72252380D01*
X128652380Y-72633333D01*
X128795238Y-72633333D01*
X128890476Y-72680952D01*
X128938095Y-72728571D01*
X128985714Y-72823809D01*
X128985714Y-73061904D01*
X128938095Y-73157142D01*
X128890476Y-73204761D01*
X128795238Y-73252380D01*
X128509523Y-73252380D01*
X128414285Y-73204761D01*
X128366666Y-73157142D01*
X136833333Y-75357142D02*
X136785714Y-75404761D01*
X136642857Y-75452380D01*
X136547619Y-75452380D01*
X136404761Y-75404761D01*
X136309523Y-75309523D01*
X136261904Y-75214285D01*
X136214285Y-75023809D01*
X136214285Y-74880952D01*
X136261904Y-74690476D01*
X136309523Y-74595238D01*
X136404761Y-74500000D01*
X136547619Y-74452380D01*
X136642857Y-74452380D01*
X136785714Y-74500000D01*
X136833333Y-74547619D01*
X137690476Y-74785714D02*
X137690476Y-75452380D01*
X137452380Y-74404761D02*
X137214285Y-75119047D01*
X137833333Y-75119047D01*
X155833333Y-84107142D02*
X155785714Y-84154761D01*
X155642857Y-84202380D01*
X155547619Y-84202380D01*
X155404761Y-84154761D01*
X155309523Y-84059523D01*
X155261904Y-83964285D01*
X155214285Y-83773809D01*
X155214285Y-83630952D01*
X155261904Y-83440476D01*
X155309523Y-83345238D01*
X155404761Y-83250000D01*
X155547619Y-83202380D01*
X155642857Y-83202380D01*
X155785714Y-83250000D01*
X155833333Y-83297619D01*
X156690476Y-83202380D02*
X156500000Y-83202380D01*
X156404761Y-83250000D01*
X156357142Y-83297619D01*
X156261904Y-83440476D01*
X156214285Y-83630952D01*
X156214285Y-84011904D01*
X156261904Y-84107142D01*
X156309523Y-84154761D01*
X156404761Y-84202380D01*
X156595238Y-84202380D01*
X156690476Y-84154761D01*
X156738095Y-84107142D01*
X156785714Y-84011904D01*
X156785714Y-83773809D01*
X156738095Y-83678571D01*
X156690476Y-83630952D01*
X156595238Y-83583333D01*
X156404761Y-83583333D01*
X156309523Y-83630952D01*
X156261904Y-83678571D01*
X156214285Y-83773809D01*
X168333333Y-85607142D02*
X168285714Y-85654761D01*
X168142857Y-85702380D01*
X168047619Y-85702380D01*
X167904761Y-85654761D01*
X167809523Y-85559523D01*
X167761904Y-85464285D01*
X167714285Y-85273809D01*
X167714285Y-85130952D01*
X167761904Y-84940476D01*
X167809523Y-84845238D01*
X167904761Y-84750000D01*
X168047619Y-84702380D01*
X168142857Y-84702380D01*
X168285714Y-84750000D01*
X168333333Y-84797619D01*
X168809523Y-85702380D02*
X169000000Y-85702380D01*
X169095238Y-85654761D01*
X169142857Y-85607142D01*
X169238095Y-85464285D01*
X169285714Y-85273809D01*
X169285714Y-84892857D01*
X169238095Y-84797619D01*
X169190476Y-84750000D01*
X169095238Y-84702380D01*
X168904761Y-84702380D01*
X168809523Y-84750000D01*
X168761904Y-84797619D01*
X168714285Y-84892857D01*
X168714285Y-85130952D01*
X168761904Y-85226190D01*
X168809523Y-85273809D01*
X168904761Y-85321428D01*
X169095238Y-85321428D01*
X169190476Y-85273809D01*
X169238095Y-85226190D01*
X169285714Y-85130952D01*
X133761904Y-73452380D02*
X133761904Y-72452380D01*
X134000000Y-72452380D01*
X134142857Y-72500000D01*
X134238095Y-72595238D01*
X134285714Y-72690476D01*
X134333333Y-72880952D01*
X134333333Y-73023809D01*
X134285714Y-73214285D01*
X134238095Y-73309523D01*
X134142857Y-73404761D01*
X134000000Y-73452380D01*
X133761904Y-73452380D01*
X135190476Y-72785714D02*
X135190476Y-73452380D01*
X134952380Y-72404761D02*
X134714285Y-73119047D01*
X135333333Y-73119047D01*
X157511904Y-91202380D02*
X157511904Y-90202380D01*
X157750000Y-90202380D01*
X157892857Y-90250000D01*
X157988095Y-90345238D01*
X158035714Y-90440476D01*
X158083333Y-90630952D01*
X158083333Y-90773809D01*
X158035714Y-90964285D01*
X157988095Y-91059523D01*
X157892857Y-91154761D01*
X157750000Y-91202380D01*
X157511904Y-91202380D01*
X158988095Y-90202380D02*
X158511904Y-90202380D01*
X158464285Y-90678571D01*
X158511904Y-90630952D01*
X158607142Y-90583333D01*
X158845238Y-90583333D01*
X158940476Y-90630952D01*
X158988095Y-90678571D01*
X159035714Y-90773809D01*
X159035714Y-91011904D01*
X158988095Y-91107142D01*
X158940476Y-91154761D01*
X158845238Y-91202380D01*
X158607142Y-91202380D01*
X158511904Y-91154761D01*
X158464285Y-91107142D01*
X151511904Y-91202380D02*
X151511904Y-90202380D01*
X151750000Y-90202380D01*
X151892857Y-90250000D01*
X151988095Y-90345238D01*
X152035714Y-90440476D01*
X152083333Y-90630952D01*
X152083333Y-90773809D01*
X152035714Y-90964285D01*
X151988095Y-91059523D01*
X151892857Y-91154761D01*
X151750000Y-91202380D01*
X151511904Y-91202380D01*
X152940476Y-90202380D02*
X152750000Y-90202380D01*
X152654761Y-90250000D01*
X152607142Y-90297619D01*
X152511904Y-90440476D01*
X152464285Y-90630952D01*
X152464285Y-91011904D01*
X152511904Y-91107142D01*
X152559523Y-91154761D01*
X152654761Y-91202380D01*
X152845238Y-91202380D01*
X152940476Y-91154761D01*
X152988095Y-91107142D01*
X153035714Y-91011904D01*
X153035714Y-90773809D01*
X152988095Y-90678571D01*
X152940476Y-90630952D01*
X152845238Y-90583333D01*
X152654761Y-90583333D01*
X152559523Y-90630952D01*
X152511904Y-90678571D01*
X152464285Y-90773809D01*
X148261904Y-64882380D02*
X148261904Y-63882380D01*
X148500000Y-63882380D01*
X148642857Y-63930000D01*
X148738095Y-64025238D01*
X148785714Y-64120476D01*
X148833333Y-64310952D01*
X148833333Y-64453809D01*
X148785714Y-64644285D01*
X148738095Y-64739523D01*
X148642857Y-64834761D01*
X148500000Y-64882380D01*
X148261904Y-64882380D01*
X149166666Y-63882380D02*
X149833333Y-63882380D01*
X149404761Y-64882380D01*
X155511904Y-101452380D02*
X155511904Y-100452380D01*
X155750000Y-100452380D01*
X155892857Y-100500000D01*
X155988095Y-100595238D01*
X156035714Y-100690476D01*
X156083333Y-100880952D01*
X156083333Y-101023809D01*
X156035714Y-101214285D01*
X155988095Y-101309523D01*
X155892857Y-101404761D01*
X155750000Y-101452380D01*
X155511904Y-101452380D01*
X156654761Y-100880952D02*
X156559523Y-100833333D01*
X156511904Y-100785714D01*
X156464285Y-100690476D01*
X156464285Y-100642857D01*
X156511904Y-100547619D01*
X156559523Y-100500000D01*
X156654761Y-100452380D01*
X156845238Y-100452380D01*
X156940476Y-100500000D01*
X156988095Y-100547619D01*
X157035714Y-100642857D01*
X157035714Y-100690476D01*
X156988095Y-100785714D01*
X156940476Y-100833333D01*
X156845238Y-100880952D01*
X156654761Y-100880952D01*
X156559523Y-100928571D01*
X156511904Y-100976190D01*
X156464285Y-101071428D01*
X156464285Y-101261904D01*
X156511904Y-101357142D01*
X156559523Y-101404761D01*
X156654761Y-101452380D01*
X156845238Y-101452380D01*
X156940476Y-101404761D01*
X156988095Y-101357142D01*
X157035714Y-101261904D01*
X157035714Y-101071428D01*
X156988095Y-100976190D01*
X156940476Y-100928571D01*
X156845238Y-100880952D01*
X129952380Y-97988095D02*
X128952380Y-97988095D01*
X128952380Y-97750000D01*
X129000000Y-97607142D01*
X129095238Y-97511904D01*
X129190476Y-97464285D01*
X129380952Y-97416666D01*
X129523809Y-97416666D01*
X129714285Y-97464285D01*
X129809523Y-97511904D01*
X129904761Y-97607142D01*
X129952380Y-97750000D01*
X129952380Y-97988095D01*
X129952380Y-96940476D02*
X129952380Y-96750000D01*
X129904761Y-96654761D01*
X129857142Y-96607142D01*
X129714285Y-96511904D01*
X129523809Y-96464285D01*
X129142857Y-96464285D01*
X129047619Y-96511904D01*
X129000000Y-96559523D01*
X128952380Y-96654761D01*
X128952380Y-96845238D01*
X129000000Y-96940476D01*
X129047619Y-96988095D01*
X129142857Y-97035714D01*
X129380952Y-97035714D01*
X129476190Y-96988095D01*
X129523809Y-96940476D01*
X129571428Y-96845238D01*
X129571428Y-96654761D01*
X129523809Y-96559523D01*
X129476190Y-96511904D01*
X129380952Y-96464285D01*
X159552380Y-67014285D02*
X158552380Y-67014285D01*
X158552380Y-66776190D01*
X158600000Y-66633333D01*
X158695238Y-66538095D01*
X158790476Y-66490476D01*
X158980952Y-66442857D01*
X159123809Y-66442857D01*
X159314285Y-66490476D01*
X159409523Y-66538095D01*
X159504761Y-66633333D01*
X159552380Y-66776190D01*
X159552380Y-67014285D01*
X159552380Y-65490476D02*
X159552380Y-66061904D01*
X159552380Y-65776190D02*
X158552380Y-65776190D01*
X158695238Y-65871428D01*
X158790476Y-65966666D01*
X158838095Y-66061904D01*
X158552380Y-64871428D02*
X158552380Y-64776190D01*
X158600000Y-64680952D01*
X158647619Y-64633333D01*
X158742857Y-64585714D01*
X158933333Y-64538095D01*
X159171428Y-64538095D01*
X159361904Y-64585714D01*
X159457142Y-64633333D01*
X159504761Y-64680952D01*
X159552380Y-64776190D01*
X159552380Y-64871428D01*
X159504761Y-64966666D01*
X159457142Y-65014285D01*
X159361904Y-65061904D01*
X159171428Y-65109523D01*
X158933333Y-65109523D01*
X158742857Y-65061904D01*
X158647619Y-65014285D01*
X158600000Y-64966666D01*
X158552380Y-64871428D01*
X159752380Y-76214285D02*
X158752380Y-76214285D01*
X158752380Y-75976190D01*
X158800000Y-75833333D01*
X158895238Y-75738095D01*
X158990476Y-75690476D01*
X159180952Y-75642857D01*
X159323809Y-75642857D01*
X159514285Y-75690476D01*
X159609523Y-75738095D01*
X159704761Y-75833333D01*
X159752380Y-75976190D01*
X159752380Y-76214285D01*
X159752380Y-74690476D02*
X159752380Y-75261904D01*
X159752380Y-74976190D02*
X158752380Y-74976190D01*
X158895238Y-75071428D01*
X158990476Y-75166666D01*
X159038095Y-75261904D01*
X159752380Y-73738095D02*
X159752380Y-74309523D01*
X159752380Y-74023809D02*
X158752380Y-74023809D01*
X158895238Y-74119047D01*
X158990476Y-74214285D01*
X159038095Y-74309523D01*
X168652380Y-66083333D02*
X169366666Y-66083333D01*
X169509523Y-66130952D01*
X169604761Y-66226190D01*
X169652380Y-66369047D01*
X169652380Y-66464285D01*
X169080952Y-65464285D02*
X169033333Y-65559523D01*
X168985714Y-65607142D01*
X168890476Y-65654761D01*
X168842857Y-65654761D01*
X168747619Y-65607142D01*
X168700000Y-65559523D01*
X168652380Y-65464285D01*
X168652380Y-65273809D01*
X168700000Y-65178571D01*
X168747619Y-65130952D01*
X168842857Y-65083333D01*
X168890476Y-65083333D01*
X168985714Y-65130952D01*
X169033333Y-65178571D01*
X169080952Y-65273809D01*
X169080952Y-65464285D01*
X169128571Y-65559523D01*
X169176190Y-65607142D01*
X169271428Y-65654761D01*
X169461904Y-65654761D01*
X169557142Y-65607142D01*
X169604761Y-65559523D01*
X169652380Y-65464285D01*
X169652380Y-65273809D01*
X169604761Y-65178571D01*
X169557142Y-65130952D01*
X169461904Y-65083333D01*
X169271428Y-65083333D01*
X169176190Y-65130952D01*
X169128571Y-65178571D01*
X169080952Y-65273809D01*
X168652380Y-75083333D02*
X169366666Y-75083333D01*
X169509523Y-75130952D01*
X169604761Y-75226190D01*
X169652380Y-75369047D01*
X169652380Y-75464285D01*
X169652380Y-74559523D02*
X169652380Y-74369047D01*
X169604761Y-74273809D01*
X169557142Y-74226190D01*
X169414285Y-74130952D01*
X169223809Y-74083333D01*
X168842857Y-74083333D01*
X168747619Y-74130952D01*
X168700000Y-74178571D01*
X168652380Y-74273809D01*
X168652380Y-74464285D01*
X168700000Y-74559523D01*
X168747619Y-74607142D01*
X168842857Y-74654761D01*
X169080952Y-74654761D01*
X169176190Y-74607142D01*
X169223809Y-74559523D01*
X169271428Y-74464285D01*
X169271428Y-74273809D01*
X169223809Y-74178571D01*
X169176190Y-74130952D01*
X169080952Y-74083333D01*
X138047619Y-90345238D02*
X138000000Y-90440476D01*
X137904761Y-90535714D01*
X137761904Y-90678571D01*
X137714285Y-90773809D01*
X137714285Y-90869047D01*
X137952380Y-90821428D02*
X137904761Y-90916666D01*
X137809523Y-91011904D01*
X137619047Y-91059523D01*
X137285714Y-91059523D01*
X137095238Y-91011904D01*
X137000000Y-90916666D01*
X136952380Y-90821428D01*
X136952380Y-90630952D01*
X137000000Y-90535714D01*
X137095238Y-90440476D01*
X137285714Y-90392857D01*
X137619047Y-90392857D01*
X137809523Y-90440476D01*
X137904761Y-90535714D01*
X137952380Y-90630952D01*
X137952380Y-90821428D01*
X137952380Y-89440476D02*
X137952380Y-90011904D01*
X137952380Y-89726190D02*
X136952380Y-89726190D01*
X137095238Y-89821428D01*
X137190476Y-89916666D01*
X137238095Y-90011904D01*
X171154761Y-92047619D02*
X171059523Y-92000000D01*
X170964285Y-91904761D01*
X170821428Y-91761904D01*
X170726190Y-91714285D01*
X170630952Y-91714285D01*
X170678571Y-91952380D02*
X170583333Y-91904761D01*
X170488095Y-91809523D01*
X170440476Y-91619047D01*
X170440476Y-91285714D01*
X170488095Y-91095238D01*
X170583333Y-91000000D01*
X170678571Y-90952380D01*
X170869047Y-90952380D01*
X170964285Y-91000000D01*
X171059523Y-91095238D01*
X171107142Y-91285714D01*
X171107142Y-91619047D01*
X171059523Y-91809523D01*
X170964285Y-91904761D01*
X170869047Y-91952380D01*
X170678571Y-91952380D01*
X171488095Y-91047619D02*
X171535714Y-91000000D01*
X171630952Y-90952380D01*
X171869047Y-90952380D01*
X171964285Y-91000000D01*
X172011904Y-91047619D01*
X172059523Y-91142857D01*
X172059523Y-91238095D01*
X172011904Y-91380952D01*
X171440476Y-91952380D01*
X172059523Y-91952380D01*
X131654761Y-97047619D02*
X131559523Y-97000000D01*
X131464285Y-96904761D01*
X131321428Y-96761904D01*
X131226190Y-96714285D01*
X131130952Y-96714285D01*
X131178571Y-96952380D02*
X131083333Y-96904761D01*
X130988095Y-96809523D01*
X130940476Y-96619047D01*
X130940476Y-96285714D01*
X130988095Y-96095238D01*
X131083333Y-96000000D01*
X131178571Y-95952380D01*
X131369047Y-95952380D01*
X131464285Y-96000000D01*
X131559523Y-96095238D01*
X131607142Y-96285714D01*
X131607142Y-96619047D01*
X131559523Y-96809523D01*
X131464285Y-96904761D01*
X131369047Y-96952380D01*
X131178571Y-96952380D01*
X131940476Y-95952380D02*
X132559523Y-95952380D01*
X132226190Y-96333333D01*
X132369047Y-96333333D01*
X132464285Y-96380952D01*
X132511904Y-96428571D01*
X132559523Y-96523809D01*
X132559523Y-96761904D01*
X132511904Y-96857142D01*
X132464285Y-96904761D01*
X132369047Y-96952380D01*
X132083333Y-96952380D01*
X131988095Y-96904761D01*
X131940476Y-96857142D01*
X165154761Y-97047619D02*
X165059523Y-97000000D01*
X164964285Y-96904761D01*
X164821428Y-96761904D01*
X164726190Y-96714285D01*
X164630952Y-96714285D01*
X164678571Y-96952380D02*
X164583333Y-96904761D01*
X164488095Y-96809523D01*
X164440476Y-96619047D01*
X164440476Y-96285714D01*
X164488095Y-96095238D01*
X164583333Y-96000000D01*
X164678571Y-95952380D01*
X164869047Y-95952380D01*
X164964285Y-96000000D01*
X165059523Y-96095238D01*
X165107142Y-96285714D01*
X165107142Y-96619047D01*
X165059523Y-96809523D01*
X164964285Y-96904761D01*
X164869047Y-96952380D01*
X164678571Y-96952380D01*
X165964285Y-96285714D02*
X165964285Y-96952380D01*
X165726190Y-95904761D02*
X165488095Y-96619047D01*
X166107142Y-96619047D01*
X134404761Y-109547619D02*
X134309523Y-109500000D01*
X134214285Y-109404761D01*
X134071428Y-109261904D01*
X133976190Y-109214285D01*
X133880952Y-109214285D01*
X133928571Y-109452380D02*
X133833333Y-109404761D01*
X133738095Y-109309523D01*
X133690476Y-109119047D01*
X133690476Y-108785714D01*
X133738095Y-108595238D01*
X133833333Y-108500000D01*
X133928571Y-108452380D01*
X134119047Y-108452380D01*
X134214285Y-108500000D01*
X134309523Y-108595238D01*
X134357142Y-108785714D01*
X134357142Y-109119047D01*
X134309523Y-109309523D01*
X134214285Y-109404761D01*
X134119047Y-109452380D01*
X133928571Y-109452380D01*
X135261904Y-108452380D02*
X134785714Y-108452380D01*
X134738095Y-108928571D01*
X134785714Y-108880952D01*
X134880952Y-108833333D01*
X135119047Y-108833333D01*
X135214285Y-108880952D01*
X135261904Y-108928571D01*
X135309523Y-109023809D01*
X135309523Y-109261904D01*
X135261904Y-109357142D01*
X135214285Y-109404761D01*
X135119047Y-109452380D01*
X134880952Y-109452380D01*
X134785714Y-109404761D01*
X134738095Y-109357142D01*
X167404761Y-110047619D02*
X167309523Y-110000000D01*
X167214285Y-109904761D01*
X167071428Y-109761904D01*
X166976190Y-109714285D01*
X166880952Y-109714285D01*
X166928571Y-109952380D02*
X166833333Y-109904761D01*
X166738095Y-109809523D01*
X166690476Y-109619047D01*
X166690476Y-109285714D01*
X166738095Y-109095238D01*
X166833333Y-109000000D01*
X166928571Y-108952380D01*
X167119047Y-108952380D01*
X167214285Y-109000000D01*
X167309523Y-109095238D01*
X167357142Y-109285714D01*
X167357142Y-109619047D01*
X167309523Y-109809523D01*
X167214285Y-109904761D01*
X167119047Y-109952380D01*
X166928571Y-109952380D01*
X168214285Y-108952380D02*
X168023809Y-108952380D01*
X167928571Y-109000000D01*
X167880952Y-109047619D01*
X167785714Y-109190476D01*
X167738095Y-109380952D01*
X167738095Y-109761904D01*
X167785714Y-109857142D01*
X167833333Y-109904761D01*
X167928571Y-109952380D01*
X168119047Y-109952380D01*
X168214285Y-109904761D01*
X168261904Y-109857142D01*
X168309523Y-109761904D01*
X168309523Y-109523809D01*
X168261904Y-109428571D01*
X168214285Y-109380952D01*
X168119047Y-109333333D01*
X167928571Y-109333333D01*
X167833333Y-109380952D01*
X167785714Y-109428571D01*
X167738095Y-109523809D01*
X156704761Y-63847619D02*
X156609523Y-63800000D01*
X156514285Y-63704761D01*
X156371428Y-63561904D01*
X156276190Y-63514285D01*
X156180952Y-63514285D01*
X156228571Y-63752380D02*
X156133333Y-63704761D01*
X156038095Y-63609523D01*
X155990476Y-63419047D01*
X155990476Y-63085714D01*
X156038095Y-62895238D01*
X156133333Y-62800000D01*
X156228571Y-62752380D01*
X156419047Y-62752380D01*
X156514285Y-62800000D01*
X156609523Y-62895238D01*
X156657142Y-63085714D01*
X156657142Y-63419047D01*
X156609523Y-63609523D01*
X156514285Y-63704761D01*
X156419047Y-63752380D01*
X156228571Y-63752380D01*
X156990476Y-62752380D02*
X157657142Y-62752380D01*
X157228571Y-63752380D01*
X156704761Y-73247619D02*
X156609523Y-73200000D01*
X156514285Y-73104761D01*
X156371428Y-72961904D01*
X156276190Y-72914285D01*
X156180952Y-72914285D01*
X156228571Y-73152380D02*
X156133333Y-73104761D01*
X156038095Y-73009523D01*
X155990476Y-72819047D01*
X155990476Y-72485714D01*
X156038095Y-72295238D01*
X156133333Y-72200000D01*
X156228571Y-72152380D01*
X156419047Y-72152380D01*
X156514285Y-72200000D01*
X156609523Y-72295238D01*
X156657142Y-72485714D01*
X156657142Y-72819047D01*
X156609523Y-73009523D01*
X156514285Y-73104761D01*
X156419047Y-73152380D01*
X156228571Y-73152380D01*
X157228571Y-72580952D02*
X157133333Y-72533333D01*
X157085714Y-72485714D01*
X157038095Y-72390476D01*
X157038095Y-72342857D01*
X157085714Y-72247619D01*
X157133333Y-72200000D01*
X157228571Y-72152380D01*
X157419047Y-72152380D01*
X157514285Y-72200000D01*
X157561904Y-72247619D01*
X157609523Y-72342857D01*
X157609523Y-72390476D01*
X157561904Y-72485714D01*
X157514285Y-72533333D01*
X157419047Y-72580952D01*
X157228571Y-72580952D01*
X157133333Y-72628571D01*
X157085714Y-72676190D01*
X157038095Y-72771428D01*
X157038095Y-72961904D01*
X157085714Y-73057142D01*
X157133333Y-73104761D01*
X157228571Y-73152380D01*
X157419047Y-73152380D01*
X157514285Y-73104761D01*
X157561904Y-73057142D01*
X157609523Y-72961904D01*
X157609523Y-72771428D01*
X157561904Y-72676190D01*
X157514285Y-72628571D01*
X157419047Y-72580952D01*
X164583333Y-85522380D02*
X164250000Y-85046190D01*
X164011904Y-85522380D02*
X164011904Y-84522380D01*
X164392857Y-84522380D01*
X164488095Y-84570000D01*
X164535714Y-84617619D01*
X164583333Y-84712857D01*
X164583333Y-84855714D01*
X164535714Y-84950952D01*
X164488095Y-84998571D01*
X164392857Y-85046190D01*
X164011904Y-85046190D01*
X164964285Y-84617619D02*
X165011904Y-84570000D01*
X165107142Y-84522380D01*
X165345238Y-84522380D01*
X165440476Y-84570000D01*
X165488095Y-84617619D01*
X165535714Y-84712857D01*
X165535714Y-84808095D01*
X165488095Y-84950952D01*
X164916666Y-85522380D01*
X165535714Y-85522380D01*
X164583333Y-79702380D02*
X164250000Y-79226190D01*
X164011904Y-79702380D02*
X164011904Y-78702380D01*
X164392857Y-78702380D01*
X164488095Y-78750000D01*
X164535714Y-78797619D01*
X164583333Y-78892857D01*
X164583333Y-79035714D01*
X164535714Y-79130952D01*
X164488095Y-79178571D01*
X164392857Y-79226190D01*
X164011904Y-79226190D01*
X164916666Y-78702380D02*
X165535714Y-78702380D01*
X165202380Y-79083333D01*
X165345238Y-79083333D01*
X165440476Y-79130952D01*
X165488095Y-79178571D01*
X165535714Y-79273809D01*
X165535714Y-79511904D01*
X165488095Y-79607142D01*
X165440476Y-79654761D01*
X165345238Y-79702380D01*
X165059523Y-79702380D01*
X164964285Y-79654761D01*
X164916666Y-79607142D01*
X168333333Y-82632380D02*
X168000000Y-82156190D01*
X167761904Y-82632380D02*
X167761904Y-81632380D01*
X168142857Y-81632380D01*
X168238095Y-81680000D01*
X168285714Y-81727619D01*
X168333333Y-81822857D01*
X168333333Y-81965714D01*
X168285714Y-82060952D01*
X168238095Y-82108571D01*
X168142857Y-82156190D01*
X167761904Y-82156190D01*
X169190476Y-81965714D02*
X169190476Y-82632380D01*
X168952380Y-81584761D02*
X168714285Y-82299047D01*
X169333333Y-82299047D01*
X131083333Y-91132380D02*
X130750000Y-90656190D01*
X130511904Y-91132380D02*
X130511904Y-90132380D01*
X130892857Y-90132380D01*
X130988095Y-90180000D01*
X131035714Y-90227619D01*
X131083333Y-90322857D01*
X131083333Y-90465714D01*
X131035714Y-90560952D01*
X130988095Y-90608571D01*
X130892857Y-90656190D01*
X130511904Y-90656190D01*
X131940476Y-90132380D02*
X131750000Y-90132380D01*
X131654761Y-90180000D01*
X131607142Y-90227619D01*
X131511904Y-90370476D01*
X131464285Y-90560952D01*
X131464285Y-90941904D01*
X131511904Y-91037142D01*
X131559523Y-91084761D01*
X131654761Y-91132380D01*
X131845238Y-91132380D01*
X131940476Y-91084761D01*
X131988095Y-91037142D01*
X132035714Y-90941904D01*
X132035714Y-90703809D01*
X131988095Y-90608571D01*
X131940476Y-90560952D01*
X131845238Y-90513333D01*
X131654761Y-90513333D01*
X131559523Y-90560952D01*
X131511904Y-90608571D01*
X131464285Y-90703809D01*
X135083333Y-94882380D02*
X134750000Y-94406190D01*
X134511904Y-94882380D02*
X134511904Y-93882380D01*
X134892857Y-93882380D01*
X134988095Y-93930000D01*
X135035714Y-93977619D01*
X135083333Y-94072857D01*
X135083333Y-94215714D01*
X135035714Y-94310952D01*
X134988095Y-94358571D01*
X134892857Y-94406190D01*
X134511904Y-94406190D01*
X135416666Y-93882380D02*
X136083333Y-93882380D01*
X135654761Y-94882380D01*
X134833333Y-88382380D02*
X134500000Y-87906190D01*
X134261904Y-88382380D02*
X134261904Y-87382380D01*
X134642857Y-87382380D01*
X134738095Y-87430000D01*
X134785714Y-87477619D01*
X134833333Y-87572857D01*
X134833333Y-87715714D01*
X134785714Y-87810952D01*
X134738095Y-87858571D01*
X134642857Y-87906190D01*
X134261904Y-87906190D01*
X135404761Y-87810952D02*
X135309523Y-87763333D01*
X135261904Y-87715714D01*
X135214285Y-87620476D01*
X135214285Y-87572857D01*
X135261904Y-87477619D01*
X135309523Y-87430000D01*
X135404761Y-87382380D01*
X135595238Y-87382380D01*
X135690476Y-87430000D01*
X135738095Y-87477619D01*
X135785714Y-87572857D01*
X135785714Y-87620476D01*
X135738095Y-87715714D01*
X135690476Y-87763333D01*
X135595238Y-87810952D01*
X135404761Y-87810952D01*
X135309523Y-87858571D01*
X135261904Y-87906190D01*
X135214285Y-88001428D01*
X135214285Y-88191904D01*
X135261904Y-88287142D01*
X135309523Y-88334761D01*
X135404761Y-88382380D01*
X135595238Y-88382380D01*
X135690476Y-88334761D01*
X135738095Y-88287142D01*
X135785714Y-88191904D01*
X135785714Y-88001428D01*
X135738095Y-87906190D01*
X135690476Y-87858571D01*
X135595238Y-87810952D01*
X164833333Y-91132380D02*
X164500000Y-90656190D01*
X164261904Y-91132380D02*
X164261904Y-90132380D01*
X164642857Y-90132380D01*
X164738095Y-90180000D01*
X164785714Y-90227619D01*
X164833333Y-90322857D01*
X164833333Y-90465714D01*
X164785714Y-90560952D01*
X164738095Y-90608571D01*
X164642857Y-90656190D01*
X164261904Y-90656190D01*
X165309523Y-91132380D02*
X165500000Y-91132380D01*
X165595238Y-91084761D01*
X165642857Y-91037142D01*
X165738095Y-90894285D01*
X165785714Y-90703809D01*
X165785714Y-90322857D01*
X165738095Y-90227619D01*
X165690476Y-90180000D01*
X165595238Y-90132380D01*
X165404761Y-90132380D01*
X165309523Y-90180000D01*
X165261904Y-90227619D01*
X165214285Y-90322857D01*
X165214285Y-90560952D01*
X165261904Y-90656190D01*
X165309523Y-90703809D01*
X165404761Y-90751428D01*
X165595238Y-90751428D01*
X165690476Y-90703809D01*
X165738095Y-90656190D01*
X165785714Y-90560952D01*
X167857142Y-88382380D02*
X167523809Y-87906190D01*
X167285714Y-88382380D02*
X167285714Y-87382380D01*
X167666666Y-87382380D01*
X167761904Y-87430000D01*
X167809523Y-87477619D01*
X167857142Y-87572857D01*
X167857142Y-87715714D01*
X167809523Y-87810952D01*
X167761904Y-87858571D01*
X167666666Y-87906190D01*
X167285714Y-87906190D01*
X168809523Y-88382380D02*
X168238095Y-88382380D01*
X168523809Y-88382380D02*
X168523809Y-87382380D01*
X168428571Y-87525238D01*
X168333333Y-87620476D01*
X168238095Y-87668095D01*
X169428571Y-87382380D02*
X169523809Y-87382380D01*
X169619047Y-87430000D01*
X169666666Y-87477619D01*
X169714285Y-87572857D01*
X169761904Y-87763333D01*
X169761904Y-88001428D01*
X169714285Y-88191904D01*
X169666666Y-88287142D01*
X169619047Y-88334761D01*
X169523809Y-88382380D01*
X169428571Y-88382380D01*
X169333333Y-88334761D01*
X169285714Y-88287142D01*
X169238095Y-88191904D01*
X169190476Y-88001428D01*
X169190476Y-87763333D01*
X169238095Y-87572857D01*
X169285714Y-87477619D01*
X169333333Y-87430000D01*
X169428571Y-87382380D01*
X145357142Y-63202380D02*
X145023809Y-62726190D01*
X144785714Y-63202380D02*
X144785714Y-62202380D01*
X145166666Y-62202380D01*
X145261904Y-62250000D01*
X145309523Y-62297619D01*
X145357142Y-62392857D01*
X145357142Y-62535714D01*
X145309523Y-62630952D01*
X145261904Y-62678571D01*
X145166666Y-62726190D01*
X144785714Y-62726190D01*
X146309523Y-63202380D02*
X145738095Y-63202380D01*
X146023809Y-63202380D02*
X146023809Y-62202380D01*
X145928571Y-62345238D01*
X145833333Y-62440476D01*
X145738095Y-62488095D01*
X147261904Y-63202380D02*
X146690476Y-63202380D01*
X146976190Y-63202380D02*
X146976190Y-62202380D01*
X146880952Y-62345238D01*
X146785714Y-62440476D01*
X146690476Y-62488095D01*
X168019642Y-94882380D02*
X167686309Y-94406190D01*
X167448214Y-94882380D02*
X167448214Y-93882380D01*
X167829166Y-93882380D01*
X167924404Y-93930000D01*
X167972023Y-93977619D01*
X168019642Y-94072857D01*
X168019642Y-94215714D01*
X167972023Y-94310952D01*
X167924404Y-94358571D01*
X167829166Y-94406190D01*
X167448214Y-94406190D01*
X168972023Y-94882380D02*
X168400595Y-94882380D01*
X168686309Y-94882380D02*
X168686309Y-93882380D01*
X168591071Y-94025238D01*
X168495833Y-94120476D01*
X168400595Y-94168095D01*
X169352976Y-93977619D02*
X169400595Y-93930000D01*
X169495833Y-93882380D01*
X169733928Y-93882380D01*
X169829166Y-93930000D01*
X169876785Y-93977619D01*
X169924404Y-94072857D01*
X169924404Y-94168095D01*
X169876785Y-94310952D01*
X169305357Y-94882380D01*
X169924404Y-94882380D01*
X160607142Y-85522380D02*
X160273809Y-85046190D01*
X160035714Y-85522380D02*
X160035714Y-84522380D01*
X160416666Y-84522380D01*
X160511904Y-84570000D01*
X160559523Y-84617619D01*
X160607142Y-84712857D01*
X160607142Y-84855714D01*
X160559523Y-84950952D01*
X160511904Y-84998571D01*
X160416666Y-85046190D01*
X160035714Y-85046190D01*
X161559523Y-85522380D02*
X160988095Y-85522380D01*
X161273809Y-85522380D02*
X161273809Y-84522380D01*
X161178571Y-84665238D01*
X161083333Y-84760476D01*
X160988095Y-84808095D01*
X161892857Y-84522380D02*
X162511904Y-84522380D01*
X162178571Y-84903333D01*
X162321428Y-84903333D01*
X162416666Y-84950952D01*
X162464285Y-84998571D01*
X162511904Y-85093809D01*
X162511904Y-85331904D01*
X162464285Y-85427142D01*
X162416666Y-85474761D01*
X162321428Y-85522380D01*
X162035714Y-85522380D01*
X161940476Y-85474761D01*
X161892857Y-85427142D01*
X126607142Y-93202380D02*
X126273809Y-92726190D01*
X126035714Y-93202380D02*
X126035714Y-92202380D01*
X126416666Y-92202380D01*
X126511904Y-92250000D01*
X126559523Y-92297619D01*
X126607142Y-92392857D01*
X126607142Y-92535714D01*
X126559523Y-92630952D01*
X126511904Y-92678571D01*
X126416666Y-92726190D01*
X126035714Y-92726190D01*
X127559523Y-93202380D02*
X126988095Y-93202380D01*
X127273809Y-93202380D02*
X127273809Y-92202380D01*
X127178571Y-92345238D01*
X127083333Y-92440476D01*
X126988095Y-92488095D01*
X128416666Y-92535714D02*
X128416666Y-93202380D01*
X128178571Y-92154761D02*
X127940476Y-92869047D01*
X128559523Y-92869047D01*
X131107142Y-69452380D02*
X130773809Y-68976190D01*
X130535714Y-69452380D02*
X130535714Y-68452380D01*
X130916666Y-68452380D01*
X131011904Y-68500000D01*
X131059523Y-68547619D01*
X131107142Y-68642857D01*
X131107142Y-68785714D01*
X131059523Y-68880952D01*
X131011904Y-68928571D01*
X130916666Y-68976190D01*
X130535714Y-68976190D01*
X132059523Y-69452380D02*
X131488095Y-69452380D01*
X131773809Y-69452380D02*
X131773809Y-68452380D01*
X131678571Y-68595238D01*
X131583333Y-68690476D01*
X131488095Y-68738095D01*
X132964285Y-68452380D02*
X132488095Y-68452380D01*
X132440476Y-68928571D01*
X132488095Y-68880952D01*
X132583333Y-68833333D01*
X132821428Y-68833333D01*
X132916666Y-68880952D01*
X132964285Y-68928571D01*
X133011904Y-69023809D01*
X133011904Y-69261904D01*
X132964285Y-69357142D01*
X132916666Y-69404761D01*
X132821428Y-69452380D01*
X132583333Y-69452380D01*
X132488095Y-69404761D01*
X132440476Y-69357142D01*
X161607142Y-96952380D02*
X161273809Y-96476190D01*
X161035714Y-96952380D02*
X161035714Y-95952380D01*
X161416666Y-95952380D01*
X161511904Y-96000000D01*
X161559523Y-96047619D01*
X161607142Y-96142857D01*
X161607142Y-96285714D01*
X161559523Y-96380952D01*
X161511904Y-96428571D01*
X161416666Y-96476190D01*
X161035714Y-96476190D01*
X162559523Y-96952380D02*
X161988095Y-96952380D01*
X162273809Y-96952380D02*
X162273809Y-95952380D01*
X162178571Y-96095238D01*
X162083333Y-96190476D01*
X161988095Y-96238095D01*
X163416666Y-95952380D02*
X163226190Y-95952380D01*
X163130952Y-96000000D01*
X163083333Y-96047619D01*
X162988095Y-96190476D01*
X162940476Y-96380952D01*
X162940476Y-96761904D01*
X162988095Y-96857142D01*
X163035714Y-96904761D01*
X163130952Y-96952380D01*
X163321428Y-96952380D01*
X163416666Y-96904761D01*
X163464285Y-96857142D01*
X163511904Y-96761904D01*
X163511904Y-96523809D01*
X163464285Y-96428571D01*
X163416666Y-96380952D01*
X163321428Y-96333333D01*
X163130952Y-96333333D01*
X163035714Y-96380952D01*
X162988095Y-96428571D01*
X162940476Y-96523809D01*
X132107142Y-62772380D02*
X131773809Y-62296190D01*
X131535714Y-62772380D02*
X131535714Y-61772380D01*
X131916666Y-61772380D01*
X132011904Y-61820000D01*
X132059523Y-61867619D01*
X132107142Y-61962857D01*
X132107142Y-62105714D01*
X132059523Y-62200952D01*
X132011904Y-62248571D01*
X131916666Y-62296190D01*
X131535714Y-62296190D01*
X133059523Y-62772380D02*
X132488095Y-62772380D01*
X132773809Y-62772380D02*
X132773809Y-61772380D01*
X132678571Y-61915238D01*
X132583333Y-62010476D01*
X132488095Y-62058095D01*
X133392857Y-61772380D02*
X134059523Y-61772380D01*
X133630952Y-62772380D01*
X134882380Y-67142857D02*
X134406190Y-67476190D01*
X134882380Y-67714285D02*
X133882380Y-67714285D01*
X133882380Y-67333333D01*
X133930000Y-67238095D01*
X133977619Y-67190476D01*
X134072857Y-67142857D01*
X134215714Y-67142857D01*
X134310952Y-67190476D01*
X134358571Y-67238095D01*
X134406190Y-67333333D01*
X134406190Y-67714285D01*
X134882380Y-66190476D02*
X134882380Y-66761904D01*
X134882380Y-66476190D02*
X133882380Y-66476190D01*
X134025238Y-66571428D01*
X134120476Y-66666666D01*
X134168095Y-66761904D01*
X134310952Y-65619047D02*
X134263333Y-65714285D01*
X134215714Y-65761904D01*
X134120476Y-65809523D01*
X134072857Y-65809523D01*
X133977619Y-65761904D01*
X133930000Y-65714285D01*
X133882380Y-65619047D01*
X133882380Y-65428571D01*
X133930000Y-65333333D01*
X133977619Y-65285714D01*
X134072857Y-65238095D01*
X134120476Y-65238095D01*
X134215714Y-65285714D01*
X134263333Y-65333333D01*
X134310952Y-65428571D01*
X134310952Y-65619047D01*
X134358571Y-65714285D01*
X134406190Y-65761904D01*
X134501428Y-65809523D01*
X134691904Y-65809523D01*
X134787142Y-65761904D01*
X134834761Y-65714285D01*
X134882380Y-65619047D01*
X134882380Y-65428571D01*
X134834761Y-65333333D01*
X134787142Y-65285714D01*
X134691904Y-65238095D01*
X134501428Y-65238095D01*
X134406190Y-65285714D01*
X134358571Y-65333333D01*
X134310952Y-65428571D01*
D16*
X139667380Y-62069047D02*
X139848809Y-62129523D01*
X140151190Y-62129523D01*
X140272142Y-62069047D01*
X140332619Y-62008571D01*
X140393095Y-61887619D01*
X140393095Y-61766666D01*
X140332619Y-61645714D01*
X140272142Y-61585238D01*
X140151190Y-61524761D01*
X139909285Y-61464285D01*
X139788333Y-61403809D01*
X139727857Y-61343333D01*
X139667380Y-61222380D01*
X139667380Y-61101428D01*
X139727857Y-60980476D01*
X139788333Y-60920000D01*
X139909285Y-60859523D01*
X140211666Y-60859523D01*
X140393095Y-60920000D01*
X141602619Y-62129523D02*
X140876904Y-62129523D01*
X141239761Y-62129523D02*
X141239761Y-60859523D01*
X141118809Y-61040952D01*
X140997857Y-61161904D01*
X140876904Y-61222380D01*
D13*
X144738095Y-76202380D02*
X144738095Y-77011904D01*
X144785714Y-77107142D01*
X144833333Y-77154761D01*
X144928571Y-77202380D01*
X145119047Y-77202380D01*
X145214285Y-77154761D01*
X145261904Y-77107142D01*
X145309523Y-77011904D01*
X145309523Y-76202380D01*
X145690476Y-76202380D02*
X146309523Y-76202380D01*
X145976190Y-76583333D01*
X146119047Y-76583333D01*
X146214285Y-76630952D01*
X146261904Y-76678571D01*
X146309523Y-76773809D01*
X146309523Y-77011904D01*
X146261904Y-77107142D01*
X146214285Y-77154761D01*
X146119047Y-77202380D01*
X145833333Y-77202380D01*
X145738095Y-77154761D01*
X145690476Y-77107142D01*
X126666666Y-99752380D02*
X126666666Y-100466666D01*
X126619047Y-100609523D01*
X126523809Y-100704761D01*
X126380952Y-100752380D01*
X126285714Y-100752380D01*
X127571428Y-100085714D02*
X127571428Y-100752380D01*
X127333333Y-99704761D02*
X127095238Y-100419047D01*
X127714285Y-100419047D01*
X158666666Y-99752380D02*
X158666666Y-100466666D01*
X158619047Y-100609523D01*
X158523809Y-100704761D01*
X158380952Y-100752380D01*
X158285714Y-100752380D01*
X159619047Y-99752380D02*
X159142857Y-99752380D01*
X159095238Y-100228571D01*
X159142857Y-100180952D01*
X159238095Y-100133333D01*
X159476190Y-100133333D01*
X159571428Y-100180952D01*
X159619047Y-100228571D01*
X159666666Y-100323809D01*
X159666666Y-100561904D01*
X159619047Y-100657142D01*
X159571428Y-100704761D01*
X159476190Y-100752380D01*
X159238095Y-100752380D01*
X159142857Y-100704761D01*
X159095238Y-100657142D01*
X135357142Y-71452380D02*
X135023809Y-70976190D01*
X134785714Y-71452380D02*
X134785714Y-70452380D01*
X135166666Y-70452380D01*
X135261904Y-70500000D01*
X135309523Y-70547619D01*
X135357142Y-70642857D01*
X135357142Y-70785714D01*
X135309523Y-70880952D01*
X135261904Y-70928571D01*
X135166666Y-70976190D01*
X134785714Y-70976190D01*
X136309523Y-71452380D02*
X135738095Y-71452380D01*
X136023809Y-71452380D02*
X136023809Y-70452380D01*
X135928571Y-70595238D01*
X135833333Y-70690476D01*
X135738095Y-70738095D01*
X136785714Y-71452380D02*
X136976190Y-71452380D01*
X137071428Y-71404761D01*
X137119047Y-71357142D01*
X137214285Y-71214285D01*
X137261904Y-71023809D01*
X137261904Y-70642857D01*
X137214285Y-70547619D01*
X137166666Y-70500000D01*
X137071428Y-70452380D01*
X136880952Y-70452380D01*
X136785714Y-70500000D01*
X136738095Y-70547619D01*
X136690476Y-70642857D01*
X136690476Y-70880952D01*
X136738095Y-70976190D01*
X136785714Y-71023809D01*
X136880952Y-71071428D01*
X137071428Y-71071428D01*
X137166666Y-71023809D01*
X137214285Y-70976190D01*
X137261904Y-70880952D01*
X137833333Y-106957142D02*
X137785714Y-107004761D01*
X137642857Y-107052380D01*
X137547619Y-107052380D01*
X137404761Y-107004761D01*
X137309523Y-106909523D01*
X137261904Y-106814285D01*
X137214285Y-106623809D01*
X137214285Y-106480952D01*
X137261904Y-106290476D01*
X137309523Y-106195238D01*
X137404761Y-106100000D01*
X137547619Y-106052380D01*
X137642857Y-106052380D01*
X137785714Y-106100000D01*
X137833333Y-106147619D01*
X138738095Y-106052380D02*
X138261904Y-106052380D01*
X138214285Y-106528571D01*
X138261904Y-106480952D01*
X138357142Y-106433333D01*
X138595238Y-106433333D01*
X138690476Y-106480952D01*
X138738095Y-106528571D01*
X138785714Y-106623809D01*
X138785714Y-106861904D01*
X138738095Y-106957142D01*
X138690476Y-107004761D01*
X138595238Y-107052380D01*
X138357142Y-107052380D01*
X138261904Y-107004761D01*
X138214285Y-106957142D01*
X142157142Y-103727142D02*
X142109523Y-103774761D01*
X141966666Y-103822380D01*
X141871428Y-103822380D01*
X141728571Y-103774761D01*
X141633333Y-103679523D01*
X141585714Y-103584285D01*
X141538095Y-103393809D01*
X141538095Y-103250952D01*
X141585714Y-103060476D01*
X141633333Y-102965238D01*
X141728571Y-102870000D01*
X141871428Y-102822380D01*
X141966666Y-102822380D01*
X142109523Y-102870000D01*
X142157142Y-102917619D01*
X143109523Y-103822380D02*
X142538095Y-103822380D01*
X142823809Y-103822380D02*
X142823809Y-102822380D01*
X142728571Y-102965238D01*
X142633333Y-103060476D01*
X142538095Y-103108095D01*
X143728571Y-102822380D02*
X143823809Y-102822380D01*
X143919047Y-102870000D01*
X143966666Y-102917619D01*
X144014285Y-103012857D01*
X144061904Y-103203333D01*
X144061904Y-103441428D01*
X144014285Y-103631904D01*
X143966666Y-103727142D01*
X143919047Y-103774761D01*
X143823809Y-103822380D01*
X143728571Y-103822380D01*
X143633333Y-103774761D01*
X143585714Y-103727142D01*
X143538095Y-103631904D01*
X143490476Y-103441428D01*
X143490476Y-103203333D01*
X143538095Y-103012857D01*
X143585714Y-102917619D01*
X143633333Y-102870000D01*
X143728571Y-102822380D01*
X134177142Y-79892857D02*
X134224761Y-79940476D01*
X134272380Y-80083333D01*
X134272380Y-80178571D01*
X134224761Y-80321428D01*
X134129523Y-80416666D01*
X134034285Y-80464285D01*
X133843809Y-80511904D01*
X133700952Y-80511904D01*
X133510476Y-80464285D01*
X133415238Y-80416666D01*
X133320000Y-80321428D01*
X133272380Y-80178571D01*
X133272380Y-80083333D01*
X133320000Y-79940476D01*
X133367619Y-79892857D01*
X134272380Y-78940476D02*
X134272380Y-79511904D01*
X134272380Y-79226190D02*
X133272380Y-79226190D01*
X133415238Y-79321428D01*
X133510476Y-79416666D01*
X133558095Y-79511904D01*
X134272380Y-77988095D02*
X134272380Y-78559523D01*
X134272380Y-78273809D02*
X133272380Y-78273809D01*
X133415238Y-78369047D01*
X133510476Y-78464285D01*
X133558095Y-78559523D01*
X140535714Y-100552380D02*
X140535714Y-99552380D01*
X140773809Y-99552380D01*
X140916666Y-99600000D01*
X141011904Y-99695238D01*
X141059523Y-99790476D01*
X141107142Y-99980952D01*
X141107142Y-100123809D01*
X141059523Y-100314285D01*
X141011904Y-100409523D01*
X140916666Y-100504761D01*
X140773809Y-100552380D01*
X140535714Y-100552380D01*
X142059523Y-100552380D02*
X141488095Y-100552380D01*
X141773809Y-100552380D02*
X141773809Y-99552380D01*
X141678571Y-99695238D01*
X141583333Y-99790476D01*
X141488095Y-99838095D01*
X142440476Y-99647619D02*
X142488095Y-99600000D01*
X142583333Y-99552380D01*
X142821428Y-99552380D01*
X142916666Y-99600000D01*
X142964285Y-99647619D01*
X143011904Y-99742857D01*
X143011904Y-99838095D01*
X142964285Y-99980952D01*
X142392857Y-100552380D01*
X143011904Y-100552380D01*
X154607142Y-91132380D02*
X154273809Y-90656190D01*
X154035714Y-91132380D02*
X154035714Y-90132380D01*
X154416666Y-90132380D01*
X154511904Y-90180000D01*
X154559523Y-90227619D01*
X154607142Y-90322857D01*
X154607142Y-90465714D01*
X154559523Y-90560952D01*
X154511904Y-90608571D01*
X154416666Y-90656190D01*
X154035714Y-90656190D01*
X154988095Y-90227619D02*
X155035714Y-90180000D01*
X155130952Y-90132380D01*
X155369047Y-90132380D01*
X155464285Y-90180000D01*
X155511904Y-90227619D01*
X155559523Y-90322857D01*
X155559523Y-90418095D01*
X155511904Y-90560952D01*
X154940476Y-91132380D01*
X155559523Y-91132380D01*
X156178571Y-90132380D02*
X156273809Y-90132380D01*
X156369047Y-90180000D01*
X156416666Y-90227619D01*
X156464285Y-90322857D01*
X156511904Y-90513333D01*
X156511904Y-90751428D01*
X156464285Y-90941904D01*
X156416666Y-91037142D01*
X156369047Y-91084761D01*
X156273809Y-91132380D01*
X156178571Y-91132380D01*
X156083333Y-91084761D01*
X156035714Y-91037142D01*
X155988095Y-90941904D01*
X155940476Y-90751428D01*
X155940476Y-90513333D01*
X155988095Y-90322857D01*
X156035714Y-90227619D01*
X156083333Y-90180000D01*
X156178571Y-90132380D01*
X135988095Y-76202380D02*
X135988095Y-77011904D01*
X136035714Y-77107142D01*
X136083333Y-77154761D01*
X136178571Y-77202380D01*
X136369047Y-77202380D01*
X136464285Y-77154761D01*
X136511904Y-77107142D01*
X136559523Y-77011904D01*
X136559523Y-76202380D01*
X137511904Y-76202380D02*
X137035714Y-76202380D01*
X136988095Y-76678571D01*
X137035714Y-76630952D01*
X137130952Y-76583333D01*
X137369047Y-76583333D01*
X137464285Y-76630952D01*
X137511904Y-76678571D01*
X137559523Y-76773809D01*
X137559523Y-77011904D01*
X137511904Y-77107142D01*
X137464285Y-77154761D01*
X137369047Y-77202380D01*
X137130952Y-77202380D01*
X137035714Y-77154761D01*
X136988095Y-77107142D01*
X156357142Y-70382380D02*
X156023809Y-69906190D01*
X155785714Y-70382380D02*
X155785714Y-69382380D01*
X156166666Y-69382380D01*
X156261904Y-69430000D01*
X156309523Y-69477619D01*
X156357142Y-69572857D01*
X156357142Y-69715714D01*
X156309523Y-69810952D01*
X156261904Y-69858571D01*
X156166666Y-69906190D01*
X155785714Y-69906190D01*
X156738095Y-69477619D02*
X156785714Y-69430000D01*
X156880952Y-69382380D01*
X157119047Y-69382380D01*
X157214285Y-69430000D01*
X157261904Y-69477619D01*
X157309523Y-69572857D01*
X157309523Y-69668095D01*
X157261904Y-69810952D01*
X156690476Y-70382380D01*
X157309523Y-70382380D01*
X158261904Y-70382380D02*
X157690476Y-70382380D01*
X157976190Y-70382380D02*
X157976190Y-69382380D01*
X157880952Y-69525238D01*
X157785714Y-69620476D01*
X157690476Y-69668095D01*
X156107142Y-79702380D02*
X155773809Y-79226190D01*
X155535714Y-79702380D02*
X155535714Y-78702380D01*
X155916666Y-78702380D01*
X156011904Y-78750000D01*
X156059523Y-78797619D01*
X156107142Y-78892857D01*
X156107142Y-79035714D01*
X156059523Y-79130952D01*
X156011904Y-79178571D01*
X155916666Y-79226190D01*
X155535714Y-79226190D01*
X156488095Y-78797619D02*
X156535714Y-78750000D01*
X156630952Y-78702380D01*
X156869047Y-78702380D01*
X156964285Y-78750000D01*
X157011904Y-78797619D01*
X157059523Y-78892857D01*
X157059523Y-78988095D01*
X157011904Y-79130952D01*
X156440476Y-79702380D01*
X157059523Y-79702380D01*
X157440476Y-78797619D02*
X157488095Y-78750000D01*
X157583333Y-78702380D01*
X157821428Y-78702380D01*
X157916666Y-78750000D01*
X157964285Y-78797619D01*
X158011904Y-78892857D01*
X158011904Y-78988095D01*
X157964285Y-79130952D01*
X157392857Y-79702380D01*
X158011904Y-79702380D01*
X144857142Y-72037142D02*
X144809523Y-72084761D01*
X144666666Y-72132380D01*
X144571428Y-72132380D01*
X144428571Y-72084761D01*
X144333333Y-71989523D01*
X144285714Y-71894285D01*
X144238095Y-71703809D01*
X144238095Y-71560952D01*
X144285714Y-71370476D01*
X144333333Y-71275238D01*
X144428571Y-71180000D01*
X144571428Y-71132380D01*
X144666666Y-71132380D01*
X144809523Y-71180000D01*
X144857142Y-71227619D01*
X145809523Y-72132380D02*
X145238095Y-72132380D01*
X145523809Y-72132380D02*
X145523809Y-71132380D01*
X145428571Y-71275238D01*
X145333333Y-71370476D01*
X145238095Y-71418095D01*
X146190476Y-71227619D02*
X146238095Y-71180000D01*
X146333333Y-71132380D01*
X146571428Y-71132380D01*
X146666666Y-71180000D01*
X146714285Y-71227619D01*
X146761904Y-71322857D01*
X146761904Y-71418095D01*
X146714285Y-71560952D01*
X146142857Y-72132380D01*
X146761904Y-72132380D01*
M02*
