G04 #@! TF.GenerationSoftware,KiCad,Pcbnew,5.1.10-88a1d61d58~88~ubuntu20.04.1*
G04 #@! TF.CreationDate,2021-09-15T20:12:52+01:00*
G04 #@! TF.ProjectId,ogsolar,6f67736f-6c61-4722-9e6b-696361645f70,1.5*
G04 #@! TF.SameCoordinates,Original*
G04 #@! TF.FileFunction,Copper,L2,Bot*
G04 #@! TF.FilePolarity,Positive*
%FSLAX46Y46*%
G04 Gerber Fmt 4.6, Leading zero omitted, Abs format (unit mm)*
G04 Created by KiCad (PCBNEW 5.1.10-88a1d61d58~88~ubuntu20.04.1) date 2021-09-15 20:12:52*
%MOMM*%
%LPD*%
G01*
G04 APERTURE LIST*
G04 #@! TA.AperFunction,ComponentPad*
%ADD10C,1.300000*%
G04 #@! TD*
G04 #@! TA.AperFunction,ComponentPad*
%ADD11R,1.300000X1.300000*%
G04 #@! TD*
G04 #@! TA.AperFunction,ComponentPad*
%ADD12C,5.400000*%
G04 #@! TD*
G04 #@! TA.AperFunction,SMDPad,CuDef*
%ADD13R,2.200000X1.500000*%
G04 #@! TD*
G04 #@! TA.AperFunction,ComponentPad*
%ADD14O,2.000000X1.700000*%
G04 #@! TD*
G04 #@! TA.AperFunction,ComponentPad*
%ADD15O,1.950000X1.700000*%
G04 #@! TD*
G04 #@! TA.AperFunction,ComponentPad*
%ADD16R,1.700000X1.700000*%
G04 #@! TD*
G04 #@! TA.AperFunction,ComponentPad*
%ADD17O,1.700000X1.700000*%
G04 #@! TD*
G04 #@! TA.AperFunction,SMDPad,CuDef*
%ADD18R,1.500000X2.700000*%
G04 #@! TD*
G04 #@! TA.AperFunction,ComponentPad*
%ADD19R,1.524000X1.524000*%
G04 #@! TD*
G04 #@! TA.AperFunction,ComponentPad*
%ADD20C,1.524000*%
G04 #@! TD*
G04 #@! TA.AperFunction,ComponentPad*
%ADD21O,2.500000X3.500000*%
G04 #@! TD*
G04 #@! TA.AperFunction,ComponentPad*
%ADD22R,2.500000X3.500000*%
G04 #@! TD*
G04 #@! TA.AperFunction,ComponentPad*
%ADD23O,3.014980X1.506220*%
G04 #@! TD*
G04 #@! TA.AperFunction,ComponentPad*
%ADD24C,0.800000*%
G04 #@! TD*
G04 #@! TA.AperFunction,ComponentPad*
%ADD25C,6.400000*%
G04 #@! TD*
G04 #@! TA.AperFunction,ViaPad*
%ADD26C,0.800000*%
G04 #@! TD*
G04 #@! TA.AperFunction,Conductor*
%ADD27C,2.000000*%
G04 #@! TD*
G04 #@! TA.AperFunction,Conductor*
%ADD28C,1.000000*%
G04 #@! TD*
G04 #@! TA.AperFunction,Conductor*
%ADD29C,0.400000*%
G04 #@! TD*
G04 #@! TA.AperFunction,Conductor*
%ADD30C,0.800000*%
G04 #@! TD*
G04 #@! TA.AperFunction,Conductor*
%ADD31C,0.250000*%
G04 #@! TD*
G04 #@! TA.AperFunction,Conductor*
%ADD32C,0.254000*%
G04 #@! TD*
G04 #@! TA.AperFunction,Conductor*
%ADD33C,0.100000*%
G04 #@! TD*
G04 APERTURE END LIST*
D10*
X141770000Y-107230000D03*
X143040000Y-108500000D03*
D11*
X140500000Y-108500000D03*
D12*
X113500000Y-107500000D03*
X171500000Y-107500000D03*
X171500000Y-58500000D03*
X113500000Y-58500000D03*
G04 #@! TA.AperFunction,SMDPad,CuDef*
G36*
G01*
X121925000Y-66425001D02*
X121925000Y-64574999D01*
G75*
G02*
X122174999Y-64325000I249999J0D01*
G01*
X123925001Y-64325000D01*
G75*
G02*
X124175000Y-64574999I0J-249999D01*
G01*
X124175000Y-66425001D01*
G75*
G02*
X123925001Y-66675000I-249999J0D01*
G01*
X122174999Y-66675000D01*
G75*
G02*
X121925000Y-66425001I0J249999D01*
G01*
G37*
G04 #@! TD.AperFunction*
G04 #@! TA.AperFunction,SMDPad,CuDef*
G36*
G01*
X116825000Y-66425001D02*
X116825000Y-64574999D01*
G75*
G02*
X117074999Y-64325000I249999J0D01*
G01*
X118825001Y-64325000D01*
G75*
G02*
X119075000Y-64574999I0J-249999D01*
G01*
X119075000Y-66425001D01*
G75*
G02*
X118825001Y-66675000I-249999J0D01*
G01*
X117074999Y-66675000D01*
G75*
G02*
X116825000Y-66425001I0J249999D01*
G01*
G37*
G04 #@! TD.AperFunction*
G04 #@! TA.AperFunction,SMDPad,CuDef*
G36*
G01*
X116827500Y-62931250D02*
X116827500Y-62068750D01*
G75*
G02*
X117036250Y-61860000I208750J0D01*
G01*
X117453750Y-61860000D01*
G75*
G02*
X117662500Y-62068750I0J-208750D01*
G01*
X117662500Y-62931250D01*
G75*
G02*
X117453750Y-63140000I-208750J0D01*
G01*
X117036250Y-63140000D01*
G75*
G02*
X116827500Y-62931250I0J208750D01*
G01*
G37*
G04 #@! TD.AperFunction*
G04 #@! TA.AperFunction,SMDPad,CuDef*
G36*
G01*
X118082500Y-62931250D02*
X118082500Y-62068750D01*
G75*
G02*
X118291250Y-61860000I208750J0D01*
G01*
X118708750Y-61860000D01*
G75*
G02*
X118917500Y-62068750I0J-208750D01*
G01*
X118917500Y-62931250D01*
G75*
G02*
X118708750Y-63140000I-208750J0D01*
G01*
X118291250Y-63140000D01*
G75*
G02*
X118082500Y-62931250I0J208750D01*
G01*
G37*
G04 #@! TD.AperFunction*
D13*
X121000000Y-68500000D03*
X118100000Y-68500000D03*
G04 #@! TA.AperFunction,ComponentPad*
G36*
G01*
X112750000Y-75150000D02*
X114250000Y-75150000D01*
G75*
G02*
X114500000Y-75400000I0J-250000D01*
G01*
X114500000Y-76600000D01*
G75*
G02*
X114250000Y-76850000I-250000J0D01*
G01*
X112750000Y-76850000D01*
G75*
G02*
X112500000Y-76600000I0J250000D01*
G01*
X112500000Y-75400000D01*
G75*
G02*
X112750000Y-75150000I250000J0D01*
G01*
G37*
G04 #@! TD.AperFunction*
D14*
X113500000Y-78500000D03*
G04 #@! TA.AperFunction,ComponentPad*
G36*
G01*
X112775000Y-84150000D02*
X114225000Y-84150000D01*
G75*
G02*
X114475000Y-84400000I0J-250000D01*
G01*
X114475000Y-85600000D01*
G75*
G02*
X114225000Y-85850000I-250000J0D01*
G01*
X112775000Y-85850000D01*
G75*
G02*
X112525000Y-85600000I0J250000D01*
G01*
X112525000Y-84400000D01*
G75*
G02*
X112775000Y-84150000I250000J0D01*
G01*
G37*
G04 #@! TD.AperFunction*
D15*
X113500000Y-87500000D03*
X113500000Y-90000000D03*
G04 #@! TA.AperFunction,SMDPad,CuDef*
G36*
G01*
X122575000Y-62262500D02*
X122575000Y-62737500D01*
G75*
G02*
X122337500Y-62975000I-237500J0D01*
G01*
X121837500Y-62975000D01*
G75*
G02*
X121600000Y-62737500I0J237500D01*
G01*
X121600000Y-62262500D01*
G75*
G02*
X121837500Y-62025000I237500J0D01*
G01*
X122337500Y-62025000D01*
G75*
G02*
X122575000Y-62262500I0J-237500D01*
G01*
G37*
G04 #@! TD.AperFunction*
G04 #@! TA.AperFunction,SMDPad,CuDef*
G36*
G01*
X124400000Y-62262500D02*
X124400000Y-62737500D01*
G75*
G02*
X124162500Y-62975000I-237500J0D01*
G01*
X123662500Y-62975000D01*
G75*
G02*
X123425000Y-62737500I0J237500D01*
G01*
X123425000Y-62262500D01*
G75*
G02*
X123662500Y-62025000I237500J0D01*
G01*
X124162500Y-62025000D01*
G75*
G02*
X124400000Y-62262500I0J-237500D01*
G01*
G37*
G04 #@! TD.AperFunction*
D16*
X118375000Y-59750000D03*
D17*
X118375000Y-57210000D03*
X120915000Y-59750000D03*
X120915000Y-57210000D03*
X123455000Y-59750000D03*
X123455000Y-57210000D03*
X125995000Y-59750000D03*
X125995000Y-57210000D03*
X128535000Y-59750000D03*
X128535000Y-57210000D03*
X131075000Y-59750000D03*
X131075000Y-57210000D03*
X133615000Y-59750000D03*
X133615000Y-57210000D03*
X136155000Y-59750000D03*
X136155000Y-57210000D03*
X138695000Y-59750000D03*
X138695000Y-57210000D03*
X141235000Y-59750000D03*
X141235000Y-57210000D03*
X143775000Y-59750000D03*
X143775000Y-57210000D03*
X146315000Y-59750000D03*
X146315000Y-57210000D03*
X148855000Y-59750000D03*
X148855000Y-57210000D03*
X151395000Y-59750000D03*
X151395000Y-57210000D03*
X153935000Y-59750000D03*
X153935000Y-57210000D03*
X156475000Y-59750000D03*
X156475000Y-57210000D03*
X159015000Y-59750000D03*
X159015000Y-57210000D03*
X161555000Y-59750000D03*
X161555000Y-57210000D03*
X164095000Y-59750000D03*
X164095000Y-57210000D03*
X166635000Y-59750000D03*
X166635000Y-57210000D03*
D18*
X117600000Y-71500000D03*
X122400000Y-71500000D03*
D19*
X113340000Y-71040000D03*
D20*
X113340000Y-68500000D03*
X113340000Y-65960000D03*
X113340000Y-63420000D03*
D14*
X172000000Y-64500000D03*
G04 #@! TA.AperFunction,ComponentPad*
G36*
G01*
X172750000Y-67850000D02*
X171250000Y-67850000D01*
G75*
G02*
X171000000Y-67600000I0J250000D01*
G01*
X171000000Y-66400000D01*
G75*
G02*
X171250000Y-66150000I250000J0D01*
G01*
X172750000Y-66150000D01*
G75*
G02*
X173000000Y-66400000I0J-250000D01*
G01*
X173000000Y-67600000D01*
G75*
G02*
X172750000Y-67850000I-250000J0D01*
G01*
G37*
G04 #@! TD.AperFunction*
G04 #@! TA.AperFunction,ComponentPad*
G36*
G01*
X172750000Y-76850000D02*
X171250000Y-76850000D01*
G75*
G02*
X171000000Y-76600000I0J250000D01*
G01*
X171000000Y-75400000D01*
G75*
G02*
X171250000Y-75150000I250000J0D01*
G01*
X172750000Y-75150000D01*
G75*
G02*
X173000000Y-75400000I0J-250000D01*
G01*
X173000000Y-76600000D01*
G75*
G02*
X172750000Y-76850000I-250000J0D01*
G01*
G37*
G04 #@! TD.AperFunction*
X172000000Y-73500000D03*
D21*
X120600000Y-108500000D03*
X126050000Y-108500000D03*
D22*
X131500000Y-108500000D03*
X164500000Y-108500000D03*
D21*
X159050000Y-108500000D03*
X153600000Y-108500000D03*
D23*
X136751340Y-63752100D03*
X143248660Y-63752100D03*
X136751340Y-68247900D03*
X143248660Y-68247900D03*
D24*
X128697056Y-102802944D03*
X127000000Y-102100000D03*
X125302944Y-102802944D03*
X124600000Y-104500000D03*
X125302944Y-106197056D03*
X127000000Y-106900000D03*
X128697056Y-106197056D03*
X129400000Y-104500000D03*
D25*
X127000000Y-104500000D03*
X159000000Y-104500000D03*
D24*
X161400000Y-104500000D03*
X160697056Y-106197056D03*
X159000000Y-106900000D03*
X157302944Y-106197056D03*
X156600000Y-104500000D03*
X157302944Y-102802944D03*
X159000000Y-102100000D03*
X160697056Y-102802944D03*
X121197056Y-102802944D03*
X119500000Y-102100000D03*
X117802944Y-102802944D03*
X117100000Y-104500000D03*
X117802944Y-106197056D03*
X119500000Y-106900000D03*
X121197056Y-106197056D03*
X121900000Y-104500000D03*
D25*
X119500000Y-104500000D03*
X151500000Y-104500000D03*
D24*
X153900000Y-104500000D03*
X153197056Y-106197056D03*
X151500000Y-106900000D03*
X149802944Y-106197056D03*
X149100000Y-104500000D03*
X149802944Y-102802944D03*
X151500000Y-102100000D03*
X153197056Y-102802944D03*
D11*
X137500000Y-80000000D03*
D10*
X140040000Y-80000000D03*
X138770000Y-78730000D03*
D26*
X120500000Y-78500000D03*
X121500000Y-87000000D03*
X162000000Y-70500000D03*
X162000000Y-75500000D03*
X130550000Y-92050000D03*
X162000000Y-89500000D03*
X126400000Y-82800000D03*
X126900000Y-74900000D03*
X169500000Y-85000000D03*
X166250000Y-87750000D03*
X132500000Y-86500000D03*
X143250000Y-90000000D03*
X115500000Y-64000000D03*
X128000000Y-64500000D03*
X126000000Y-66500000D03*
X121000000Y-75000000D03*
X124725000Y-73000000D03*
X129000000Y-63500000D03*
X129000000Y-71250000D03*
X124000000Y-71936869D03*
X129750000Y-62750000D03*
X129750000Y-72000000D03*
X152500000Y-64750000D03*
X143250000Y-83000000D03*
X143750000Y-80000000D03*
X159250000Y-80250000D03*
X147750000Y-78500000D03*
X152250000Y-84000000D03*
X132750000Y-69250000D03*
X149250000Y-72250000D03*
X144750000Y-66250000D03*
X148750000Y-70250000D03*
X156400000Y-72600000D03*
X152500000Y-66500000D03*
X149750000Y-69500000D03*
X158000000Y-83250000D03*
X160250000Y-89750000D03*
X120500000Y-62500000D03*
X143000000Y-76000000D03*
X138250000Y-76000000D03*
X140300000Y-103450000D03*
X146000000Y-102000000D03*
X146000000Y-89250000D03*
X154250000Y-88000000D03*
X146000000Y-78250000D03*
X123750000Y-94500000D03*
X156600000Y-94850000D03*
X136000000Y-85000000D03*
D27*
X117089998Y-71500000D02*
X117600000Y-71500000D01*
X115799999Y-70210001D02*
X117089998Y-71500000D01*
X115799999Y-67342369D02*
X115799999Y-70210001D01*
X114417630Y-65960000D02*
X115799999Y-67342369D01*
X113340000Y-65960000D02*
X114417630Y-65960000D01*
X117600000Y-71500000D02*
X117600000Y-75600000D01*
X117600000Y-75600000D02*
X120500000Y-78500000D01*
X121500000Y-87000000D02*
X126500000Y-92000000D01*
X126500000Y-92000000D02*
X162000000Y-92000000D01*
X162000000Y-75500000D02*
X162000000Y-70500000D01*
X162000000Y-89500000D02*
X162000000Y-75500000D01*
X162000000Y-92000000D02*
X162000000Y-89500000D01*
D28*
X121000000Y-67550000D02*
X123050000Y-65500000D01*
X121000000Y-68500000D02*
X121000000Y-67550000D01*
X121500000Y-65500000D02*
X118500000Y-62500000D01*
X123050000Y-65500000D02*
X121500000Y-65500000D01*
D27*
X128535000Y-61140000D02*
X128535000Y-59750000D01*
X124175000Y-65500000D02*
X128535000Y-61140000D01*
X123050000Y-65500000D02*
X124175000Y-65500000D01*
D29*
X127245001Y-58460001D02*
X124705001Y-58460001D01*
X124705001Y-58460001D02*
X123455000Y-57210000D01*
X128535000Y-59750000D02*
X127245001Y-58460001D01*
X132325000Y-58500000D02*
X133615000Y-57210000D01*
X130474998Y-58500000D02*
X132325000Y-58500000D01*
X129224998Y-59750000D02*
X130474998Y-58500000D01*
X128535000Y-59750000D02*
X129224998Y-59750000D01*
X139984999Y-55959999D02*
X141235000Y-57210000D01*
X134865001Y-55959999D02*
X139984999Y-55959999D01*
X133615000Y-57210000D02*
X134865001Y-55959999D01*
X152684999Y-55959999D02*
X153935000Y-57210000D01*
X142485001Y-55959999D02*
X152684999Y-55959999D01*
X141235000Y-57210000D02*
X142485001Y-55959999D01*
X157764999Y-55959999D02*
X159015000Y-57210000D01*
X155185001Y-55959999D02*
X157764999Y-55959999D01*
X153935000Y-57210000D02*
X155185001Y-55959999D01*
X167885001Y-58499999D02*
X166635000Y-59750000D01*
X167885001Y-56609999D02*
X167885001Y-58499999D01*
X167235001Y-55959999D02*
X167885001Y-56609999D01*
X160265001Y-55959999D02*
X167235001Y-55959999D01*
X159015000Y-57210000D02*
X160265001Y-55959999D01*
D27*
X123660002Y-68500000D02*
X121000000Y-68500000D01*
X126400000Y-71239998D02*
X123660002Y-68500000D01*
X126400000Y-82800000D02*
X126400000Y-71239998D01*
D29*
X150144999Y-58460001D02*
X148855000Y-59750000D01*
X152684999Y-58460001D02*
X150144999Y-58460001D01*
X153935000Y-57210000D02*
X152684999Y-58460001D01*
D27*
X131399239Y-73600001D02*
X136751340Y-68247900D01*
X128760003Y-73600001D02*
X131399239Y-73600001D01*
X123660002Y-68500000D02*
X128760003Y-73600001D01*
X136751340Y-68247900D02*
X143248660Y-68247900D01*
D28*
X169500000Y-85000000D02*
X166750000Y-87750000D01*
X166750000Y-87750000D02*
X166250000Y-87750000D01*
X132500000Y-86500000D02*
X139750000Y-86500000D01*
X139750000Y-86500000D02*
X143250000Y-90000000D01*
D27*
X118100000Y-65650000D02*
X117950000Y-65500000D01*
X118100000Y-68500000D02*
X118100000Y-65650000D01*
D28*
X117245000Y-64795000D02*
X117245000Y-62500000D01*
X117950000Y-65500000D02*
X117245000Y-64795000D01*
D30*
X117172919Y-57210000D02*
X118375000Y-57210000D01*
X116827500Y-57555419D02*
X117172919Y-57210000D01*
X116827500Y-62082500D02*
X116827500Y-57555419D01*
X117245000Y-62500000D02*
X116827500Y-62082500D01*
X118375000Y-57210000D02*
X120915000Y-57210000D01*
D27*
X118100000Y-68500000D02*
X118100000Y-66531088D01*
X115568912Y-64000000D02*
X115500000Y-64000000D01*
X118100000Y-66531088D02*
X115568912Y-64000000D01*
X117950000Y-66381088D02*
X118100000Y-66531088D01*
X117950000Y-65500000D02*
X117950000Y-66381088D01*
D28*
X128000000Y-64500000D02*
X126000000Y-66500000D01*
D27*
X122400000Y-73600000D02*
X121000000Y-75000000D01*
X122400000Y-71500000D02*
X122400000Y-73600000D01*
D31*
X123912500Y-61832500D02*
X125995000Y-59750000D01*
X123912500Y-62500000D02*
X123912500Y-61832500D01*
X124725000Y-76785256D02*
X114010256Y-87500000D01*
X114010256Y-87500000D02*
X113500000Y-87500000D01*
X124725000Y-73000000D02*
X124725000Y-76785256D01*
X129000000Y-63500000D02*
X129000000Y-71250000D01*
X115873846Y-85000000D02*
X113500000Y-85000000D01*
X124000000Y-76873846D02*
X115873846Y-85000000D01*
X124000000Y-71936869D02*
X124000000Y-76873846D01*
X129750000Y-62750000D02*
X129750000Y-72000000D01*
X152472900Y-63752100D02*
X143248660Y-63752100D01*
X156475000Y-59750000D02*
X152472900Y-63752100D01*
X154015000Y-64750000D02*
X159015000Y-59750000D01*
X152500000Y-64750000D02*
X154015000Y-64750000D01*
X143250000Y-83000000D02*
X143250000Y-80500000D01*
X143250000Y-80500000D02*
X143750000Y-80000000D01*
X159250000Y-80250000D02*
X157500000Y-78500000D01*
X153000000Y-83250000D02*
X152250000Y-84000000D01*
X153000000Y-78500000D02*
X153000000Y-83250000D01*
X157500000Y-78500000D02*
X153000000Y-78500000D01*
X153000000Y-78500000D02*
X147750000Y-78500000D01*
X135077110Y-66922890D02*
X144202721Y-66922890D01*
X144202721Y-66922890D02*
X149250000Y-71970169D01*
X132750000Y-69250000D02*
X135077110Y-66922890D01*
X149250000Y-71970169D02*
X149250000Y-72250000D01*
X144750000Y-66250000D02*
X148750000Y-70250000D01*
D29*
X161555000Y-59750000D02*
X161555000Y-67445000D01*
X161555000Y-67445000D02*
X156400000Y-72600000D01*
D31*
X152500000Y-66500000D02*
X149750000Y-69250000D01*
X149750000Y-69250000D02*
X149750000Y-69500000D01*
D27*
X151500000Y-104500000D02*
X146000000Y-99000000D01*
X125000000Y-99000000D02*
X119500000Y-104500000D01*
X146000000Y-99000000D02*
X125000000Y-99000000D01*
D31*
X158000000Y-83250000D02*
X158000000Y-87500000D01*
X158000000Y-87500000D02*
X160250000Y-89750000D01*
X122087500Y-62500000D02*
X120500000Y-62500000D01*
X143000000Y-76000000D02*
X138250000Y-76000000D01*
X140300000Y-103450000D02*
X144550000Y-103450000D01*
X144550000Y-103450000D02*
X146000000Y-102000000D01*
X146000000Y-89250000D02*
X153000000Y-89250000D01*
X153000000Y-89250000D02*
X154250000Y-88000000D01*
X146000000Y-89250000D02*
X146000000Y-78250000D01*
D27*
X111299990Y-90824141D02*
X114975849Y-94500000D01*
X112500000Y-76000000D02*
X111299990Y-77200010D01*
X111299990Y-77200010D02*
X111299990Y-90824141D01*
X113500000Y-76000000D02*
X112500000Y-76000000D01*
X114975849Y-94500000D02*
X123750000Y-94500000D01*
X124100000Y-94850000D02*
X123750000Y-94500000D01*
X156600000Y-94850000D02*
X124100000Y-94850000D01*
D31*
X160190001Y-60314001D02*
X154754002Y-65750000D01*
X160190001Y-59375997D02*
X160190001Y-60314001D01*
X160990999Y-58574999D02*
X160190001Y-59375997D01*
X162730001Y-58574999D02*
X160990999Y-58574999D01*
X164095000Y-57210000D02*
X162730001Y-58574999D01*
X154754002Y-65750000D02*
X154750000Y-65750000D01*
X154750000Y-65750000D02*
X150000000Y-70500000D01*
X150000000Y-72573002D02*
X137573002Y-85000000D01*
X150000000Y-70500000D02*
X150000000Y-72573002D01*
X137573002Y-85000000D02*
X136000000Y-85000000D01*
D32*
X155373000Y-103235015D02*
X155312377Y-103381372D01*
X155165000Y-104122285D01*
X155165000Y-104877715D01*
X155312377Y-105618628D01*
X155373000Y-105764985D01*
X155373000Y-109873000D01*
X133388072Y-109873000D01*
X133388072Y-107850000D01*
X139211928Y-107850000D01*
X139211928Y-109150000D01*
X139224188Y-109274482D01*
X139260498Y-109394180D01*
X139319463Y-109504494D01*
X139398815Y-109601185D01*
X139495506Y-109680537D01*
X139605820Y-109739502D01*
X139725518Y-109775812D01*
X139850000Y-109788072D01*
X141150000Y-109788072D01*
X141274482Y-109775812D01*
X141394180Y-109739502D01*
X141504494Y-109680537D01*
X141601185Y-109601185D01*
X141680537Y-109504494D01*
X141739502Y-109394180D01*
X141775812Y-109274482D01*
X141788072Y-109150000D01*
X141788072Y-108792828D01*
X141804381Y-108874821D01*
X141901247Y-109108676D01*
X142041875Y-109319140D01*
X142220860Y-109498125D01*
X142431324Y-109638753D01*
X142665179Y-109735619D01*
X142913439Y-109785000D01*
X143166561Y-109785000D01*
X143414821Y-109735619D01*
X143648676Y-109638753D01*
X143859140Y-109498125D01*
X144038125Y-109319140D01*
X144178753Y-109108676D01*
X144275619Y-108874821D01*
X144325000Y-108626561D01*
X144325000Y-108373439D01*
X144275619Y-108125179D01*
X144178753Y-107891324D01*
X144038125Y-107680860D01*
X143859140Y-107501875D01*
X143648676Y-107361247D01*
X143414821Y-107264381D01*
X143166561Y-107215000D01*
X143055000Y-107215000D01*
X143055000Y-107103439D01*
X143005619Y-106855179D01*
X142908753Y-106621324D01*
X142768125Y-106410860D01*
X142589140Y-106231875D01*
X142378676Y-106091247D01*
X142144821Y-105994381D01*
X141896561Y-105945000D01*
X141643439Y-105945000D01*
X141395179Y-105994381D01*
X141161324Y-106091247D01*
X140950860Y-106231875D01*
X140771875Y-106410860D01*
X140631247Y-106621324D01*
X140534381Y-106855179D01*
X140485000Y-107103439D01*
X140485000Y-107211928D01*
X139850000Y-107211928D01*
X139725518Y-107224188D01*
X139605820Y-107260498D01*
X139495506Y-107319463D01*
X139398815Y-107398815D01*
X139319463Y-107495506D01*
X139260498Y-107605820D01*
X139224188Y-107725518D01*
X139211928Y-107850000D01*
X133388072Y-107850000D01*
X133388072Y-106750000D01*
X133375812Y-106625518D01*
X133339502Y-106505820D01*
X133280537Y-106395506D01*
X133201185Y-106298815D01*
X133104494Y-106219463D01*
X132994180Y-106160498D01*
X132874482Y-106124188D01*
X132750000Y-106111928D01*
X130483292Y-106111928D01*
X130687623Y-105618628D01*
X130835000Y-104877715D01*
X130835000Y-104122285D01*
X130687623Y-103381372D01*
X130673826Y-103348061D01*
X139265000Y-103348061D01*
X139265000Y-103551939D01*
X139304774Y-103751898D01*
X139382795Y-103940256D01*
X139496063Y-104109774D01*
X139640226Y-104253937D01*
X139809744Y-104367205D01*
X139998102Y-104445226D01*
X140198061Y-104485000D01*
X140401939Y-104485000D01*
X140601898Y-104445226D01*
X140790256Y-104367205D01*
X140959774Y-104253937D01*
X141003711Y-104210000D01*
X144512678Y-104210000D01*
X144550000Y-104213676D01*
X144587322Y-104210000D01*
X144587333Y-104210000D01*
X144698986Y-104199003D01*
X144842247Y-104155546D01*
X144974276Y-104084974D01*
X145090001Y-103990001D01*
X145113804Y-103960997D01*
X146039802Y-103035000D01*
X146101939Y-103035000D01*
X146301898Y-102995226D01*
X146490256Y-102917205D01*
X146659774Y-102803937D01*
X146803937Y-102659774D01*
X146917205Y-102490256D01*
X146995226Y-102301898D01*
X147035000Y-102101939D01*
X147035000Y-101898061D01*
X146995226Y-101698102D01*
X146917205Y-101509744D01*
X146803937Y-101340226D01*
X146659774Y-101196063D01*
X146490256Y-101082795D01*
X146301898Y-101004774D01*
X146101939Y-100965000D01*
X145898061Y-100965000D01*
X145698102Y-101004774D01*
X145509744Y-101082795D01*
X145340226Y-101196063D01*
X145196063Y-101340226D01*
X145082795Y-101509744D01*
X145004774Y-101698102D01*
X144965000Y-101898061D01*
X144965000Y-101960198D01*
X144235199Y-102690000D01*
X141003711Y-102690000D01*
X140959774Y-102646063D01*
X140790256Y-102532795D01*
X140601898Y-102454774D01*
X140401939Y-102415000D01*
X140198061Y-102415000D01*
X139998102Y-102454774D01*
X139809744Y-102532795D01*
X139640226Y-102646063D01*
X139496063Y-102790226D01*
X139382795Y-102959744D01*
X139304774Y-103148102D01*
X139265000Y-103348061D01*
X130673826Y-103348061D01*
X130398533Y-102683446D01*
X129978839Y-102055330D01*
X129444670Y-101521161D01*
X128816554Y-101101467D01*
X128118628Y-100812377D01*
X127377715Y-100665000D01*
X126622285Y-100665000D01*
X125881372Y-100812377D01*
X125183446Y-101101467D01*
X124555330Y-101521161D01*
X124021161Y-102055330D01*
X123601467Y-102683446D01*
X123312377Y-103381372D01*
X123165000Y-104122285D01*
X123165000Y-104877715D01*
X123312377Y-105618628D01*
X123601467Y-106316554D01*
X124021161Y-106944670D01*
X124318028Y-107241537D01*
X124300061Y-107275152D01*
X124192275Y-107630476D01*
X124165000Y-107907403D01*
X124165000Y-109092596D01*
X124192275Y-109369523D01*
X124300061Y-109724847D01*
X124379250Y-109873000D01*
X119066542Y-109873000D01*
X116642207Y-106371182D01*
X116455439Y-105920285D01*
X116090464Y-105374061D01*
X115640105Y-104923702D01*
X114627000Y-103460328D01*
X114627000Y-97127000D01*
X155373000Y-97127000D01*
X155373000Y-103235015D01*
G04 #@! TA.AperFunction,Conductor*
D33*
G36*
X155373000Y-103235015D02*
G01*
X155312377Y-103381372D01*
X155165000Y-104122285D01*
X155165000Y-104877715D01*
X155312377Y-105618628D01*
X155373000Y-105764985D01*
X155373000Y-109873000D01*
X133388072Y-109873000D01*
X133388072Y-107850000D01*
X139211928Y-107850000D01*
X139211928Y-109150000D01*
X139224188Y-109274482D01*
X139260498Y-109394180D01*
X139319463Y-109504494D01*
X139398815Y-109601185D01*
X139495506Y-109680537D01*
X139605820Y-109739502D01*
X139725518Y-109775812D01*
X139850000Y-109788072D01*
X141150000Y-109788072D01*
X141274482Y-109775812D01*
X141394180Y-109739502D01*
X141504494Y-109680537D01*
X141601185Y-109601185D01*
X141680537Y-109504494D01*
X141739502Y-109394180D01*
X141775812Y-109274482D01*
X141788072Y-109150000D01*
X141788072Y-108792828D01*
X141804381Y-108874821D01*
X141901247Y-109108676D01*
X142041875Y-109319140D01*
X142220860Y-109498125D01*
X142431324Y-109638753D01*
X142665179Y-109735619D01*
X142913439Y-109785000D01*
X143166561Y-109785000D01*
X143414821Y-109735619D01*
X143648676Y-109638753D01*
X143859140Y-109498125D01*
X144038125Y-109319140D01*
X144178753Y-109108676D01*
X144275619Y-108874821D01*
X144325000Y-108626561D01*
X144325000Y-108373439D01*
X144275619Y-108125179D01*
X144178753Y-107891324D01*
X144038125Y-107680860D01*
X143859140Y-107501875D01*
X143648676Y-107361247D01*
X143414821Y-107264381D01*
X143166561Y-107215000D01*
X143055000Y-107215000D01*
X143055000Y-107103439D01*
X143005619Y-106855179D01*
X142908753Y-106621324D01*
X142768125Y-106410860D01*
X142589140Y-106231875D01*
X142378676Y-106091247D01*
X142144821Y-105994381D01*
X141896561Y-105945000D01*
X141643439Y-105945000D01*
X141395179Y-105994381D01*
X141161324Y-106091247D01*
X140950860Y-106231875D01*
X140771875Y-106410860D01*
X140631247Y-106621324D01*
X140534381Y-106855179D01*
X140485000Y-107103439D01*
X140485000Y-107211928D01*
X139850000Y-107211928D01*
X139725518Y-107224188D01*
X139605820Y-107260498D01*
X139495506Y-107319463D01*
X139398815Y-107398815D01*
X139319463Y-107495506D01*
X139260498Y-107605820D01*
X139224188Y-107725518D01*
X139211928Y-107850000D01*
X133388072Y-107850000D01*
X133388072Y-106750000D01*
X133375812Y-106625518D01*
X133339502Y-106505820D01*
X133280537Y-106395506D01*
X133201185Y-106298815D01*
X133104494Y-106219463D01*
X132994180Y-106160498D01*
X132874482Y-106124188D01*
X132750000Y-106111928D01*
X130483292Y-106111928D01*
X130687623Y-105618628D01*
X130835000Y-104877715D01*
X130835000Y-104122285D01*
X130687623Y-103381372D01*
X130673826Y-103348061D01*
X139265000Y-103348061D01*
X139265000Y-103551939D01*
X139304774Y-103751898D01*
X139382795Y-103940256D01*
X139496063Y-104109774D01*
X139640226Y-104253937D01*
X139809744Y-104367205D01*
X139998102Y-104445226D01*
X140198061Y-104485000D01*
X140401939Y-104485000D01*
X140601898Y-104445226D01*
X140790256Y-104367205D01*
X140959774Y-104253937D01*
X141003711Y-104210000D01*
X144512678Y-104210000D01*
X144550000Y-104213676D01*
X144587322Y-104210000D01*
X144587333Y-104210000D01*
X144698986Y-104199003D01*
X144842247Y-104155546D01*
X144974276Y-104084974D01*
X145090001Y-103990001D01*
X145113804Y-103960997D01*
X146039802Y-103035000D01*
X146101939Y-103035000D01*
X146301898Y-102995226D01*
X146490256Y-102917205D01*
X146659774Y-102803937D01*
X146803937Y-102659774D01*
X146917205Y-102490256D01*
X146995226Y-102301898D01*
X147035000Y-102101939D01*
X147035000Y-101898061D01*
X146995226Y-101698102D01*
X146917205Y-101509744D01*
X146803937Y-101340226D01*
X146659774Y-101196063D01*
X146490256Y-101082795D01*
X146301898Y-101004774D01*
X146101939Y-100965000D01*
X145898061Y-100965000D01*
X145698102Y-101004774D01*
X145509744Y-101082795D01*
X145340226Y-101196063D01*
X145196063Y-101340226D01*
X145082795Y-101509744D01*
X145004774Y-101698102D01*
X144965000Y-101898061D01*
X144965000Y-101960198D01*
X144235199Y-102690000D01*
X141003711Y-102690000D01*
X140959774Y-102646063D01*
X140790256Y-102532795D01*
X140601898Y-102454774D01*
X140401939Y-102415000D01*
X140198061Y-102415000D01*
X139998102Y-102454774D01*
X139809744Y-102532795D01*
X139640226Y-102646063D01*
X139496063Y-102790226D01*
X139382795Y-102959744D01*
X139304774Y-103148102D01*
X139265000Y-103348061D01*
X130673826Y-103348061D01*
X130398533Y-102683446D01*
X129978839Y-102055330D01*
X129444670Y-101521161D01*
X128816554Y-101101467D01*
X128118628Y-100812377D01*
X127377715Y-100665000D01*
X126622285Y-100665000D01*
X125881372Y-100812377D01*
X125183446Y-101101467D01*
X124555330Y-101521161D01*
X124021161Y-102055330D01*
X123601467Y-102683446D01*
X123312377Y-103381372D01*
X123165000Y-104122285D01*
X123165000Y-104877715D01*
X123312377Y-105618628D01*
X123601467Y-106316554D01*
X124021161Y-106944670D01*
X124318028Y-107241537D01*
X124300061Y-107275152D01*
X124192275Y-107630476D01*
X124165000Y-107907403D01*
X124165000Y-109092596D01*
X124192275Y-109369523D01*
X124300061Y-109724847D01*
X124379250Y-109873000D01*
X119066542Y-109873000D01*
X116642207Y-106371182D01*
X116455439Y-105920285D01*
X116090464Y-105374061D01*
X115640105Y-104923702D01*
X114627000Y-103460328D01*
X114627000Y-97127000D01*
X155373000Y-97127000D01*
X155373000Y-103235015D01*
G37*
G04 #@! TD.AperFunction*
D32*
X169374061Y-55909536D02*
X168909536Y-56374061D01*
X168544561Y-56920285D01*
X168293162Y-57527216D01*
X168165000Y-58171531D01*
X168165000Y-58828469D01*
X168293162Y-59472784D01*
X168544561Y-60079715D01*
X168909536Y-60625939D01*
X169374061Y-61090464D01*
X169920285Y-61455439D01*
X170527216Y-61706838D01*
X171171531Y-61835000D01*
X171828469Y-61835000D01*
X172472784Y-61706838D01*
X173079715Y-61455439D01*
X173625939Y-61090464D01*
X174090464Y-60625939D01*
X174338126Y-60255286D01*
X174300367Y-105688204D01*
X174090464Y-105374061D01*
X173625939Y-104909536D01*
X173079715Y-104544561D01*
X172472784Y-104293162D01*
X171828469Y-104165000D01*
X171171531Y-104165000D01*
X170527216Y-104293162D01*
X169920285Y-104544561D01*
X169374061Y-104909536D01*
X168909536Y-105374061D01*
X168544561Y-105920285D01*
X168293162Y-106527216D01*
X168165000Y-107171531D01*
X168165000Y-107828469D01*
X168293162Y-108472784D01*
X168544561Y-109079715D01*
X168909536Y-109625939D01*
X169374061Y-110090464D01*
X169747518Y-110340000D01*
X166379208Y-110340000D01*
X166388072Y-110250000D01*
X166388072Y-106750000D01*
X166375812Y-106625518D01*
X166339502Y-106505820D01*
X166280537Y-106395506D01*
X166201185Y-106298815D01*
X166104494Y-106219463D01*
X165994180Y-106160498D01*
X165874482Y-106124188D01*
X165750000Y-106111928D01*
X163250000Y-106111928D01*
X163125518Y-106124188D01*
X163005820Y-106160498D01*
X162895506Y-106219463D01*
X162798815Y-106298815D01*
X162719463Y-106395506D01*
X162660498Y-106505820D01*
X162624188Y-106625518D01*
X162611928Y-106750000D01*
X162611928Y-110250000D01*
X162620792Y-110340000D01*
X160388547Y-110340000D01*
X160389345Y-110339345D01*
X160624903Y-110052317D01*
X160799939Y-109724848D01*
X160907725Y-109369524D01*
X160935000Y-109092597D01*
X160935000Y-107907403D01*
X160926867Y-107824824D01*
X161444670Y-107478839D01*
X161978839Y-106944670D01*
X162398533Y-106316554D01*
X162687623Y-105618628D01*
X162835000Y-104877715D01*
X162835000Y-104122285D01*
X162687623Y-103381372D01*
X162398533Y-102683446D01*
X161978839Y-102055330D01*
X161444670Y-101521161D01*
X160816554Y-101101467D01*
X160118628Y-100812377D01*
X159377715Y-100665000D01*
X158622285Y-100665000D01*
X157881372Y-100812377D01*
X157183446Y-101101467D01*
X157127000Y-101139183D01*
X157127000Y-96398707D01*
X157228715Y-96367852D01*
X157512752Y-96216031D01*
X157761714Y-96011714D01*
X157966031Y-95762752D01*
X158117852Y-95478715D01*
X158211343Y-95170516D01*
X158242911Y-94850000D01*
X158211343Y-94529484D01*
X158117852Y-94221285D01*
X157966031Y-93937248D01*
X157761714Y-93688286D01*
X157696785Y-93635000D01*
X161919678Y-93635000D01*
X162000000Y-93642911D01*
X162080322Y-93635000D01*
X162320516Y-93611343D01*
X162628715Y-93517852D01*
X162912752Y-93366031D01*
X163161714Y-93161714D01*
X163366031Y-92912752D01*
X163517852Y-92628715D01*
X163611343Y-92320516D01*
X163642911Y-92000000D01*
X163635000Y-91919678D01*
X163635000Y-73500000D01*
X170357815Y-73500000D01*
X170386487Y-73791111D01*
X170471401Y-74071034D01*
X170609294Y-74329014D01*
X170794866Y-74555134D01*
X170858337Y-74607223D01*
X170756614Y-74661595D01*
X170622038Y-74772038D01*
X170511595Y-74906614D01*
X170429528Y-75060150D01*
X170378992Y-75226746D01*
X170361928Y-75400000D01*
X170361928Y-76600000D01*
X170378992Y-76773254D01*
X170429528Y-76939850D01*
X170511595Y-77093386D01*
X170622038Y-77227962D01*
X170756614Y-77338405D01*
X170910150Y-77420472D01*
X171076746Y-77471008D01*
X171250000Y-77488072D01*
X172750000Y-77488072D01*
X172923254Y-77471008D01*
X173089850Y-77420472D01*
X173243386Y-77338405D01*
X173377962Y-77227962D01*
X173488405Y-77093386D01*
X173570472Y-76939850D01*
X173621008Y-76773254D01*
X173638072Y-76600000D01*
X173638072Y-75400000D01*
X173621008Y-75226746D01*
X173570472Y-75060150D01*
X173488405Y-74906614D01*
X173377962Y-74772038D01*
X173243386Y-74661595D01*
X173141663Y-74607223D01*
X173205134Y-74555134D01*
X173390706Y-74329014D01*
X173528599Y-74071034D01*
X173613513Y-73791111D01*
X173642185Y-73500000D01*
X173613513Y-73208889D01*
X173528599Y-72928966D01*
X173390706Y-72670986D01*
X173205134Y-72444866D01*
X172979014Y-72259294D01*
X172721034Y-72121401D01*
X172441111Y-72036487D01*
X172222950Y-72015000D01*
X171777050Y-72015000D01*
X171558889Y-72036487D01*
X171278966Y-72121401D01*
X171020986Y-72259294D01*
X170794866Y-72444866D01*
X170609294Y-72670986D01*
X170471401Y-72928966D01*
X170386487Y-73208889D01*
X170357815Y-73500000D01*
X163635000Y-73500000D01*
X163635000Y-70419678D01*
X163611343Y-70179484D01*
X163517852Y-69871285D01*
X163366031Y-69587248D01*
X163161714Y-69338286D01*
X162912752Y-69133969D01*
X162628715Y-68982148D01*
X162320516Y-68888657D01*
X162000000Y-68857089D01*
X161679485Y-68888657D01*
X161371286Y-68982148D01*
X161087249Y-69133969D01*
X160862241Y-69318628D01*
X162116432Y-68064437D01*
X162148291Y-68038291D01*
X162185928Y-67992431D01*
X162252636Y-67911146D01*
X162330172Y-67766087D01*
X162377918Y-67608689D01*
X162394040Y-67445000D01*
X162390000Y-67403982D01*
X162390000Y-64500000D01*
X170357815Y-64500000D01*
X170386487Y-64791111D01*
X170471401Y-65071034D01*
X170609294Y-65329014D01*
X170794866Y-65555134D01*
X170858337Y-65607223D01*
X170756614Y-65661595D01*
X170622038Y-65772038D01*
X170511595Y-65906614D01*
X170429528Y-66060150D01*
X170378992Y-66226746D01*
X170361928Y-66400000D01*
X170361928Y-67600000D01*
X170378992Y-67773254D01*
X170429528Y-67939850D01*
X170511595Y-68093386D01*
X170622038Y-68227962D01*
X170756614Y-68338405D01*
X170910150Y-68420472D01*
X171076746Y-68471008D01*
X171250000Y-68488072D01*
X172750000Y-68488072D01*
X172923254Y-68471008D01*
X173089850Y-68420472D01*
X173243386Y-68338405D01*
X173377962Y-68227962D01*
X173488405Y-68093386D01*
X173570472Y-67939850D01*
X173621008Y-67773254D01*
X173638072Y-67600000D01*
X173638072Y-66400000D01*
X173621008Y-66226746D01*
X173570472Y-66060150D01*
X173488405Y-65906614D01*
X173377962Y-65772038D01*
X173243386Y-65661595D01*
X173141663Y-65607223D01*
X173205134Y-65555134D01*
X173390706Y-65329014D01*
X173528599Y-65071034D01*
X173613513Y-64791111D01*
X173642185Y-64500000D01*
X173613513Y-64208889D01*
X173528599Y-63928966D01*
X173390706Y-63670986D01*
X173205134Y-63444866D01*
X172979014Y-63259294D01*
X172721034Y-63121401D01*
X172441111Y-63036487D01*
X172222950Y-63015000D01*
X171777050Y-63015000D01*
X171558889Y-63036487D01*
X171278966Y-63121401D01*
X171020986Y-63259294D01*
X170794866Y-63444866D01*
X170609294Y-63670986D01*
X170471401Y-63928966D01*
X170386487Y-64208889D01*
X170357815Y-64500000D01*
X162390000Y-64500000D01*
X162390000Y-60978065D01*
X162501632Y-60903475D01*
X162708475Y-60696632D01*
X162825000Y-60522240D01*
X162941525Y-60696632D01*
X163148368Y-60903475D01*
X163391589Y-61065990D01*
X163661842Y-61177932D01*
X163948740Y-61235000D01*
X164241260Y-61235000D01*
X164528158Y-61177932D01*
X164798411Y-61065990D01*
X165041632Y-60903475D01*
X165248475Y-60696632D01*
X165410990Y-60453411D01*
X165522932Y-60183158D01*
X165580000Y-59896260D01*
X165580000Y-59603740D01*
X165522932Y-59316842D01*
X165410990Y-59046589D01*
X165248475Y-58803368D01*
X165041632Y-58596525D01*
X164867240Y-58480000D01*
X165041632Y-58363475D01*
X165248475Y-58156632D01*
X165365000Y-57982240D01*
X165481525Y-58156632D01*
X165688368Y-58363475D01*
X165931589Y-58525990D01*
X166201842Y-58637932D01*
X166488740Y-58695000D01*
X166781260Y-58695000D01*
X167068158Y-58637932D01*
X167338411Y-58525990D01*
X167581632Y-58363475D01*
X167788475Y-58156632D01*
X167950990Y-57913411D01*
X168062932Y-57643158D01*
X168120000Y-57356260D01*
X168120000Y-57063740D01*
X168062932Y-56776842D01*
X167950990Y-56506589D01*
X167788475Y-56263368D01*
X167581632Y-56056525D01*
X167338411Y-55894010D01*
X167068158Y-55782068D01*
X166781260Y-55725000D01*
X166488740Y-55725000D01*
X166201842Y-55782068D01*
X165931589Y-55894010D01*
X165688368Y-56056525D01*
X165481525Y-56263368D01*
X165365000Y-56437760D01*
X165248475Y-56263368D01*
X165041632Y-56056525D01*
X164798411Y-55894010D01*
X164528158Y-55782068D01*
X164241260Y-55725000D01*
X163948740Y-55725000D01*
X163661842Y-55782068D01*
X163391589Y-55894010D01*
X163148368Y-56056525D01*
X162941525Y-56263368D01*
X162825000Y-56437760D01*
X162708475Y-56263368D01*
X162501632Y-56056525D01*
X162258411Y-55894010D01*
X161988158Y-55782068D01*
X161701260Y-55725000D01*
X161408740Y-55725000D01*
X161121842Y-55782068D01*
X160851589Y-55894010D01*
X160608368Y-56056525D01*
X160401525Y-56263368D01*
X160239010Y-56506589D01*
X160127068Y-56776842D01*
X160070000Y-57063740D01*
X160070000Y-57356260D01*
X160127068Y-57643158D01*
X160239010Y-57913411D01*
X160374704Y-58116492D01*
X159921492Y-58569704D01*
X159718411Y-58434010D01*
X159448158Y-58322068D01*
X159161260Y-58265000D01*
X158868740Y-58265000D01*
X158581842Y-58322068D01*
X158311589Y-58434010D01*
X158068368Y-58596525D01*
X157861525Y-58803368D01*
X157745000Y-58977760D01*
X157628475Y-58803368D01*
X157421632Y-58596525D01*
X157247240Y-58480000D01*
X157421632Y-58363475D01*
X157628475Y-58156632D01*
X157790990Y-57913411D01*
X157902932Y-57643158D01*
X157960000Y-57356260D01*
X157960000Y-57063740D01*
X157902932Y-56776842D01*
X157790990Y-56506589D01*
X157628475Y-56263368D01*
X157421632Y-56056525D01*
X157178411Y-55894010D01*
X156908158Y-55782068D01*
X156621260Y-55725000D01*
X156328740Y-55725000D01*
X156041842Y-55782068D01*
X155771589Y-55894010D01*
X155528368Y-56056525D01*
X155321525Y-56263368D01*
X155159010Y-56506589D01*
X155047068Y-56776842D01*
X154990000Y-57063740D01*
X154990000Y-57356260D01*
X155047068Y-57643158D01*
X155159010Y-57913411D01*
X155321525Y-58156632D01*
X155528368Y-58363475D01*
X155702760Y-58480000D01*
X155528368Y-58596525D01*
X155321525Y-58803368D01*
X155205000Y-58977760D01*
X155088475Y-58803368D01*
X154881632Y-58596525D01*
X154638411Y-58434010D01*
X154368158Y-58322068D01*
X154081260Y-58265000D01*
X153788740Y-58265000D01*
X153501842Y-58322068D01*
X153231589Y-58434010D01*
X152988368Y-58596525D01*
X152781525Y-58803368D01*
X152665000Y-58977760D01*
X152548475Y-58803368D01*
X152341632Y-58596525D01*
X152167240Y-58480000D01*
X152341632Y-58363475D01*
X152548475Y-58156632D01*
X152710990Y-57913411D01*
X152822932Y-57643158D01*
X152880000Y-57356260D01*
X152880000Y-57063740D01*
X152822932Y-56776842D01*
X152710990Y-56506589D01*
X152548475Y-56263368D01*
X152341632Y-56056525D01*
X152098411Y-55894010D01*
X151828158Y-55782068D01*
X151541260Y-55725000D01*
X151248740Y-55725000D01*
X150961842Y-55782068D01*
X150691589Y-55894010D01*
X150448368Y-56056525D01*
X150241525Y-56263368D01*
X150125000Y-56437760D01*
X150008475Y-56263368D01*
X149801632Y-56056525D01*
X149558411Y-55894010D01*
X149288158Y-55782068D01*
X149001260Y-55725000D01*
X148708740Y-55725000D01*
X148421842Y-55782068D01*
X148151589Y-55894010D01*
X147908368Y-56056525D01*
X147701525Y-56263368D01*
X147585000Y-56437760D01*
X147468475Y-56263368D01*
X147261632Y-56056525D01*
X147018411Y-55894010D01*
X146748158Y-55782068D01*
X146461260Y-55725000D01*
X146168740Y-55725000D01*
X145881842Y-55782068D01*
X145611589Y-55894010D01*
X145368368Y-56056525D01*
X145161525Y-56263368D01*
X145045000Y-56437760D01*
X144928475Y-56263368D01*
X144721632Y-56056525D01*
X144478411Y-55894010D01*
X144208158Y-55782068D01*
X143921260Y-55725000D01*
X143628740Y-55725000D01*
X143341842Y-55782068D01*
X143071589Y-55894010D01*
X142828368Y-56056525D01*
X142621525Y-56263368D01*
X142459010Y-56506589D01*
X142347068Y-56776842D01*
X142290000Y-57063740D01*
X142290000Y-57356260D01*
X142347068Y-57643158D01*
X142459010Y-57913411D01*
X142621525Y-58156632D01*
X142828368Y-58363475D01*
X143002760Y-58480000D01*
X142828368Y-58596525D01*
X142621525Y-58803368D01*
X142505000Y-58977760D01*
X142388475Y-58803368D01*
X142181632Y-58596525D01*
X141938411Y-58434010D01*
X141668158Y-58322068D01*
X141381260Y-58265000D01*
X141088740Y-58265000D01*
X140801842Y-58322068D01*
X140531589Y-58434010D01*
X140288368Y-58596525D01*
X140081525Y-58803368D01*
X139965000Y-58977760D01*
X139848475Y-58803368D01*
X139641632Y-58596525D01*
X139467240Y-58480000D01*
X139641632Y-58363475D01*
X139848475Y-58156632D01*
X140010990Y-57913411D01*
X140122932Y-57643158D01*
X140180000Y-57356260D01*
X140180000Y-57063740D01*
X140122932Y-56776842D01*
X140010990Y-56506589D01*
X139848475Y-56263368D01*
X139641632Y-56056525D01*
X139398411Y-55894010D01*
X139128158Y-55782068D01*
X138841260Y-55725000D01*
X138548740Y-55725000D01*
X138261842Y-55782068D01*
X137991589Y-55894010D01*
X137748368Y-56056525D01*
X137541525Y-56263368D01*
X137425000Y-56437760D01*
X137308475Y-56263368D01*
X137101632Y-56056525D01*
X136858411Y-55894010D01*
X136588158Y-55782068D01*
X136301260Y-55725000D01*
X136008740Y-55725000D01*
X135721842Y-55782068D01*
X135451589Y-55894010D01*
X135208368Y-56056525D01*
X135001525Y-56263368D01*
X134839010Y-56506589D01*
X134727068Y-56776842D01*
X134670000Y-57063740D01*
X134670000Y-57356260D01*
X134727068Y-57643158D01*
X134839010Y-57913411D01*
X135001525Y-58156632D01*
X135208368Y-58363475D01*
X135382760Y-58480000D01*
X135208368Y-58596525D01*
X135001525Y-58803368D01*
X134885000Y-58977760D01*
X134768475Y-58803368D01*
X134561632Y-58596525D01*
X134318411Y-58434010D01*
X134048158Y-58322068D01*
X133761260Y-58265000D01*
X133468740Y-58265000D01*
X133181842Y-58322068D01*
X132911589Y-58434010D01*
X132668368Y-58596525D01*
X132461525Y-58803368D01*
X132345000Y-58977760D01*
X132228475Y-58803368D01*
X132021632Y-58596525D01*
X131847240Y-58480000D01*
X132021632Y-58363475D01*
X132228475Y-58156632D01*
X132390990Y-57913411D01*
X132502932Y-57643158D01*
X132560000Y-57356260D01*
X132560000Y-57063740D01*
X132502932Y-56776842D01*
X132390990Y-56506589D01*
X132228475Y-56263368D01*
X132021632Y-56056525D01*
X131778411Y-55894010D01*
X131508158Y-55782068D01*
X131221260Y-55725000D01*
X130928740Y-55725000D01*
X130641842Y-55782068D01*
X130371589Y-55894010D01*
X130128368Y-56056525D01*
X129921525Y-56263368D01*
X129805000Y-56437760D01*
X129688475Y-56263368D01*
X129481632Y-56056525D01*
X129238411Y-55894010D01*
X128968158Y-55782068D01*
X128681260Y-55725000D01*
X128388740Y-55725000D01*
X128101842Y-55782068D01*
X127831589Y-55894010D01*
X127588368Y-56056525D01*
X127381525Y-56263368D01*
X127265000Y-56437760D01*
X127148475Y-56263368D01*
X126941632Y-56056525D01*
X126698411Y-55894010D01*
X126428158Y-55782068D01*
X126141260Y-55725000D01*
X125848740Y-55725000D01*
X125561842Y-55782068D01*
X125291589Y-55894010D01*
X125048368Y-56056525D01*
X124841525Y-56263368D01*
X124679010Y-56506589D01*
X124567068Y-56776842D01*
X124510000Y-57063740D01*
X124510000Y-57356260D01*
X124567068Y-57643158D01*
X124679010Y-57913411D01*
X124841525Y-58156632D01*
X125048368Y-58363475D01*
X125222760Y-58480000D01*
X125048368Y-58596525D01*
X124841525Y-58803368D01*
X124725000Y-58977760D01*
X124608475Y-58803368D01*
X124401632Y-58596525D01*
X124158411Y-58434010D01*
X123888158Y-58322068D01*
X123601260Y-58265000D01*
X123308740Y-58265000D01*
X123021842Y-58322068D01*
X122751589Y-58434010D01*
X122508368Y-58596525D01*
X122301525Y-58803368D01*
X122185000Y-58977760D01*
X122068475Y-58803368D01*
X121861632Y-58596525D01*
X121687240Y-58480000D01*
X121861632Y-58363475D01*
X122068475Y-58156632D01*
X122230990Y-57913411D01*
X122342932Y-57643158D01*
X122400000Y-57356260D01*
X122400000Y-57063740D01*
X122342932Y-56776842D01*
X122230990Y-56506589D01*
X122068475Y-56263368D01*
X121861632Y-56056525D01*
X121618411Y-55894010D01*
X121348158Y-55782068D01*
X121061260Y-55725000D01*
X120768740Y-55725000D01*
X120481842Y-55782068D01*
X120211589Y-55894010D01*
X119968368Y-56056525D01*
X119849893Y-56175000D01*
X119440107Y-56175000D01*
X119321632Y-56056525D01*
X119078411Y-55894010D01*
X118808158Y-55782068D01*
X118521260Y-55725000D01*
X118228740Y-55725000D01*
X117941842Y-55782068D01*
X117671589Y-55894010D01*
X117428368Y-56056525D01*
X117309893Y-56175000D01*
X117223746Y-56175000D01*
X117172918Y-56169994D01*
X117122090Y-56175000D01*
X117122081Y-56175000D01*
X116970024Y-56189976D01*
X116774926Y-56249159D01*
X116595122Y-56345266D01*
X116437523Y-56474604D01*
X116405112Y-56514097D01*
X116272585Y-56646624D01*
X116090464Y-56374061D01*
X115625939Y-55909536D01*
X115252482Y-55660000D01*
X169747518Y-55660000D01*
X169374061Y-55909536D01*
G04 #@! TA.AperFunction,Conductor*
D33*
G36*
X169374061Y-55909536D02*
G01*
X168909536Y-56374061D01*
X168544561Y-56920285D01*
X168293162Y-57527216D01*
X168165000Y-58171531D01*
X168165000Y-58828469D01*
X168293162Y-59472784D01*
X168544561Y-60079715D01*
X168909536Y-60625939D01*
X169374061Y-61090464D01*
X169920285Y-61455439D01*
X170527216Y-61706838D01*
X171171531Y-61835000D01*
X171828469Y-61835000D01*
X172472784Y-61706838D01*
X173079715Y-61455439D01*
X173625939Y-61090464D01*
X174090464Y-60625939D01*
X174338126Y-60255286D01*
X174300367Y-105688204D01*
X174090464Y-105374061D01*
X173625939Y-104909536D01*
X173079715Y-104544561D01*
X172472784Y-104293162D01*
X171828469Y-104165000D01*
X171171531Y-104165000D01*
X170527216Y-104293162D01*
X169920285Y-104544561D01*
X169374061Y-104909536D01*
X168909536Y-105374061D01*
X168544561Y-105920285D01*
X168293162Y-106527216D01*
X168165000Y-107171531D01*
X168165000Y-107828469D01*
X168293162Y-108472784D01*
X168544561Y-109079715D01*
X168909536Y-109625939D01*
X169374061Y-110090464D01*
X169747518Y-110340000D01*
X166379208Y-110340000D01*
X166388072Y-110250000D01*
X166388072Y-106750000D01*
X166375812Y-106625518D01*
X166339502Y-106505820D01*
X166280537Y-106395506D01*
X166201185Y-106298815D01*
X166104494Y-106219463D01*
X165994180Y-106160498D01*
X165874482Y-106124188D01*
X165750000Y-106111928D01*
X163250000Y-106111928D01*
X163125518Y-106124188D01*
X163005820Y-106160498D01*
X162895506Y-106219463D01*
X162798815Y-106298815D01*
X162719463Y-106395506D01*
X162660498Y-106505820D01*
X162624188Y-106625518D01*
X162611928Y-106750000D01*
X162611928Y-110250000D01*
X162620792Y-110340000D01*
X160388547Y-110340000D01*
X160389345Y-110339345D01*
X160624903Y-110052317D01*
X160799939Y-109724848D01*
X160907725Y-109369524D01*
X160935000Y-109092597D01*
X160935000Y-107907403D01*
X160926867Y-107824824D01*
X161444670Y-107478839D01*
X161978839Y-106944670D01*
X162398533Y-106316554D01*
X162687623Y-105618628D01*
X162835000Y-104877715D01*
X162835000Y-104122285D01*
X162687623Y-103381372D01*
X162398533Y-102683446D01*
X161978839Y-102055330D01*
X161444670Y-101521161D01*
X160816554Y-101101467D01*
X160118628Y-100812377D01*
X159377715Y-100665000D01*
X158622285Y-100665000D01*
X157881372Y-100812377D01*
X157183446Y-101101467D01*
X157127000Y-101139183D01*
X157127000Y-96398707D01*
X157228715Y-96367852D01*
X157512752Y-96216031D01*
X157761714Y-96011714D01*
X157966031Y-95762752D01*
X158117852Y-95478715D01*
X158211343Y-95170516D01*
X158242911Y-94850000D01*
X158211343Y-94529484D01*
X158117852Y-94221285D01*
X157966031Y-93937248D01*
X157761714Y-93688286D01*
X157696785Y-93635000D01*
X161919678Y-93635000D01*
X162000000Y-93642911D01*
X162080322Y-93635000D01*
X162320516Y-93611343D01*
X162628715Y-93517852D01*
X162912752Y-93366031D01*
X163161714Y-93161714D01*
X163366031Y-92912752D01*
X163517852Y-92628715D01*
X163611343Y-92320516D01*
X163642911Y-92000000D01*
X163635000Y-91919678D01*
X163635000Y-73500000D01*
X170357815Y-73500000D01*
X170386487Y-73791111D01*
X170471401Y-74071034D01*
X170609294Y-74329014D01*
X170794866Y-74555134D01*
X170858337Y-74607223D01*
X170756614Y-74661595D01*
X170622038Y-74772038D01*
X170511595Y-74906614D01*
X170429528Y-75060150D01*
X170378992Y-75226746D01*
X170361928Y-75400000D01*
X170361928Y-76600000D01*
X170378992Y-76773254D01*
X170429528Y-76939850D01*
X170511595Y-77093386D01*
X170622038Y-77227962D01*
X170756614Y-77338405D01*
X170910150Y-77420472D01*
X171076746Y-77471008D01*
X171250000Y-77488072D01*
X172750000Y-77488072D01*
X172923254Y-77471008D01*
X173089850Y-77420472D01*
X173243386Y-77338405D01*
X173377962Y-77227962D01*
X173488405Y-77093386D01*
X173570472Y-76939850D01*
X173621008Y-76773254D01*
X173638072Y-76600000D01*
X173638072Y-75400000D01*
X173621008Y-75226746D01*
X173570472Y-75060150D01*
X173488405Y-74906614D01*
X173377962Y-74772038D01*
X173243386Y-74661595D01*
X173141663Y-74607223D01*
X173205134Y-74555134D01*
X173390706Y-74329014D01*
X173528599Y-74071034D01*
X173613513Y-73791111D01*
X173642185Y-73500000D01*
X173613513Y-73208889D01*
X173528599Y-72928966D01*
X173390706Y-72670986D01*
X173205134Y-72444866D01*
X172979014Y-72259294D01*
X172721034Y-72121401D01*
X172441111Y-72036487D01*
X172222950Y-72015000D01*
X171777050Y-72015000D01*
X171558889Y-72036487D01*
X171278966Y-72121401D01*
X171020986Y-72259294D01*
X170794866Y-72444866D01*
X170609294Y-72670986D01*
X170471401Y-72928966D01*
X170386487Y-73208889D01*
X170357815Y-73500000D01*
X163635000Y-73500000D01*
X163635000Y-70419678D01*
X163611343Y-70179484D01*
X163517852Y-69871285D01*
X163366031Y-69587248D01*
X163161714Y-69338286D01*
X162912752Y-69133969D01*
X162628715Y-68982148D01*
X162320516Y-68888657D01*
X162000000Y-68857089D01*
X161679485Y-68888657D01*
X161371286Y-68982148D01*
X161087249Y-69133969D01*
X160862241Y-69318628D01*
X162116432Y-68064437D01*
X162148291Y-68038291D01*
X162185928Y-67992431D01*
X162252636Y-67911146D01*
X162330172Y-67766087D01*
X162377918Y-67608689D01*
X162394040Y-67445000D01*
X162390000Y-67403982D01*
X162390000Y-64500000D01*
X170357815Y-64500000D01*
X170386487Y-64791111D01*
X170471401Y-65071034D01*
X170609294Y-65329014D01*
X170794866Y-65555134D01*
X170858337Y-65607223D01*
X170756614Y-65661595D01*
X170622038Y-65772038D01*
X170511595Y-65906614D01*
X170429528Y-66060150D01*
X170378992Y-66226746D01*
X170361928Y-66400000D01*
X170361928Y-67600000D01*
X170378992Y-67773254D01*
X170429528Y-67939850D01*
X170511595Y-68093386D01*
X170622038Y-68227962D01*
X170756614Y-68338405D01*
X170910150Y-68420472D01*
X171076746Y-68471008D01*
X171250000Y-68488072D01*
X172750000Y-68488072D01*
X172923254Y-68471008D01*
X173089850Y-68420472D01*
X173243386Y-68338405D01*
X173377962Y-68227962D01*
X173488405Y-68093386D01*
X173570472Y-67939850D01*
X173621008Y-67773254D01*
X173638072Y-67600000D01*
X173638072Y-66400000D01*
X173621008Y-66226746D01*
X173570472Y-66060150D01*
X173488405Y-65906614D01*
X173377962Y-65772038D01*
X173243386Y-65661595D01*
X173141663Y-65607223D01*
X173205134Y-65555134D01*
X173390706Y-65329014D01*
X173528599Y-65071034D01*
X173613513Y-64791111D01*
X173642185Y-64500000D01*
X173613513Y-64208889D01*
X173528599Y-63928966D01*
X173390706Y-63670986D01*
X173205134Y-63444866D01*
X172979014Y-63259294D01*
X172721034Y-63121401D01*
X172441111Y-63036487D01*
X172222950Y-63015000D01*
X171777050Y-63015000D01*
X171558889Y-63036487D01*
X171278966Y-63121401D01*
X171020986Y-63259294D01*
X170794866Y-63444866D01*
X170609294Y-63670986D01*
X170471401Y-63928966D01*
X170386487Y-64208889D01*
X170357815Y-64500000D01*
X162390000Y-64500000D01*
X162390000Y-60978065D01*
X162501632Y-60903475D01*
X162708475Y-60696632D01*
X162825000Y-60522240D01*
X162941525Y-60696632D01*
X163148368Y-60903475D01*
X163391589Y-61065990D01*
X163661842Y-61177932D01*
X163948740Y-61235000D01*
X164241260Y-61235000D01*
X164528158Y-61177932D01*
X164798411Y-61065990D01*
X165041632Y-60903475D01*
X165248475Y-60696632D01*
X165410990Y-60453411D01*
X165522932Y-60183158D01*
X165580000Y-59896260D01*
X165580000Y-59603740D01*
X165522932Y-59316842D01*
X165410990Y-59046589D01*
X165248475Y-58803368D01*
X165041632Y-58596525D01*
X164867240Y-58480000D01*
X165041632Y-58363475D01*
X165248475Y-58156632D01*
X165365000Y-57982240D01*
X165481525Y-58156632D01*
X165688368Y-58363475D01*
X165931589Y-58525990D01*
X166201842Y-58637932D01*
X166488740Y-58695000D01*
X166781260Y-58695000D01*
X167068158Y-58637932D01*
X167338411Y-58525990D01*
X167581632Y-58363475D01*
X167788475Y-58156632D01*
X167950990Y-57913411D01*
X168062932Y-57643158D01*
X168120000Y-57356260D01*
X168120000Y-57063740D01*
X168062932Y-56776842D01*
X167950990Y-56506589D01*
X167788475Y-56263368D01*
X167581632Y-56056525D01*
X167338411Y-55894010D01*
X167068158Y-55782068D01*
X166781260Y-55725000D01*
X166488740Y-55725000D01*
X166201842Y-55782068D01*
X165931589Y-55894010D01*
X165688368Y-56056525D01*
X165481525Y-56263368D01*
X165365000Y-56437760D01*
X165248475Y-56263368D01*
X165041632Y-56056525D01*
X164798411Y-55894010D01*
X164528158Y-55782068D01*
X164241260Y-55725000D01*
X163948740Y-55725000D01*
X163661842Y-55782068D01*
X163391589Y-55894010D01*
X163148368Y-56056525D01*
X162941525Y-56263368D01*
X162825000Y-56437760D01*
X162708475Y-56263368D01*
X162501632Y-56056525D01*
X162258411Y-55894010D01*
X161988158Y-55782068D01*
X161701260Y-55725000D01*
X161408740Y-55725000D01*
X161121842Y-55782068D01*
X160851589Y-55894010D01*
X160608368Y-56056525D01*
X160401525Y-56263368D01*
X160239010Y-56506589D01*
X160127068Y-56776842D01*
X160070000Y-57063740D01*
X160070000Y-57356260D01*
X160127068Y-57643158D01*
X160239010Y-57913411D01*
X160374704Y-58116492D01*
X159921492Y-58569704D01*
X159718411Y-58434010D01*
X159448158Y-58322068D01*
X159161260Y-58265000D01*
X158868740Y-58265000D01*
X158581842Y-58322068D01*
X158311589Y-58434010D01*
X158068368Y-58596525D01*
X157861525Y-58803368D01*
X157745000Y-58977760D01*
X157628475Y-58803368D01*
X157421632Y-58596525D01*
X157247240Y-58480000D01*
X157421632Y-58363475D01*
X157628475Y-58156632D01*
X157790990Y-57913411D01*
X157902932Y-57643158D01*
X157960000Y-57356260D01*
X157960000Y-57063740D01*
X157902932Y-56776842D01*
X157790990Y-56506589D01*
X157628475Y-56263368D01*
X157421632Y-56056525D01*
X157178411Y-55894010D01*
X156908158Y-55782068D01*
X156621260Y-55725000D01*
X156328740Y-55725000D01*
X156041842Y-55782068D01*
X155771589Y-55894010D01*
X155528368Y-56056525D01*
X155321525Y-56263368D01*
X155159010Y-56506589D01*
X155047068Y-56776842D01*
X154990000Y-57063740D01*
X154990000Y-57356260D01*
X155047068Y-57643158D01*
X155159010Y-57913411D01*
X155321525Y-58156632D01*
X155528368Y-58363475D01*
X155702760Y-58480000D01*
X155528368Y-58596525D01*
X155321525Y-58803368D01*
X155205000Y-58977760D01*
X155088475Y-58803368D01*
X154881632Y-58596525D01*
X154638411Y-58434010D01*
X154368158Y-58322068D01*
X154081260Y-58265000D01*
X153788740Y-58265000D01*
X153501842Y-58322068D01*
X153231589Y-58434010D01*
X152988368Y-58596525D01*
X152781525Y-58803368D01*
X152665000Y-58977760D01*
X152548475Y-58803368D01*
X152341632Y-58596525D01*
X152167240Y-58480000D01*
X152341632Y-58363475D01*
X152548475Y-58156632D01*
X152710990Y-57913411D01*
X152822932Y-57643158D01*
X152880000Y-57356260D01*
X152880000Y-57063740D01*
X152822932Y-56776842D01*
X152710990Y-56506589D01*
X152548475Y-56263368D01*
X152341632Y-56056525D01*
X152098411Y-55894010D01*
X151828158Y-55782068D01*
X151541260Y-55725000D01*
X151248740Y-55725000D01*
X150961842Y-55782068D01*
X150691589Y-55894010D01*
X150448368Y-56056525D01*
X150241525Y-56263368D01*
X150125000Y-56437760D01*
X150008475Y-56263368D01*
X149801632Y-56056525D01*
X149558411Y-55894010D01*
X149288158Y-55782068D01*
X149001260Y-55725000D01*
X148708740Y-55725000D01*
X148421842Y-55782068D01*
X148151589Y-55894010D01*
X147908368Y-56056525D01*
X147701525Y-56263368D01*
X147585000Y-56437760D01*
X147468475Y-56263368D01*
X147261632Y-56056525D01*
X147018411Y-55894010D01*
X146748158Y-55782068D01*
X146461260Y-55725000D01*
X146168740Y-55725000D01*
X145881842Y-55782068D01*
X145611589Y-55894010D01*
X145368368Y-56056525D01*
X145161525Y-56263368D01*
X145045000Y-56437760D01*
X144928475Y-56263368D01*
X144721632Y-56056525D01*
X144478411Y-55894010D01*
X144208158Y-55782068D01*
X143921260Y-55725000D01*
X143628740Y-55725000D01*
X143341842Y-55782068D01*
X143071589Y-55894010D01*
X142828368Y-56056525D01*
X142621525Y-56263368D01*
X142459010Y-56506589D01*
X142347068Y-56776842D01*
X142290000Y-57063740D01*
X142290000Y-57356260D01*
X142347068Y-57643158D01*
X142459010Y-57913411D01*
X142621525Y-58156632D01*
X142828368Y-58363475D01*
X143002760Y-58480000D01*
X142828368Y-58596525D01*
X142621525Y-58803368D01*
X142505000Y-58977760D01*
X142388475Y-58803368D01*
X142181632Y-58596525D01*
X141938411Y-58434010D01*
X141668158Y-58322068D01*
X141381260Y-58265000D01*
X141088740Y-58265000D01*
X140801842Y-58322068D01*
X140531589Y-58434010D01*
X140288368Y-58596525D01*
X140081525Y-58803368D01*
X139965000Y-58977760D01*
X139848475Y-58803368D01*
X139641632Y-58596525D01*
X139467240Y-58480000D01*
X139641632Y-58363475D01*
X139848475Y-58156632D01*
X140010990Y-57913411D01*
X140122932Y-57643158D01*
X140180000Y-57356260D01*
X140180000Y-57063740D01*
X140122932Y-56776842D01*
X140010990Y-56506589D01*
X139848475Y-56263368D01*
X139641632Y-56056525D01*
X139398411Y-55894010D01*
X139128158Y-55782068D01*
X138841260Y-55725000D01*
X138548740Y-55725000D01*
X138261842Y-55782068D01*
X137991589Y-55894010D01*
X137748368Y-56056525D01*
X137541525Y-56263368D01*
X137425000Y-56437760D01*
X137308475Y-56263368D01*
X137101632Y-56056525D01*
X136858411Y-55894010D01*
X136588158Y-55782068D01*
X136301260Y-55725000D01*
X136008740Y-55725000D01*
X135721842Y-55782068D01*
X135451589Y-55894010D01*
X135208368Y-56056525D01*
X135001525Y-56263368D01*
X134839010Y-56506589D01*
X134727068Y-56776842D01*
X134670000Y-57063740D01*
X134670000Y-57356260D01*
X134727068Y-57643158D01*
X134839010Y-57913411D01*
X135001525Y-58156632D01*
X135208368Y-58363475D01*
X135382760Y-58480000D01*
X135208368Y-58596525D01*
X135001525Y-58803368D01*
X134885000Y-58977760D01*
X134768475Y-58803368D01*
X134561632Y-58596525D01*
X134318411Y-58434010D01*
X134048158Y-58322068D01*
X133761260Y-58265000D01*
X133468740Y-58265000D01*
X133181842Y-58322068D01*
X132911589Y-58434010D01*
X132668368Y-58596525D01*
X132461525Y-58803368D01*
X132345000Y-58977760D01*
X132228475Y-58803368D01*
X132021632Y-58596525D01*
X131847240Y-58480000D01*
X132021632Y-58363475D01*
X132228475Y-58156632D01*
X132390990Y-57913411D01*
X132502932Y-57643158D01*
X132560000Y-57356260D01*
X132560000Y-57063740D01*
X132502932Y-56776842D01*
X132390990Y-56506589D01*
X132228475Y-56263368D01*
X132021632Y-56056525D01*
X131778411Y-55894010D01*
X131508158Y-55782068D01*
X131221260Y-55725000D01*
X130928740Y-55725000D01*
X130641842Y-55782068D01*
X130371589Y-55894010D01*
X130128368Y-56056525D01*
X129921525Y-56263368D01*
X129805000Y-56437760D01*
X129688475Y-56263368D01*
X129481632Y-56056525D01*
X129238411Y-55894010D01*
X128968158Y-55782068D01*
X128681260Y-55725000D01*
X128388740Y-55725000D01*
X128101842Y-55782068D01*
X127831589Y-55894010D01*
X127588368Y-56056525D01*
X127381525Y-56263368D01*
X127265000Y-56437760D01*
X127148475Y-56263368D01*
X126941632Y-56056525D01*
X126698411Y-55894010D01*
X126428158Y-55782068D01*
X126141260Y-55725000D01*
X125848740Y-55725000D01*
X125561842Y-55782068D01*
X125291589Y-55894010D01*
X125048368Y-56056525D01*
X124841525Y-56263368D01*
X124679010Y-56506589D01*
X124567068Y-56776842D01*
X124510000Y-57063740D01*
X124510000Y-57356260D01*
X124567068Y-57643158D01*
X124679010Y-57913411D01*
X124841525Y-58156632D01*
X125048368Y-58363475D01*
X125222760Y-58480000D01*
X125048368Y-58596525D01*
X124841525Y-58803368D01*
X124725000Y-58977760D01*
X124608475Y-58803368D01*
X124401632Y-58596525D01*
X124158411Y-58434010D01*
X123888158Y-58322068D01*
X123601260Y-58265000D01*
X123308740Y-58265000D01*
X123021842Y-58322068D01*
X122751589Y-58434010D01*
X122508368Y-58596525D01*
X122301525Y-58803368D01*
X122185000Y-58977760D01*
X122068475Y-58803368D01*
X121861632Y-58596525D01*
X121687240Y-58480000D01*
X121861632Y-58363475D01*
X122068475Y-58156632D01*
X122230990Y-57913411D01*
X122342932Y-57643158D01*
X122400000Y-57356260D01*
X122400000Y-57063740D01*
X122342932Y-56776842D01*
X122230990Y-56506589D01*
X122068475Y-56263368D01*
X121861632Y-56056525D01*
X121618411Y-55894010D01*
X121348158Y-55782068D01*
X121061260Y-55725000D01*
X120768740Y-55725000D01*
X120481842Y-55782068D01*
X120211589Y-55894010D01*
X119968368Y-56056525D01*
X119849893Y-56175000D01*
X119440107Y-56175000D01*
X119321632Y-56056525D01*
X119078411Y-55894010D01*
X118808158Y-55782068D01*
X118521260Y-55725000D01*
X118228740Y-55725000D01*
X117941842Y-55782068D01*
X117671589Y-55894010D01*
X117428368Y-56056525D01*
X117309893Y-56175000D01*
X117223746Y-56175000D01*
X117172918Y-56169994D01*
X117122090Y-56175000D01*
X117122081Y-56175000D01*
X116970024Y-56189976D01*
X116774926Y-56249159D01*
X116595122Y-56345266D01*
X116437523Y-56474604D01*
X116405112Y-56514097D01*
X116272585Y-56646624D01*
X116090464Y-56374061D01*
X115625939Y-55909536D01*
X115252482Y-55660000D01*
X169747518Y-55660000D01*
X169374061Y-55909536D01*
G37*
G04 #@! TD.AperFunction*
D32*
X150241525Y-58156632D02*
X150448368Y-58363475D01*
X150622760Y-58480000D01*
X150448368Y-58596525D01*
X150241525Y-58803368D01*
X150079010Y-59046589D01*
X149967068Y-59316842D01*
X149910000Y-59603740D01*
X149910000Y-59896260D01*
X149967068Y-60183158D01*
X150079010Y-60453411D01*
X150241525Y-60696632D01*
X150448368Y-60903475D01*
X150691589Y-61065990D01*
X150961842Y-61177932D01*
X151248740Y-61235000D01*
X151541260Y-61235000D01*
X151828158Y-61177932D01*
X152098411Y-61065990D01*
X152341632Y-60903475D01*
X152548475Y-60696632D01*
X152665000Y-60522240D01*
X152781525Y-60696632D01*
X152988368Y-60903475D01*
X153231589Y-61065990D01*
X153501842Y-61177932D01*
X153788740Y-61235000D01*
X153915199Y-61235000D01*
X152158099Y-62992100D01*
X145170772Y-62992100D01*
X145162795Y-62977176D01*
X144989331Y-62765809D01*
X144777964Y-62592345D01*
X144536817Y-62463449D01*
X144275157Y-62384075D01*
X144071229Y-62363990D01*
X142426091Y-62363990D01*
X142222163Y-62384075D01*
X141960503Y-62463449D01*
X141719356Y-62592345D01*
X141507989Y-62765809D01*
X141334525Y-62977176D01*
X141205629Y-63218323D01*
X141126255Y-63479983D01*
X141099454Y-63752100D01*
X141126255Y-64024217D01*
X141205629Y-64285877D01*
X141334525Y-64527024D01*
X141507989Y-64738391D01*
X141719356Y-64911855D01*
X141960503Y-65040751D01*
X142222163Y-65120125D01*
X142426091Y-65140210D01*
X144071229Y-65140210D01*
X144275157Y-65120125D01*
X144536817Y-65040751D01*
X144777964Y-64911855D01*
X144989331Y-64738391D01*
X145162795Y-64527024D01*
X145170772Y-64512100D01*
X151492044Y-64512100D01*
X151465000Y-64648061D01*
X151465000Y-64851939D01*
X151504774Y-65051898D01*
X151582795Y-65240256D01*
X151696063Y-65409774D01*
X151840226Y-65553937D01*
X151946580Y-65625000D01*
X151840226Y-65696063D01*
X151696063Y-65840226D01*
X151582795Y-66009744D01*
X151504774Y-66198102D01*
X151465000Y-66398061D01*
X151465000Y-66460198D01*
X149400854Y-68524345D01*
X149259744Y-68582795D01*
X149090226Y-68696063D01*
X148946063Y-68840226D01*
X148832795Y-69009744D01*
X148760084Y-69185282D01*
X145785000Y-66210199D01*
X145785000Y-66148061D01*
X145745226Y-65948102D01*
X145667205Y-65759744D01*
X145553937Y-65590226D01*
X145409774Y-65446063D01*
X145240256Y-65332795D01*
X145051898Y-65254774D01*
X144851939Y-65215000D01*
X144648061Y-65215000D01*
X144448102Y-65254774D01*
X144259744Y-65332795D01*
X144090226Y-65446063D01*
X143946063Y-65590226D01*
X143832795Y-65759744D01*
X143754774Y-65948102D01*
X143715000Y-66148061D01*
X143715000Y-66162890D01*
X135114443Y-66162890D01*
X135077110Y-66159213D01*
X135039777Y-66162890D01*
X134928124Y-66173887D01*
X134784863Y-66217344D01*
X134652834Y-66287916D01*
X134537109Y-66382889D01*
X134513311Y-66411887D01*
X132710199Y-68215000D01*
X132648061Y-68215000D01*
X132448102Y-68254774D01*
X132259744Y-68332795D01*
X132090226Y-68446063D01*
X131946063Y-68590226D01*
X131832795Y-68759744D01*
X131754774Y-68948102D01*
X131715000Y-69148061D01*
X131715000Y-69351939D01*
X131754774Y-69551898D01*
X131832795Y-69740256D01*
X131946063Y-69909774D01*
X132090226Y-70053937D01*
X132259744Y-70167205D01*
X132448102Y-70245226D01*
X132648061Y-70285000D01*
X132851939Y-70285000D01*
X133051898Y-70245226D01*
X133240256Y-70167205D01*
X133409774Y-70053937D01*
X133553937Y-69909774D01*
X133667205Y-69740256D01*
X133745226Y-69551898D01*
X133785000Y-69351939D01*
X133785000Y-69289801D01*
X135391912Y-67682890D01*
X143887920Y-67682890D01*
X148237910Y-72032882D01*
X148215000Y-72148061D01*
X148215000Y-72351939D01*
X148254774Y-72551898D01*
X148332795Y-72740256D01*
X148446063Y-72909774D01*
X148517245Y-72980956D01*
X137258201Y-84240000D01*
X136703711Y-84240000D01*
X136659774Y-84196063D01*
X136490256Y-84082795D01*
X136301898Y-84004774D01*
X136101939Y-83965000D01*
X135898061Y-83965000D01*
X135698102Y-84004774D01*
X135509744Y-84082795D01*
X135340226Y-84196063D01*
X135196063Y-84340226D01*
X135082795Y-84509744D01*
X135004774Y-84698102D01*
X134965000Y-84898061D01*
X134965000Y-85101939D01*
X135004774Y-85301898D01*
X135082795Y-85490256D01*
X135196063Y-85659774D01*
X135340226Y-85803937D01*
X135509744Y-85917205D01*
X135698102Y-85995226D01*
X135898061Y-86035000D01*
X136101939Y-86035000D01*
X136301898Y-85995226D01*
X136490256Y-85917205D01*
X136659774Y-85803937D01*
X136703711Y-85760000D01*
X137535680Y-85760000D01*
X137573002Y-85763676D01*
X137610324Y-85760000D01*
X137610335Y-85760000D01*
X137721988Y-85749003D01*
X137865249Y-85705546D01*
X137997278Y-85634974D01*
X138113003Y-85540001D01*
X138136806Y-85510997D01*
X142490001Y-81157803D01*
X142490000Y-82296289D01*
X142446063Y-82340226D01*
X142332795Y-82509744D01*
X142254774Y-82698102D01*
X142215000Y-82898061D01*
X142215000Y-83101939D01*
X142254774Y-83301898D01*
X142332795Y-83490256D01*
X142446063Y-83659774D01*
X142590226Y-83803937D01*
X142759744Y-83917205D01*
X142948102Y-83995226D01*
X143148061Y-84035000D01*
X143351939Y-84035000D01*
X143551898Y-83995226D01*
X143740256Y-83917205D01*
X143909774Y-83803937D01*
X144053937Y-83659774D01*
X144167205Y-83490256D01*
X144245226Y-83301898D01*
X144285000Y-83101939D01*
X144285000Y-82898061D01*
X144245226Y-82698102D01*
X144167205Y-82509744D01*
X144053937Y-82340226D01*
X144010000Y-82296289D01*
X144010000Y-81003560D01*
X144051898Y-80995226D01*
X144240256Y-80917205D01*
X144409774Y-80803937D01*
X144553937Y-80659774D01*
X144667205Y-80490256D01*
X144745226Y-80301898D01*
X144785000Y-80101939D01*
X144785000Y-79898061D01*
X144745226Y-79698102D01*
X144667205Y-79509744D01*
X144553937Y-79340226D01*
X144430757Y-79217046D01*
X145031466Y-78616338D01*
X145082795Y-78740256D01*
X145196063Y-78909774D01*
X145240001Y-78953712D01*
X145240000Y-88546289D01*
X145196063Y-88590226D01*
X145082795Y-88759744D01*
X145004774Y-88948102D01*
X144965000Y-89148061D01*
X144965000Y-89351939D01*
X145004774Y-89551898D01*
X145082795Y-89740256D01*
X145196063Y-89909774D01*
X145340226Y-90053937D01*
X145509744Y-90167205D01*
X145698102Y-90245226D01*
X145898061Y-90285000D01*
X146101939Y-90285000D01*
X146301898Y-90245226D01*
X146490256Y-90167205D01*
X146659774Y-90053937D01*
X146703711Y-90010000D01*
X152962678Y-90010000D01*
X153000000Y-90013676D01*
X153037322Y-90010000D01*
X153037333Y-90010000D01*
X153148986Y-89999003D01*
X153292247Y-89955546D01*
X153424276Y-89884974D01*
X153540001Y-89790001D01*
X153563804Y-89760997D01*
X154289802Y-89035000D01*
X154351939Y-89035000D01*
X154551898Y-88995226D01*
X154740256Y-88917205D01*
X154909774Y-88803937D01*
X155053937Y-88659774D01*
X155167205Y-88490256D01*
X155245226Y-88301898D01*
X155285000Y-88101939D01*
X155285000Y-87898061D01*
X155245226Y-87698102D01*
X155167205Y-87509744D01*
X155053937Y-87340226D01*
X154909774Y-87196063D01*
X154740256Y-87082795D01*
X154551898Y-87004774D01*
X154351939Y-86965000D01*
X154148061Y-86965000D01*
X153948102Y-87004774D01*
X153759744Y-87082795D01*
X153590226Y-87196063D01*
X153446063Y-87340226D01*
X153332795Y-87509744D01*
X153254774Y-87698102D01*
X153215000Y-87898061D01*
X153215000Y-87960198D01*
X152685199Y-88490000D01*
X146760000Y-88490000D01*
X146760000Y-78953711D01*
X146800770Y-78912941D01*
X146832795Y-78990256D01*
X146946063Y-79159774D01*
X147090226Y-79303937D01*
X147259744Y-79417205D01*
X147448102Y-79495226D01*
X147648061Y-79535000D01*
X147851939Y-79535000D01*
X148051898Y-79495226D01*
X148240256Y-79417205D01*
X148409774Y-79303937D01*
X148453711Y-79260000D01*
X152240000Y-79260000D01*
X152240001Y-82935197D01*
X152210198Y-82965000D01*
X152148061Y-82965000D01*
X151948102Y-83004774D01*
X151759744Y-83082795D01*
X151590226Y-83196063D01*
X151446063Y-83340226D01*
X151332795Y-83509744D01*
X151254774Y-83698102D01*
X151215000Y-83898061D01*
X151215000Y-84101939D01*
X151254774Y-84301898D01*
X151332795Y-84490256D01*
X151446063Y-84659774D01*
X151590226Y-84803937D01*
X151759744Y-84917205D01*
X151948102Y-84995226D01*
X152148061Y-85035000D01*
X152351939Y-85035000D01*
X152551898Y-84995226D01*
X152740256Y-84917205D01*
X152909774Y-84803937D01*
X153053937Y-84659774D01*
X153167205Y-84490256D01*
X153245226Y-84301898D01*
X153285000Y-84101939D01*
X153285000Y-84039802D01*
X153511002Y-83813799D01*
X153540001Y-83790001D01*
X153634974Y-83674276D01*
X153705546Y-83542247D01*
X153749003Y-83398986D01*
X153760000Y-83287333D01*
X153760000Y-83287324D01*
X153763676Y-83250001D01*
X153760000Y-83212678D01*
X153760000Y-79260000D01*
X157185199Y-79260000D01*
X158215000Y-80289802D01*
X158215000Y-80351939D01*
X158254774Y-80551898D01*
X158332795Y-80740256D01*
X158446063Y-80909774D01*
X158590226Y-81053937D01*
X158759744Y-81167205D01*
X158948102Y-81245226D01*
X159148061Y-81285000D01*
X159351939Y-81285000D01*
X159551898Y-81245226D01*
X159740256Y-81167205D01*
X159909774Y-81053937D01*
X160053937Y-80909774D01*
X160167205Y-80740256D01*
X160245226Y-80551898D01*
X160285000Y-80351939D01*
X160285000Y-80148061D01*
X160245226Y-79948102D01*
X160167205Y-79759744D01*
X160053937Y-79590226D01*
X159909774Y-79446063D01*
X159740256Y-79332795D01*
X159551898Y-79254774D01*
X159351939Y-79215000D01*
X159289802Y-79215000D01*
X158063804Y-77989003D01*
X158040001Y-77959999D01*
X157924276Y-77865026D01*
X157792247Y-77794454D01*
X157648986Y-77750997D01*
X157537333Y-77740000D01*
X157537322Y-77740000D01*
X157500000Y-77736324D01*
X157462678Y-77740000D01*
X153037333Y-77740000D01*
X153000000Y-77736323D01*
X152962667Y-77740000D01*
X148453711Y-77740000D01*
X148409774Y-77696063D01*
X148240256Y-77582795D01*
X148051898Y-77504774D01*
X147851939Y-77465000D01*
X147648061Y-77465000D01*
X147448102Y-77504774D01*
X147259744Y-77582795D01*
X147090226Y-77696063D01*
X146949230Y-77837059D01*
X146917205Y-77759744D01*
X146803937Y-77590226D01*
X146659774Y-77446063D01*
X146490256Y-77332795D01*
X146366338Y-77281466D01*
X150511003Y-73136801D01*
X150540001Y-73113003D01*
X150588475Y-73053937D01*
X150634974Y-72997279D01*
X150705546Y-72865249D01*
X150724144Y-72803937D01*
X150749003Y-72721988D01*
X150760000Y-72610335D01*
X150760000Y-72610326D01*
X150763676Y-72573003D01*
X150760000Y-72535680D01*
X150760000Y-70814801D01*
X155242693Y-66332110D01*
X155294003Y-66290001D01*
X155317806Y-66260997D01*
X160648508Y-60930296D01*
X160720000Y-60978065D01*
X160720001Y-67099130D01*
X156243225Y-71575907D01*
X156098102Y-71604774D01*
X155909744Y-71682795D01*
X155740226Y-71796063D01*
X155596063Y-71940226D01*
X155482795Y-72109744D01*
X155404774Y-72298102D01*
X155365000Y-72498061D01*
X155365000Y-72701939D01*
X155404774Y-72901898D01*
X155482795Y-73090256D01*
X155596063Y-73259774D01*
X155740226Y-73403937D01*
X155909744Y-73517205D01*
X156098102Y-73595226D01*
X156298061Y-73635000D01*
X156501939Y-73635000D01*
X156701898Y-73595226D01*
X156890256Y-73517205D01*
X157059774Y-73403937D01*
X157203937Y-73259774D01*
X157317205Y-73090256D01*
X157395226Y-72901898D01*
X157424093Y-72756775D01*
X160818629Y-69362240D01*
X160633970Y-69587248D01*
X160482149Y-69871285D01*
X160388658Y-70179484D01*
X160365001Y-70419678D01*
X160365000Y-75580321D01*
X160365001Y-75580331D01*
X160365000Y-88717598D01*
X160351939Y-88715000D01*
X160289802Y-88715000D01*
X158760000Y-87185199D01*
X158760000Y-83953711D01*
X158803937Y-83909774D01*
X158917205Y-83740256D01*
X158995226Y-83551898D01*
X159035000Y-83351939D01*
X159035000Y-83148061D01*
X158995226Y-82948102D01*
X158917205Y-82759744D01*
X158803937Y-82590226D01*
X158659774Y-82446063D01*
X158490256Y-82332795D01*
X158301898Y-82254774D01*
X158101939Y-82215000D01*
X157898061Y-82215000D01*
X157698102Y-82254774D01*
X157509744Y-82332795D01*
X157340226Y-82446063D01*
X157196063Y-82590226D01*
X157082795Y-82759744D01*
X157004774Y-82948102D01*
X156965000Y-83148061D01*
X156965000Y-83351939D01*
X157004774Y-83551898D01*
X157082795Y-83740256D01*
X157196063Y-83909774D01*
X157240000Y-83953711D01*
X157240001Y-87462668D01*
X157236324Y-87500000D01*
X157240001Y-87537333D01*
X157250998Y-87648986D01*
X157264180Y-87692442D01*
X157294454Y-87792246D01*
X157365026Y-87924276D01*
X157412521Y-87982148D01*
X157460000Y-88040001D01*
X157488998Y-88063799D01*
X159215000Y-89789802D01*
X159215000Y-89851939D01*
X159254774Y-90051898D01*
X159332795Y-90240256D01*
X159416146Y-90365000D01*
X127177239Y-90365000D01*
X122599323Y-85787085D01*
X122412752Y-85633970D01*
X122128714Y-85482148D01*
X121820516Y-85388658D01*
X121500000Y-85357089D01*
X121179484Y-85388658D01*
X120871286Y-85482148D01*
X120587248Y-85633970D01*
X120338287Y-85838287D01*
X120133970Y-86087248D01*
X119982148Y-86371286D01*
X119888658Y-86679484D01*
X119857089Y-87000000D01*
X119888658Y-87320516D01*
X119982148Y-87628714D01*
X120133970Y-87912752D01*
X120287085Y-88099323D01*
X125287080Y-93099319D01*
X125338286Y-93161714D01*
X125403215Y-93215000D01*
X124761489Y-93215000D01*
X124662752Y-93133969D01*
X124378715Y-92982148D01*
X124070516Y-92888657D01*
X123830322Y-92865000D01*
X123830319Y-92865000D01*
X123750000Y-92857089D01*
X123669681Y-92865000D01*
X115653089Y-92865000D01*
X112934990Y-90146903D01*
X112934990Y-88918345D01*
X113083889Y-88963513D01*
X113302050Y-88985000D01*
X113697950Y-88985000D01*
X113916111Y-88963513D01*
X114196034Y-88878599D01*
X114454014Y-88740706D01*
X114680134Y-88555134D01*
X114865706Y-88329014D01*
X115003599Y-88071034D01*
X115088513Y-87791111D01*
X115117185Y-87500000D01*
X115114304Y-87470753D01*
X123235057Y-79350000D01*
X136211928Y-79350000D01*
X136211928Y-80650000D01*
X136224188Y-80774482D01*
X136260498Y-80894180D01*
X136319463Y-81004494D01*
X136398815Y-81101185D01*
X136495506Y-81180537D01*
X136605820Y-81239502D01*
X136725518Y-81275812D01*
X136850000Y-81288072D01*
X138150000Y-81288072D01*
X138274482Y-81275812D01*
X138394180Y-81239502D01*
X138504494Y-81180537D01*
X138601185Y-81101185D01*
X138680537Y-81004494D01*
X138739502Y-80894180D01*
X138775812Y-80774482D01*
X138788072Y-80650000D01*
X138788072Y-80015000D01*
X138896561Y-80015000D01*
X139144821Y-79965619D01*
X139378676Y-79868753D01*
X139589140Y-79728125D01*
X139768125Y-79549140D01*
X139908753Y-79338676D01*
X140005619Y-79104821D01*
X140055000Y-78856561D01*
X140055000Y-78603439D01*
X140005619Y-78355179D01*
X139908753Y-78121324D01*
X139768125Y-77910860D01*
X139589140Y-77731875D01*
X139378676Y-77591247D01*
X139144821Y-77494381D01*
X138896561Y-77445000D01*
X138643439Y-77445000D01*
X138395179Y-77494381D01*
X138161324Y-77591247D01*
X137950860Y-77731875D01*
X137771875Y-77910860D01*
X137631247Y-78121324D01*
X137534381Y-78355179D01*
X137485000Y-78603439D01*
X137485000Y-78711928D01*
X136850000Y-78711928D01*
X136725518Y-78724188D01*
X136605820Y-78760498D01*
X136495506Y-78819463D01*
X136398815Y-78898815D01*
X136319463Y-78995506D01*
X136260498Y-79105820D01*
X136224188Y-79225518D01*
X136211928Y-79350000D01*
X123235057Y-79350000D01*
X125236003Y-77349055D01*
X125265001Y-77325257D01*
X125359974Y-77209532D01*
X125430546Y-77077503D01*
X125474003Y-76934242D01*
X125485000Y-76822589D01*
X125485000Y-76822580D01*
X125488676Y-76785257D01*
X125485000Y-76747934D01*
X125485000Y-75898061D01*
X137215000Y-75898061D01*
X137215000Y-76101939D01*
X137254774Y-76301898D01*
X137332795Y-76490256D01*
X137446063Y-76659774D01*
X137590226Y-76803937D01*
X137759744Y-76917205D01*
X137948102Y-76995226D01*
X138148061Y-77035000D01*
X138351939Y-77035000D01*
X138551898Y-76995226D01*
X138740256Y-76917205D01*
X138909774Y-76803937D01*
X138953711Y-76760000D01*
X142296289Y-76760000D01*
X142340226Y-76803937D01*
X142509744Y-76917205D01*
X142698102Y-76995226D01*
X142898061Y-77035000D01*
X143101939Y-77035000D01*
X143301898Y-76995226D01*
X143490256Y-76917205D01*
X143659774Y-76803937D01*
X143803937Y-76659774D01*
X143917205Y-76490256D01*
X143995226Y-76301898D01*
X144035000Y-76101939D01*
X144035000Y-75898061D01*
X143995226Y-75698102D01*
X143917205Y-75509744D01*
X143803937Y-75340226D01*
X143659774Y-75196063D01*
X143490256Y-75082795D01*
X143301898Y-75004774D01*
X143101939Y-74965000D01*
X142898061Y-74965000D01*
X142698102Y-75004774D01*
X142509744Y-75082795D01*
X142340226Y-75196063D01*
X142296289Y-75240000D01*
X138953711Y-75240000D01*
X138909774Y-75196063D01*
X138740256Y-75082795D01*
X138551898Y-75004774D01*
X138351939Y-74965000D01*
X138148061Y-74965000D01*
X137948102Y-75004774D01*
X137759744Y-75082795D01*
X137590226Y-75196063D01*
X137446063Y-75340226D01*
X137332795Y-75509744D01*
X137254774Y-75698102D01*
X137215000Y-75898061D01*
X125485000Y-75898061D01*
X125485000Y-73703711D01*
X125528937Y-73659774D01*
X125642205Y-73490256D01*
X125720226Y-73301898D01*
X125760000Y-73101939D01*
X125760000Y-72898061D01*
X125720226Y-72698102D01*
X125642205Y-72509744D01*
X125528937Y-72340226D01*
X125384774Y-72196063D01*
X125215256Y-72082795D01*
X125035000Y-72008130D01*
X125035000Y-71834930D01*
X124995226Y-71634971D01*
X124917205Y-71446613D01*
X124803937Y-71277095D01*
X124659774Y-71132932D01*
X124490256Y-71019664D01*
X124301898Y-70941643D01*
X124101939Y-70901869D01*
X123927130Y-70901869D01*
X123917852Y-70871285D01*
X123788072Y-70628484D01*
X123788072Y-70150000D01*
X123775812Y-70025518D01*
X123739502Y-69905820D01*
X123680537Y-69795506D01*
X123601185Y-69698815D01*
X123504494Y-69619463D01*
X123394180Y-69560498D01*
X123274482Y-69524188D01*
X123150000Y-69511928D01*
X121650000Y-69511928D01*
X121525518Y-69524188D01*
X121405820Y-69560498D01*
X121295506Y-69619463D01*
X121198815Y-69698815D01*
X121119463Y-69795506D01*
X121060498Y-69905820D01*
X121024188Y-70025518D01*
X121011928Y-70150000D01*
X121011928Y-70628485D01*
X120882148Y-70871286D01*
X120788657Y-71179485D01*
X120765000Y-71419679D01*
X120765001Y-72922761D01*
X119787085Y-73900677D01*
X119633970Y-74087248D01*
X119482148Y-74371286D01*
X119388658Y-74679484D01*
X119357089Y-75000000D01*
X119361989Y-75049751D01*
X119235000Y-74922762D01*
X119235000Y-71580322D01*
X119242911Y-71500000D01*
X119211343Y-71179484D01*
X119117852Y-70871285D01*
X118988072Y-70628484D01*
X118988072Y-70150000D01*
X118975812Y-70025518D01*
X118939502Y-69905820D01*
X118939237Y-69905325D01*
X118971515Y-69888072D01*
X119200000Y-69888072D01*
X119324482Y-69875812D01*
X119444180Y-69839502D01*
X119554494Y-69780537D01*
X119651185Y-69701185D01*
X119730537Y-69604494D01*
X119789502Y-69494180D01*
X119825812Y-69374482D01*
X119838072Y-69250000D01*
X119838072Y-67750000D01*
X119825812Y-67625518D01*
X119789502Y-67505820D01*
X119735000Y-67403856D01*
X119735000Y-66611407D01*
X119742911Y-66531088D01*
X119739850Y-66500000D01*
X124859509Y-66500000D01*
X124881423Y-66722498D01*
X124946324Y-66936446D01*
X125051717Y-67133622D01*
X125193552Y-67306448D01*
X125366378Y-67448283D01*
X125563554Y-67553676D01*
X125777502Y-67618577D01*
X126000000Y-67640491D01*
X126222498Y-67618577D01*
X126436446Y-67553676D01*
X126633622Y-67448283D01*
X126763143Y-67341988D01*
X128240000Y-65865131D01*
X128240001Y-70546288D01*
X128196063Y-70590226D01*
X128082795Y-70759744D01*
X128004774Y-70948102D01*
X127965000Y-71148061D01*
X127965000Y-71351939D01*
X128004774Y-71551898D01*
X128082795Y-71740256D01*
X128196063Y-71909774D01*
X128340226Y-72053937D01*
X128509744Y-72167205D01*
X128698102Y-72245226D01*
X128745372Y-72254628D01*
X128754774Y-72301898D01*
X128832795Y-72490256D01*
X128946063Y-72659774D01*
X129090226Y-72803937D01*
X129259744Y-72917205D01*
X129448102Y-72995226D01*
X129648061Y-73035000D01*
X129851939Y-73035000D01*
X130051898Y-72995226D01*
X130240256Y-72917205D01*
X130409774Y-72803937D01*
X130553937Y-72659774D01*
X130667205Y-72490256D01*
X130745226Y-72301898D01*
X130785000Y-72101939D01*
X130785000Y-71898061D01*
X130745226Y-71698102D01*
X130667205Y-71509744D01*
X130553937Y-71340226D01*
X130510000Y-71296289D01*
X130510000Y-63752100D01*
X134602134Y-63752100D01*
X134628935Y-64024217D01*
X134708309Y-64285877D01*
X134837205Y-64527024D01*
X135010669Y-64738391D01*
X135222036Y-64911855D01*
X135463183Y-65040751D01*
X135724843Y-65120125D01*
X135928771Y-65140210D01*
X137573909Y-65140210D01*
X137777837Y-65120125D01*
X138039497Y-65040751D01*
X138280644Y-64911855D01*
X138492011Y-64738391D01*
X138665475Y-64527024D01*
X138794371Y-64285877D01*
X138873745Y-64024217D01*
X138900546Y-63752100D01*
X138873745Y-63479983D01*
X138794371Y-63218323D01*
X138665475Y-62977176D01*
X138492011Y-62765809D01*
X138280644Y-62592345D01*
X138039497Y-62463449D01*
X137777837Y-62384075D01*
X137573909Y-62363990D01*
X135928771Y-62363990D01*
X135724843Y-62384075D01*
X135463183Y-62463449D01*
X135222036Y-62592345D01*
X135010669Y-62765809D01*
X134837205Y-62977176D01*
X134708309Y-63218323D01*
X134628935Y-63479983D01*
X134602134Y-63752100D01*
X130510000Y-63752100D01*
X130510000Y-63453711D01*
X130553937Y-63409774D01*
X130667205Y-63240256D01*
X130745226Y-63051898D01*
X130785000Y-62851939D01*
X130785000Y-62648061D01*
X130745226Y-62448102D01*
X130667205Y-62259744D01*
X130553937Y-62090226D01*
X130409774Y-61946063D01*
X130240256Y-61832795D01*
X130051898Y-61754774D01*
X129851939Y-61715000D01*
X129648061Y-61715000D01*
X129448102Y-61754774D01*
X129259744Y-61832795D01*
X129090226Y-61946063D01*
X128946063Y-62090226D01*
X128832795Y-62259744D01*
X128754774Y-62448102D01*
X128745372Y-62495372D01*
X128698102Y-62504774D01*
X128509744Y-62582795D01*
X128340226Y-62696063D01*
X128196063Y-62840226D01*
X128082795Y-63009744D01*
X128004774Y-63198102D01*
X127972122Y-63362255D01*
X127777500Y-63381423D01*
X127563553Y-63446325D01*
X127366377Y-63551717D01*
X127236856Y-63658012D01*
X125158012Y-65736857D01*
X125051717Y-65866378D01*
X124946324Y-66063554D01*
X124881423Y-66277502D01*
X124859509Y-66500000D01*
X119739850Y-66500000D01*
X119735000Y-66450766D01*
X119735000Y-65730319D01*
X119742911Y-65649999D01*
X119733864Y-65558143D01*
X119713072Y-65347039D01*
X119713072Y-64574999D01*
X119696008Y-64401745D01*
X119645472Y-64235149D01*
X119563405Y-64081613D01*
X119452962Y-63947038D01*
X119318387Y-63836595D01*
X119164851Y-63754528D01*
X118998255Y-63703992D01*
X118825001Y-63686928D01*
X118380000Y-63686928D01*
X118380000Y-62444248D01*
X118363577Y-62277501D01*
X118300572Y-62069803D01*
X118300572Y-62068750D01*
X118284301Y-61903543D01*
X118236112Y-61744685D01*
X118157857Y-61598281D01*
X118052544Y-61469956D01*
X117924219Y-61364643D01*
X117862500Y-61331653D01*
X117862500Y-61238072D01*
X119225000Y-61238072D01*
X119349482Y-61225812D01*
X119469180Y-61189502D01*
X119579494Y-61130537D01*
X119676185Y-61051185D01*
X119755537Y-60954494D01*
X119814502Y-60844180D01*
X119836513Y-60771620D01*
X119968368Y-60903475D01*
X120211589Y-61065990D01*
X120481842Y-61177932D01*
X120768740Y-61235000D01*
X121061260Y-61235000D01*
X121348158Y-61177932D01*
X121618411Y-61065990D01*
X121861632Y-60903475D01*
X122068475Y-60696632D01*
X122185000Y-60522240D01*
X122301525Y-60696632D01*
X122508368Y-60903475D01*
X122751589Y-61065990D01*
X123021842Y-61177932D01*
X123308740Y-61235000D01*
X123435199Y-61235000D01*
X123401498Y-61268701D01*
X123372500Y-61292499D01*
X123348702Y-61321497D01*
X123348701Y-61321498D01*
X123277526Y-61408224D01*
X123223626Y-61509062D01*
X123176058Y-61534488D01*
X123043377Y-61643377D01*
X123000000Y-61696232D01*
X122956623Y-61643377D01*
X122823942Y-61534488D01*
X122672567Y-61453577D01*
X122508316Y-61403752D01*
X122337500Y-61386928D01*
X121837500Y-61386928D01*
X121666684Y-61403752D01*
X121502433Y-61453577D01*
X121351058Y-61534488D01*
X121218377Y-61643377D01*
X121168213Y-61704502D01*
X121159774Y-61696063D01*
X120990256Y-61582795D01*
X120801898Y-61504774D01*
X120601939Y-61465000D01*
X120398061Y-61465000D01*
X120198102Y-61504774D01*
X120009744Y-61582795D01*
X119840226Y-61696063D01*
X119696063Y-61840226D01*
X119582795Y-62009744D01*
X119504774Y-62198102D01*
X119465000Y-62398061D01*
X119465000Y-62601939D01*
X119504774Y-62801898D01*
X119582795Y-62990256D01*
X119696063Y-63159774D01*
X119840226Y-63303937D01*
X120009744Y-63417205D01*
X120198102Y-63495226D01*
X120398061Y-63535000D01*
X120601939Y-63535000D01*
X120801898Y-63495226D01*
X120990256Y-63417205D01*
X121159774Y-63303937D01*
X121168213Y-63295498D01*
X121218377Y-63356623D01*
X121351058Y-63465512D01*
X121502433Y-63546423D01*
X121666684Y-63596248D01*
X121837500Y-63613072D01*
X122337500Y-63613072D01*
X122508316Y-63596248D01*
X122672567Y-63546423D01*
X122823942Y-63465512D01*
X122956623Y-63356623D01*
X123000000Y-63303768D01*
X123043377Y-63356623D01*
X123176058Y-63465512D01*
X123327433Y-63546423D01*
X123491684Y-63596248D01*
X123662500Y-63613072D01*
X124162500Y-63613072D01*
X124333316Y-63596248D01*
X124497567Y-63546423D01*
X124648942Y-63465512D01*
X124781623Y-63356623D01*
X124890512Y-63223942D01*
X124971423Y-63072567D01*
X125021248Y-62908316D01*
X125038072Y-62737500D01*
X125038072Y-62262500D01*
X125021248Y-62091684D01*
X124971423Y-61927433D01*
X124943886Y-61875915D01*
X125628592Y-61191210D01*
X125848740Y-61235000D01*
X126141260Y-61235000D01*
X126428158Y-61177932D01*
X126698411Y-61065990D01*
X126941632Y-60903475D01*
X127148475Y-60696632D01*
X127310990Y-60453411D01*
X127422932Y-60183158D01*
X127480000Y-59896260D01*
X127480000Y-59603740D01*
X127422932Y-59316842D01*
X127310990Y-59046589D01*
X127148475Y-58803368D01*
X126941632Y-58596525D01*
X126767240Y-58480000D01*
X126941632Y-58363475D01*
X127148475Y-58156632D01*
X127265000Y-57982240D01*
X127381525Y-58156632D01*
X127588368Y-58363475D01*
X127831589Y-58525990D01*
X128101842Y-58637932D01*
X128388740Y-58695000D01*
X128681260Y-58695000D01*
X128968158Y-58637932D01*
X129238411Y-58525990D01*
X129481632Y-58363475D01*
X129688475Y-58156632D01*
X129805000Y-57982240D01*
X129921525Y-58156632D01*
X130128368Y-58363475D01*
X130302760Y-58480000D01*
X130128368Y-58596525D01*
X129921525Y-58803368D01*
X129759010Y-59046589D01*
X129647068Y-59316842D01*
X129590000Y-59603740D01*
X129590000Y-59896260D01*
X129647068Y-60183158D01*
X129759010Y-60453411D01*
X129921525Y-60696632D01*
X130128368Y-60903475D01*
X130371589Y-61065990D01*
X130641842Y-61177932D01*
X130928740Y-61235000D01*
X131221260Y-61235000D01*
X131508158Y-61177932D01*
X131778411Y-61065990D01*
X132021632Y-60903475D01*
X132228475Y-60696632D01*
X132345000Y-60522240D01*
X132461525Y-60696632D01*
X132668368Y-60903475D01*
X132911589Y-61065990D01*
X133181842Y-61177932D01*
X133468740Y-61235000D01*
X133761260Y-61235000D01*
X134048158Y-61177932D01*
X134318411Y-61065990D01*
X134561632Y-60903475D01*
X134768475Y-60696632D01*
X134885000Y-60522240D01*
X135001525Y-60696632D01*
X135208368Y-60903475D01*
X135451589Y-61065990D01*
X135721842Y-61177932D01*
X136008740Y-61235000D01*
X136301260Y-61235000D01*
X136588158Y-61177932D01*
X136858411Y-61065990D01*
X137101632Y-60903475D01*
X137308475Y-60696632D01*
X137425000Y-60522240D01*
X137541525Y-60696632D01*
X137748368Y-60903475D01*
X137991589Y-61065990D01*
X138261842Y-61177932D01*
X138548740Y-61235000D01*
X138841260Y-61235000D01*
X139128158Y-61177932D01*
X139398411Y-61065990D01*
X139641632Y-60903475D01*
X139848475Y-60696632D01*
X139965000Y-60522240D01*
X140081525Y-60696632D01*
X140288368Y-60903475D01*
X140531589Y-61065990D01*
X140801842Y-61177932D01*
X141088740Y-61235000D01*
X141381260Y-61235000D01*
X141668158Y-61177932D01*
X141938411Y-61065990D01*
X142181632Y-60903475D01*
X142388475Y-60696632D01*
X142505000Y-60522240D01*
X142621525Y-60696632D01*
X142828368Y-60903475D01*
X143071589Y-61065990D01*
X143341842Y-61177932D01*
X143628740Y-61235000D01*
X143921260Y-61235000D01*
X144208158Y-61177932D01*
X144478411Y-61065990D01*
X144721632Y-60903475D01*
X144928475Y-60696632D01*
X145045000Y-60522240D01*
X145161525Y-60696632D01*
X145368368Y-60903475D01*
X145611589Y-61065990D01*
X145881842Y-61177932D01*
X146168740Y-61235000D01*
X146461260Y-61235000D01*
X146748158Y-61177932D01*
X147018411Y-61065990D01*
X147261632Y-60903475D01*
X147468475Y-60696632D01*
X147630990Y-60453411D01*
X147742932Y-60183158D01*
X147800000Y-59896260D01*
X147800000Y-59603740D01*
X147742932Y-59316842D01*
X147630990Y-59046589D01*
X147468475Y-58803368D01*
X147261632Y-58596525D01*
X147087240Y-58480000D01*
X147261632Y-58363475D01*
X147468475Y-58156632D01*
X147585000Y-57982240D01*
X147701525Y-58156632D01*
X147908368Y-58363475D01*
X148151589Y-58525990D01*
X148421842Y-58637932D01*
X148708740Y-58695000D01*
X149001260Y-58695000D01*
X149288158Y-58637932D01*
X149558411Y-58525990D01*
X149801632Y-58363475D01*
X150008475Y-58156632D01*
X150125000Y-57982240D01*
X150241525Y-58156632D01*
G04 #@! TA.AperFunction,Conductor*
D33*
G36*
X150241525Y-58156632D02*
G01*
X150448368Y-58363475D01*
X150622760Y-58480000D01*
X150448368Y-58596525D01*
X150241525Y-58803368D01*
X150079010Y-59046589D01*
X149967068Y-59316842D01*
X149910000Y-59603740D01*
X149910000Y-59896260D01*
X149967068Y-60183158D01*
X150079010Y-60453411D01*
X150241525Y-60696632D01*
X150448368Y-60903475D01*
X150691589Y-61065990D01*
X150961842Y-61177932D01*
X151248740Y-61235000D01*
X151541260Y-61235000D01*
X151828158Y-61177932D01*
X152098411Y-61065990D01*
X152341632Y-60903475D01*
X152548475Y-60696632D01*
X152665000Y-60522240D01*
X152781525Y-60696632D01*
X152988368Y-60903475D01*
X153231589Y-61065990D01*
X153501842Y-61177932D01*
X153788740Y-61235000D01*
X153915199Y-61235000D01*
X152158099Y-62992100D01*
X145170772Y-62992100D01*
X145162795Y-62977176D01*
X144989331Y-62765809D01*
X144777964Y-62592345D01*
X144536817Y-62463449D01*
X144275157Y-62384075D01*
X144071229Y-62363990D01*
X142426091Y-62363990D01*
X142222163Y-62384075D01*
X141960503Y-62463449D01*
X141719356Y-62592345D01*
X141507989Y-62765809D01*
X141334525Y-62977176D01*
X141205629Y-63218323D01*
X141126255Y-63479983D01*
X141099454Y-63752100D01*
X141126255Y-64024217D01*
X141205629Y-64285877D01*
X141334525Y-64527024D01*
X141507989Y-64738391D01*
X141719356Y-64911855D01*
X141960503Y-65040751D01*
X142222163Y-65120125D01*
X142426091Y-65140210D01*
X144071229Y-65140210D01*
X144275157Y-65120125D01*
X144536817Y-65040751D01*
X144777964Y-64911855D01*
X144989331Y-64738391D01*
X145162795Y-64527024D01*
X145170772Y-64512100D01*
X151492044Y-64512100D01*
X151465000Y-64648061D01*
X151465000Y-64851939D01*
X151504774Y-65051898D01*
X151582795Y-65240256D01*
X151696063Y-65409774D01*
X151840226Y-65553937D01*
X151946580Y-65625000D01*
X151840226Y-65696063D01*
X151696063Y-65840226D01*
X151582795Y-66009744D01*
X151504774Y-66198102D01*
X151465000Y-66398061D01*
X151465000Y-66460198D01*
X149400854Y-68524345D01*
X149259744Y-68582795D01*
X149090226Y-68696063D01*
X148946063Y-68840226D01*
X148832795Y-69009744D01*
X148760084Y-69185282D01*
X145785000Y-66210199D01*
X145785000Y-66148061D01*
X145745226Y-65948102D01*
X145667205Y-65759744D01*
X145553937Y-65590226D01*
X145409774Y-65446063D01*
X145240256Y-65332795D01*
X145051898Y-65254774D01*
X144851939Y-65215000D01*
X144648061Y-65215000D01*
X144448102Y-65254774D01*
X144259744Y-65332795D01*
X144090226Y-65446063D01*
X143946063Y-65590226D01*
X143832795Y-65759744D01*
X143754774Y-65948102D01*
X143715000Y-66148061D01*
X143715000Y-66162890D01*
X135114443Y-66162890D01*
X135077110Y-66159213D01*
X135039777Y-66162890D01*
X134928124Y-66173887D01*
X134784863Y-66217344D01*
X134652834Y-66287916D01*
X134537109Y-66382889D01*
X134513311Y-66411887D01*
X132710199Y-68215000D01*
X132648061Y-68215000D01*
X132448102Y-68254774D01*
X132259744Y-68332795D01*
X132090226Y-68446063D01*
X131946063Y-68590226D01*
X131832795Y-68759744D01*
X131754774Y-68948102D01*
X131715000Y-69148061D01*
X131715000Y-69351939D01*
X131754774Y-69551898D01*
X131832795Y-69740256D01*
X131946063Y-69909774D01*
X132090226Y-70053937D01*
X132259744Y-70167205D01*
X132448102Y-70245226D01*
X132648061Y-70285000D01*
X132851939Y-70285000D01*
X133051898Y-70245226D01*
X133240256Y-70167205D01*
X133409774Y-70053937D01*
X133553937Y-69909774D01*
X133667205Y-69740256D01*
X133745226Y-69551898D01*
X133785000Y-69351939D01*
X133785000Y-69289801D01*
X135391912Y-67682890D01*
X143887920Y-67682890D01*
X148237910Y-72032882D01*
X148215000Y-72148061D01*
X148215000Y-72351939D01*
X148254774Y-72551898D01*
X148332795Y-72740256D01*
X148446063Y-72909774D01*
X148517245Y-72980956D01*
X137258201Y-84240000D01*
X136703711Y-84240000D01*
X136659774Y-84196063D01*
X136490256Y-84082795D01*
X136301898Y-84004774D01*
X136101939Y-83965000D01*
X135898061Y-83965000D01*
X135698102Y-84004774D01*
X135509744Y-84082795D01*
X135340226Y-84196063D01*
X135196063Y-84340226D01*
X135082795Y-84509744D01*
X135004774Y-84698102D01*
X134965000Y-84898061D01*
X134965000Y-85101939D01*
X135004774Y-85301898D01*
X135082795Y-85490256D01*
X135196063Y-85659774D01*
X135340226Y-85803937D01*
X135509744Y-85917205D01*
X135698102Y-85995226D01*
X135898061Y-86035000D01*
X136101939Y-86035000D01*
X136301898Y-85995226D01*
X136490256Y-85917205D01*
X136659774Y-85803937D01*
X136703711Y-85760000D01*
X137535680Y-85760000D01*
X137573002Y-85763676D01*
X137610324Y-85760000D01*
X137610335Y-85760000D01*
X137721988Y-85749003D01*
X137865249Y-85705546D01*
X137997278Y-85634974D01*
X138113003Y-85540001D01*
X138136806Y-85510997D01*
X142490001Y-81157803D01*
X142490000Y-82296289D01*
X142446063Y-82340226D01*
X142332795Y-82509744D01*
X142254774Y-82698102D01*
X142215000Y-82898061D01*
X142215000Y-83101939D01*
X142254774Y-83301898D01*
X142332795Y-83490256D01*
X142446063Y-83659774D01*
X142590226Y-83803937D01*
X142759744Y-83917205D01*
X142948102Y-83995226D01*
X143148061Y-84035000D01*
X143351939Y-84035000D01*
X143551898Y-83995226D01*
X143740256Y-83917205D01*
X143909774Y-83803937D01*
X144053937Y-83659774D01*
X144167205Y-83490256D01*
X144245226Y-83301898D01*
X144285000Y-83101939D01*
X144285000Y-82898061D01*
X144245226Y-82698102D01*
X144167205Y-82509744D01*
X144053937Y-82340226D01*
X144010000Y-82296289D01*
X144010000Y-81003560D01*
X144051898Y-80995226D01*
X144240256Y-80917205D01*
X144409774Y-80803937D01*
X144553937Y-80659774D01*
X144667205Y-80490256D01*
X144745226Y-80301898D01*
X144785000Y-80101939D01*
X144785000Y-79898061D01*
X144745226Y-79698102D01*
X144667205Y-79509744D01*
X144553937Y-79340226D01*
X144430757Y-79217046D01*
X145031466Y-78616338D01*
X145082795Y-78740256D01*
X145196063Y-78909774D01*
X145240001Y-78953712D01*
X145240000Y-88546289D01*
X145196063Y-88590226D01*
X145082795Y-88759744D01*
X145004774Y-88948102D01*
X144965000Y-89148061D01*
X144965000Y-89351939D01*
X145004774Y-89551898D01*
X145082795Y-89740256D01*
X145196063Y-89909774D01*
X145340226Y-90053937D01*
X145509744Y-90167205D01*
X145698102Y-90245226D01*
X145898061Y-90285000D01*
X146101939Y-90285000D01*
X146301898Y-90245226D01*
X146490256Y-90167205D01*
X146659774Y-90053937D01*
X146703711Y-90010000D01*
X152962678Y-90010000D01*
X153000000Y-90013676D01*
X153037322Y-90010000D01*
X153037333Y-90010000D01*
X153148986Y-89999003D01*
X153292247Y-89955546D01*
X153424276Y-89884974D01*
X153540001Y-89790001D01*
X153563804Y-89760997D01*
X154289802Y-89035000D01*
X154351939Y-89035000D01*
X154551898Y-88995226D01*
X154740256Y-88917205D01*
X154909774Y-88803937D01*
X155053937Y-88659774D01*
X155167205Y-88490256D01*
X155245226Y-88301898D01*
X155285000Y-88101939D01*
X155285000Y-87898061D01*
X155245226Y-87698102D01*
X155167205Y-87509744D01*
X155053937Y-87340226D01*
X154909774Y-87196063D01*
X154740256Y-87082795D01*
X154551898Y-87004774D01*
X154351939Y-86965000D01*
X154148061Y-86965000D01*
X153948102Y-87004774D01*
X153759744Y-87082795D01*
X153590226Y-87196063D01*
X153446063Y-87340226D01*
X153332795Y-87509744D01*
X153254774Y-87698102D01*
X153215000Y-87898061D01*
X153215000Y-87960198D01*
X152685199Y-88490000D01*
X146760000Y-88490000D01*
X146760000Y-78953711D01*
X146800770Y-78912941D01*
X146832795Y-78990256D01*
X146946063Y-79159774D01*
X147090226Y-79303937D01*
X147259744Y-79417205D01*
X147448102Y-79495226D01*
X147648061Y-79535000D01*
X147851939Y-79535000D01*
X148051898Y-79495226D01*
X148240256Y-79417205D01*
X148409774Y-79303937D01*
X148453711Y-79260000D01*
X152240000Y-79260000D01*
X152240001Y-82935197D01*
X152210198Y-82965000D01*
X152148061Y-82965000D01*
X151948102Y-83004774D01*
X151759744Y-83082795D01*
X151590226Y-83196063D01*
X151446063Y-83340226D01*
X151332795Y-83509744D01*
X151254774Y-83698102D01*
X151215000Y-83898061D01*
X151215000Y-84101939D01*
X151254774Y-84301898D01*
X151332795Y-84490256D01*
X151446063Y-84659774D01*
X151590226Y-84803937D01*
X151759744Y-84917205D01*
X151948102Y-84995226D01*
X152148061Y-85035000D01*
X152351939Y-85035000D01*
X152551898Y-84995226D01*
X152740256Y-84917205D01*
X152909774Y-84803937D01*
X153053937Y-84659774D01*
X153167205Y-84490256D01*
X153245226Y-84301898D01*
X153285000Y-84101939D01*
X153285000Y-84039802D01*
X153511002Y-83813799D01*
X153540001Y-83790001D01*
X153634974Y-83674276D01*
X153705546Y-83542247D01*
X153749003Y-83398986D01*
X153760000Y-83287333D01*
X153760000Y-83287324D01*
X153763676Y-83250001D01*
X153760000Y-83212678D01*
X153760000Y-79260000D01*
X157185199Y-79260000D01*
X158215000Y-80289802D01*
X158215000Y-80351939D01*
X158254774Y-80551898D01*
X158332795Y-80740256D01*
X158446063Y-80909774D01*
X158590226Y-81053937D01*
X158759744Y-81167205D01*
X158948102Y-81245226D01*
X159148061Y-81285000D01*
X159351939Y-81285000D01*
X159551898Y-81245226D01*
X159740256Y-81167205D01*
X159909774Y-81053937D01*
X160053937Y-80909774D01*
X160167205Y-80740256D01*
X160245226Y-80551898D01*
X160285000Y-80351939D01*
X160285000Y-80148061D01*
X160245226Y-79948102D01*
X160167205Y-79759744D01*
X160053937Y-79590226D01*
X159909774Y-79446063D01*
X159740256Y-79332795D01*
X159551898Y-79254774D01*
X159351939Y-79215000D01*
X159289802Y-79215000D01*
X158063804Y-77989003D01*
X158040001Y-77959999D01*
X157924276Y-77865026D01*
X157792247Y-77794454D01*
X157648986Y-77750997D01*
X157537333Y-77740000D01*
X157537322Y-77740000D01*
X157500000Y-77736324D01*
X157462678Y-77740000D01*
X153037333Y-77740000D01*
X153000000Y-77736323D01*
X152962667Y-77740000D01*
X148453711Y-77740000D01*
X148409774Y-77696063D01*
X148240256Y-77582795D01*
X148051898Y-77504774D01*
X147851939Y-77465000D01*
X147648061Y-77465000D01*
X147448102Y-77504774D01*
X147259744Y-77582795D01*
X147090226Y-77696063D01*
X146949230Y-77837059D01*
X146917205Y-77759744D01*
X146803937Y-77590226D01*
X146659774Y-77446063D01*
X146490256Y-77332795D01*
X146366338Y-77281466D01*
X150511003Y-73136801D01*
X150540001Y-73113003D01*
X150588475Y-73053937D01*
X150634974Y-72997279D01*
X150705546Y-72865249D01*
X150724144Y-72803937D01*
X150749003Y-72721988D01*
X150760000Y-72610335D01*
X150760000Y-72610326D01*
X150763676Y-72573003D01*
X150760000Y-72535680D01*
X150760000Y-70814801D01*
X155242693Y-66332110D01*
X155294003Y-66290001D01*
X155317806Y-66260997D01*
X160648508Y-60930296D01*
X160720000Y-60978065D01*
X160720001Y-67099130D01*
X156243225Y-71575907D01*
X156098102Y-71604774D01*
X155909744Y-71682795D01*
X155740226Y-71796063D01*
X155596063Y-71940226D01*
X155482795Y-72109744D01*
X155404774Y-72298102D01*
X155365000Y-72498061D01*
X155365000Y-72701939D01*
X155404774Y-72901898D01*
X155482795Y-73090256D01*
X155596063Y-73259774D01*
X155740226Y-73403937D01*
X155909744Y-73517205D01*
X156098102Y-73595226D01*
X156298061Y-73635000D01*
X156501939Y-73635000D01*
X156701898Y-73595226D01*
X156890256Y-73517205D01*
X157059774Y-73403937D01*
X157203937Y-73259774D01*
X157317205Y-73090256D01*
X157395226Y-72901898D01*
X157424093Y-72756775D01*
X160818629Y-69362240D01*
X160633970Y-69587248D01*
X160482149Y-69871285D01*
X160388658Y-70179484D01*
X160365001Y-70419678D01*
X160365000Y-75580321D01*
X160365001Y-75580331D01*
X160365000Y-88717598D01*
X160351939Y-88715000D01*
X160289802Y-88715000D01*
X158760000Y-87185199D01*
X158760000Y-83953711D01*
X158803937Y-83909774D01*
X158917205Y-83740256D01*
X158995226Y-83551898D01*
X159035000Y-83351939D01*
X159035000Y-83148061D01*
X158995226Y-82948102D01*
X158917205Y-82759744D01*
X158803937Y-82590226D01*
X158659774Y-82446063D01*
X158490256Y-82332795D01*
X158301898Y-82254774D01*
X158101939Y-82215000D01*
X157898061Y-82215000D01*
X157698102Y-82254774D01*
X157509744Y-82332795D01*
X157340226Y-82446063D01*
X157196063Y-82590226D01*
X157082795Y-82759744D01*
X157004774Y-82948102D01*
X156965000Y-83148061D01*
X156965000Y-83351939D01*
X157004774Y-83551898D01*
X157082795Y-83740256D01*
X157196063Y-83909774D01*
X157240000Y-83953711D01*
X157240001Y-87462668D01*
X157236324Y-87500000D01*
X157240001Y-87537333D01*
X157250998Y-87648986D01*
X157264180Y-87692442D01*
X157294454Y-87792246D01*
X157365026Y-87924276D01*
X157412521Y-87982148D01*
X157460000Y-88040001D01*
X157488998Y-88063799D01*
X159215000Y-89789802D01*
X159215000Y-89851939D01*
X159254774Y-90051898D01*
X159332795Y-90240256D01*
X159416146Y-90365000D01*
X127177239Y-90365000D01*
X122599323Y-85787085D01*
X122412752Y-85633970D01*
X122128714Y-85482148D01*
X121820516Y-85388658D01*
X121500000Y-85357089D01*
X121179484Y-85388658D01*
X120871286Y-85482148D01*
X120587248Y-85633970D01*
X120338287Y-85838287D01*
X120133970Y-86087248D01*
X119982148Y-86371286D01*
X119888658Y-86679484D01*
X119857089Y-87000000D01*
X119888658Y-87320516D01*
X119982148Y-87628714D01*
X120133970Y-87912752D01*
X120287085Y-88099323D01*
X125287080Y-93099319D01*
X125338286Y-93161714D01*
X125403215Y-93215000D01*
X124761489Y-93215000D01*
X124662752Y-93133969D01*
X124378715Y-92982148D01*
X124070516Y-92888657D01*
X123830322Y-92865000D01*
X123830319Y-92865000D01*
X123750000Y-92857089D01*
X123669681Y-92865000D01*
X115653089Y-92865000D01*
X112934990Y-90146903D01*
X112934990Y-88918345D01*
X113083889Y-88963513D01*
X113302050Y-88985000D01*
X113697950Y-88985000D01*
X113916111Y-88963513D01*
X114196034Y-88878599D01*
X114454014Y-88740706D01*
X114680134Y-88555134D01*
X114865706Y-88329014D01*
X115003599Y-88071034D01*
X115088513Y-87791111D01*
X115117185Y-87500000D01*
X115114304Y-87470753D01*
X123235057Y-79350000D01*
X136211928Y-79350000D01*
X136211928Y-80650000D01*
X136224188Y-80774482D01*
X136260498Y-80894180D01*
X136319463Y-81004494D01*
X136398815Y-81101185D01*
X136495506Y-81180537D01*
X136605820Y-81239502D01*
X136725518Y-81275812D01*
X136850000Y-81288072D01*
X138150000Y-81288072D01*
X138274482Y-81275812D01*
X138394180Y-81239502D01*
X138504494Y-81180537D01*
X138601185Y-81101185D01*
X138680537Y-81004494D01*
X138739502Y-80894180D01*
X138775812Y-80774482D01*
X138788072Y-80650000D01*
X138788072Y-80015000D01*
X138896561Y-80015000D01*
X139144821Y-79965619D01*
X139378676Y-79868753D01*
X139589140Y-79728125D01*
X139768125Y-79549140D01*
X139908753Y-79338676D01*
X140005619Y-79104821D01*
X140055000Y-78856561D01*
X140055000Y-78603439D01*
X140005619Y-78355179D01*
X139908753Y-78121324D01*
X139768125Y-77910860D01*
X139589140Y-77731875D01*
X139378676Y-77591247D01*
X139144821Y-77494381D01*
X138896561Y-77445000D01*
X138643439Y-77445000D01*
X138395179Y-77494381D01*
X138161324Y-77591247D01*
X137950860Y-77731875D01*
X137771875Y-77910860D01*
X137631247Y-78121324D01*
X137534381Y-78355179D01*
X137485000Y-78603439D01*
X137485000Y-78711928D01*
X136850000Y-78711928D01*
X136725518Y-78724188D01*
X136605820Y-78760498D01*
X136495506Y-78819463D01*
X136398815Y-78898815D01*
X136319463Y-78995506D01*
X136260498Y-79105820D01*
X136224188Y-79225518D01*
X136211928Y-79350000D01*
X123235057Y-79350000D01*
X125236003Y-77349055D01*
X125265001Y-77325257D01*
X125359974Y-77209532D01*
X125430546Y-77077503D01*
X125474003Y-76934242D01*
X125485000Y-76822589D01*
X125485000Y-76822580D01*
X125488676Y-76785257D01*
X125485000Y-76747934D01*
X125485000Y-75898061D01*
X137215000Y-75898061D01*
X137215000Y-76101939D01*
X137254774Y-76301898D01*
X137332795Y-76490256D01*
X137446063Y-76659774D01*
X137590226Y-76803937D01*
X137759744Y-76917205D01*
X137948102Y-76995226D01*
X138148061Y-77035000D01*
X138351939Y-77035000D01*
X138551898Y-76995226D01*
X138740256Y-76917205D01*
X138909774Y-76803937D01*
X138953711Y-76760000D01*
X142296289Y-76760000D01*
X142340226Y-76803937D01*
X142509744Y-76917205D01*
X142698102Y-76995226D01*
X142898061Y-77035000D01*
X143101939Y-77035000D01*
X143301898Y-76995226D01*
X143490256Y-76917205D01*
X143659774Y-76803937D01*
X143803937Y-76659774D01*
X143917205Y-76490256D01*
X143995226Y-76301898D01*
X144035000Y-76101939D01*
X144035000Y-75898061D01*
X143995226Y-75698102D01*
X143917205Y-75509744D01*
X143803937Y-75340226D01*
X143659774Y-75196063D01*
X143490256Y-75082795D01*
X143301898Y-75004774D01*
X143101939Y-74965000D01*
X142898061Y-74965000D01*
X142698102Y-75004774D01*
X142509744Y-75082795D01*
X142340226Y-75196063D01*
X142296289Y-75240000D01*
X138953711Y-75240000D01*
X138909774Y-75196063D01*
X138740256Y-75082795D01*
X138551898Y-75004774D01*
X138351939Y-74965000D01*
X138148061Y-74965000D01*
X137948102Y-75004774D01*
X137759744Y-75082795D01*
X137590226Y-75196063D01*
X137446063Y-75340226D01*
X137332795Y-75509744D01*
X137254774Y-75698102D01*
X137215000Y-75898061D01*
X125485000Y-75898061D01*
X125485000Y-73703711D01*
X125528937Y-73659774D01*
X125642205Y-73490256D01*
X125720226Y-73301898D01*
X125760000Y-73101939D01*
X125760000Y-72898061D01*
X125720226Y-72698102D01*
X125642205Y-72509744D01*
X125528937Y-72340226D01*
X125384774Y-72196063D01*
X125215256Y-72082795D01*
X125035000Y-72008130D01*
X125035000Y-71834930D01*
X124995226Y-71634971D01*
X124917205Y-71446613D01*
X124803937Y-71277095D01*
X124659774Y-71132932D01*
X124490256Y-71019664D01*
X124301898Y-70941643D01*
X124101939Y-70901869D01*
X123927130Y-70901869D01*
X123917852Y-70871285D01*
X123788072Y-70628484D01*
X123788072Y-70150000D01*
X123775812Y-70025518D01*
X123739502Y-69905820D01*
X123680537Y-69795506D01*
X123601185Y-69698815D01*
X123504494Y-69619463D01*
X123394180Y-69560498D01*
X123274482Y-69524188D01*
X123150000Y-69511928D01*
X121650000Y-69511928D01*
X121525518Y-69524188D01*
X121405820Y-69560498D01*
X121295506Y-69619463D01*
X121198815Y-69698815D01*
X121119463Y-69795506D01*
X121060498Y-69905820D01*
X121024188Y-70025518D01*
X121011928Y-70150000D01*
X121011928Y-70628485D01*
X120882148Y-70871286D01*
X120788657Y-71179485D01*
X120765000Y-71419679D01*
X120765001Y-72922761D01*
X119787085Y-73900677D01*
X119633970Y-74087248D01*
X119482148Y-74371286D01*
X119388658Y-74679484D01*
X119357089Y-75000000D01*
X119361989Y-75049751D01*
X119235000Y-74922762D01*
X119235000Y-71580322D01*
X119242911Y-71500000D01*
X119211343Y-71179484D01*
X119117852Y-70871285D01*
X118988072Y-70628484D01*
X118988072Y-70150000D01*
X118975812Y-70025518D01*
X118939502Y-69905820D01*
X118939237Y-69905325D01*
X118971515Y-69888072D01*
X119200000Y-69888072D01*
X119324482Y-69875812D01*
X119444180Y-69839502D01*
X119554494Y-69780537D01*
X119651185Y-69701185D01*
X119730537Y-69604494D01*
X119789502Y-69494180D01*
X119825812Y-69374482D01*
X119838072Y-69250000D01*
X119838072Y-67750000D01*
X119825812Y-67625518D01*
X119789502Y-67505820D01*
X119735000Y-67403856D01*
X119735000Y-66611407D01*
X119742911Y-66531088D01*
X119739850Y-66500000D01*
X124859509Y-66500000D01*
X124881423Y-66722498D01*
X124946324Y-66936446D01*
X125051717Y-67133622D01*
X125193552Y-67306448D01*
X125366378Y-67448283D01*
X125563554Y-67553676D01*
X125777502Y-67618577D01*
X126000000Y-67640491D01*
X126222498Y-67618577D01*
X126436446Y-67553676D01*
X126633622Y-67448283D01*
X126763143Y-67341988D01*
X128240000Y-65865131D01*
X128240001Y-70546288D01*
X128196063Y-70590226D01*
X128082795Y-70759744D01*
X128004774Y-70948102D01*
X127965000Y-71148061D01*
X127965000Y-71351939D01*
X128004774Y-71551898D01*
X128082795Y-71740256D01*
X128196063Y-71909774D01*
X128340226Y-72053937D01*
X128509744Y-72167205D01*
X128698102Y-72245226D01*
X128745372Y-72254628D01*
X128754774Y-72301898D01*
X128832795Y-72490256D01*
X128946063Y-72659774D01*
X129090226Y-72803937D01*
X129259744Y-72917205D01*
X129448102Y-72995226D01*
X129648061Y-73035000D01*
X129851939Y-73035000D01*
X130051898Y-72995226D01*
X130240256Y-72917205D01*
X130409774Y-72803937D01*
X130553937Y-72659774D01*
X130667205Y-72490256D01*
X130745226Y-72301898D01*
X130785000Y-72101939D01*
X130785000Y-71898061D01*
X130745226Y-71698102D01*
X130667205Y-71509744D01*
X130553937Y-71340226D01*
X130510000Y-71296289D01*
X130510000Y-63752100D01*
X134602134Y-63752100D01*
X134628935Y-64024217D01*
X134708309Y-64285877D01*
X134837205Y-64527024D01*
X135010669Y-64738391D01*
X135222036Y-64911855D01*
X135463183Y-65040751D01*
X135724843Y-65120125D01*
X135928771Y-65140210D01*
X137573909Y-65140210D01*
X137777837Y-65120125D01*
X138039497Y-65040751D01*
X138280644Y-64911855D01*
X138492011Y-64738391D01*
X138665475Y-64527024D01*
X138794371Y-64285877D01*
X138873745Y-64024217D01*
X138900546Y-63752100D01*
X138873745Y-63479983D01*
X138794371Y-63218323D01*
X138665475Y-62977176D01*
X138492011Y-62765809D01*
X138280644Y-62592345D01*
X138039497Y-62463449D01*
X137777837Y-62384075D01*
X137573909Y-62363990D01*
X135928771Y-62363990D01*
X135724843Y-62384075D01*
X135463183Y-62463449D01*
X135222036Y-62592345D01*
X135010669Y-62765809D01*
X134837205Y-62977176D01*
X134708309Y-63218323D01*
X134628935Y-63479983D01*
X134602134Y-63752100D01*
X130510000Y-63752100D01*
X130510000Y-63453711D01*
X130553937Y-63409774D01*
X130667205Y-63240256D01*
X130745226Y-63051898D01*
X130785000Y-62851939D01*
X130785000Y-62648061D01*
X130745226Y-62448102D01*
X130667205Y-62259744D01*
X130553937Y-62090226D01*
X130409774Y-61946063D01*
X130240256Y-61832795D01*
X130051898Y-61754774D01*
X129851939Y-61715000D01*
X129648061Y-61715000D01*
X129448102Y-61754774D01*
X129259744Y-61832795D01*
X129090226Y-61946063D01*
X128946063Y-62090226D01*
X128832795Y-62259744D01*
X128754774Y-62448102D01*
X128745372Y-62495372D01*
X128698102Y-62504774D01*
X128509744Y-62582795D01*
X128340226Y-62696063D01*
X128196063Y-62840226D01*
X128082795Y-63009744D01*
X128004774Y-63198102D01*
X127972122Y-63362255D01*
X127777500Y-63381423D01*
X127563553Y-63446325D01*
X127366377Y-63551717D01*
X127236856Y-63658012D01*
X125158012Y-65736857D01*
X125051717Y-65866378D01*
X124946324Y-66063554D01*
X124881423Y-66277502D01*
X124859509Y-66500000D01*
X119739850Y-66500000D01*
X119735000Y-66450766D01*
X119735000Y-65730319D01*
X119742911Y-65649999D01*
X119733864Y-65558143D01*
X119713072Y-65347039D01*
X119713072Y-64574999D01*
X119696008Y-64401745D01*
X119645472Y-64235149D01*
X119563405Y-64081613D01*
X119452962Y-63947038D01*
X119318387Y-63836595D01*
X119164851Y-63754528D01*
X118998255Y-63703992D01*
X118825001Y-63686928D01*
X118380000Y-63686928D01*
X118380000Y-62444248D01*
X118363577Y-62277501D01*
X118300572Y-62069803D01*
X118300572Y-62068750D01*
X118284301Y-61903543D01*
X118236112Y-61744685D01*
X118157857Y-61598281D01*
X118052544Y-61469956D01*
X117924219Y-61364643D01*
X117862500Y-61331653D01*
X117862500Y-61238072D01*
X119225000Y-61238072D01*
X119349482Y-61225812D01*
X119469180Y-61189502D01*
X119579494Y-61130537D01*
X119676185Y-61051185D01*
X119755537Y-60954494D01*
X119814502Y-60844180D01*
X119836513Y-60771620D01*
X119968368Y-60903475D01*
X120211589Y-61065990D01*
X120481842Y-61177932D01*
X120768740Y-61235000D01*
X121061260Y-61235000D01*
X121348158Y-61177932D01*
X121618411Y-61065990D01*
X121861632Y-60903475D01*
X122068475Y-60696632D01*
X122185000Y-60522240D01*
X122301525Y-60696632D01*
X122508368Y-60903475D01*
X122751589Y-61065990D01*
X123021842Y-61177932D01*
X123308740Y-61235000D01*
X123435199Y-61235000D01*
X123401498Y-61268701D01*
X123372500Y-61292499D01*
X123348702Y-61321497D01*
X123348701Y-61321498D01*
X123277526Y-61408224D01*
X123223626Y-61509062D01*
X123176058Y-61534488D01*
X123043377Y-61643377D01*
X123000000Y-61696232D01*
X122956623Y-61643377D01*
X122823942Y-61534488D01*
X122672567Y-61453577D01*
X122508316Y-61403752D01*
X122337500Y-61386928D01*
X121837500Y-61386928D01*
X121666684Y-61403752D01*
X121502433Y-61453577D01*
X121351058Y-61534488D01*
X121218377Y-61643377D01*
X121168213Y-61704502D01*
X121159774Y-61696063D01*
X120990256Y-61582795D01*
X120801898Y-61504774D01*
X120601939Y-61465000D01*
X120398061Y-61465000D01*
X120198102Y-61504774D01*
X120009744Y-61582795D01*
X119840226Y-61696063D01*
X119696063Y-61840226D01*
X119582795Y-62009744D01*
X119504774Y-62198102D01*
X119465000Y-62398061D01*
X119465000Y-62601939D01*
X119504774Y-62801898D01*
X119582795Y-62990256D01*
X119696063Y-63159774D01*
X119840226Y-63303937D01*
X120009744Y-63417205D01*
X120198102Y-63495226D01*
X120398061Y-63535000D01*
X120601939Y-63535000D01*
X120801898Y-63495226D01*
X120990256Y-63417205D01*
X121159774Y-63303937D01*
X121168213Y-63295498D01*
X121218377Y-63356623D01*
X121351058Y-63465512D01*
X121502433Y-63546423D01*
X121666684Y-63596248D01*
X121837500Y-63613072D01*
X122337500Y-63613072D01*
X122508316Y-63596248D01*
X122672567Y-63546423D01*
X122823942Y-63465512D01*
X122956623Y-63356623D01*
X123000000Y-63303768D01*
X123043377Y-63356623D01*
X123176058Y-63465512D01*
X123327433Y-63546423D01*
X123491684Y-63596248D01*
X123662500Y-63613072D01*
X124162500Y-63613072D01*
X124333316Y-63596248D01*
X124497567Y-63546423D01*
X124648942Y-63465512D01*
X124781623Y-63356623D01*
X124890512Y-63223942D01*
X124971423Y-63072567D01*
X125021248Y-62908316D01*
X125038072Y-62737500D01*
X125038072Y-62262500D01*
X125021248Y-62091684D01*
X124971423Y-61927433D01*
X124943886Y-61875915D01*
X125628592Y-61191210D01*
X125848740Y-61235000D01*
X126141260Y-61235000D01*
X126428158Y-61177932D01*
X126698411Y-61065990D01*
X126941632Y-60903475D01*
X127148475Y-60696632D01*
X127310990Y-60453411D01*
X127422932Y-60183158D01*
X127480000Y-59896260D01*
X127480000Y-59603740D01*
X127422932Y-59316842D01*
X127310990Y-59046589D01*
X127148475Y-58803368D01*
X126941632Y-58596525D01*
X126767240Y-58480000D01*
X126941632Y-58363475D01*
X127148475Y-58156632D01*
X127265000Y-57982240D01*
X127381525Y-58156632D01*
X127588368Y-58363475D01*
X127831589Y-58525990D01*
X128101842Y-58637932D01*
X128388740Y-58695000D01*
X128681260Y-58695000D01*
X128968158Y-58637932D01*
X129238411Y-58525990D01*
X129481632Y-58363475D01*
X129688475Y-58156632D01*
X129805000Y-57982240D01*
X129921525Y-58156632D01*
X130128368Y-58363475D01*
X130302760Y-58480000D01*
X130128368Y-58596525D01*
X129921525Y-58803368D01*
X129759010Y-59046589D01*
X129647068Y-59316842D01*
X129590000Y-59603740D01*
X129590000Y-59896260D01*
X129647068Y-60183158D01*
X129759010Y-60453411D01*
X129921525Y-60696632D01*
X130128368Y-60903475D01*
X130371589Y-61065990D01*
X130641842Y-61177932D01*
X130928740Y-61235000D01*
X131221260Y-61235000D01*
X131508158Y-61177932D01*
X131778411Y-61065990D01*
X132021632Y-60903475D01*
X132228475Y-60696632D01*
X132345000Y-60522240D01*
X132461525Y-60696632D01*
X132668368Y-60903475D01*
X132911589Y-61065990D01*
X133181842Y-61177932D01*
X133468740Y-61235000D01*
X133761260Y-61235000D01*
X134048158Y-61177932D01*
X134318411Y-61065990D01*
X134561632Y-60903475D01*
X134768475Y-60696632D01*
X134885000Y-60522240D01*
X135001525Y-60696632D01*
X135208368Y-60903475D01*
X135451589Y-61065990D01*
X135721842Y-61177932D01*
X136008740Y-61235000D01*
X136301260Y-61235000D01*
X136588158Y-61177932D01*
X136858411Y-61065990D01*
X137101632Y-60903475D01*
X137308475Y-60696632D01*
X137425000Y-60522240D01*
X137541525Y-60696632D01*
X137748368Y-60903475D01*
X137991589Y-61065990D01*
X138261842Y-61177932D01*
X138548740Y-61235000D01*
X138841260Y-61235000D01*
X139128158Y-61177932D01*
X139398411Y-61065990D01*
X139641632Y-60903475D01*
X139848475Y-60696632D01*
X139965000Y-60522240D01*
X140081525Y-60696632D01*
X140288368Y-60903475D01*
X140531589Y-61065990D01*
X140801842Y-61177932D01*
X141088740Y-61235000D01*
X141381260Y-61235000D01*
X141668158Y-61177932D01*
X141938411Y-61065990D01*
X142181632Y-60903475D01*
X142388475Y-60696632D01*
X142505000Y-60522240D01*
X142621525Y-60696632D01*
X142828368Y-60903475D01*
X143071589Y-61065990D01*
X143341842Y-61177932D01*
X143628740Y-61235000D01*
X143921260Y-61235000D01*
X144208158Y-61177932D01*
X144478411Y-61065990D01*
X144721632Y-60903475D01*
X144928475Y-60696632D01*
X145045000Y-60522240D01*
X145161525Y-60696632D01*
X145368368Y-60903475D01*
X145611589Y-61065990D01*
X145881842Y-61177932D01*
X146168740Y-61235000D01*
X146461260Y-61235000D01*
X146748158Y-61177932D01*
X147018411Y-61065990D01*
X147261632Y-60903475D01*
X147468475Y-60696632D01*
X147630990Y-60453411D01*
X147742932Y-60183158D01*
X147800000Y-59896260D01*
X147800000Y-59603740D01*
X147742932Y-59316842D01*
X147630990Y-59046589D01*
X147468475Y-58803368D01*
X147261632Y-58596525D01*
X147087240Y-58480000D01*
X147261632Y-58363475D01*
X147468475Y-58156632D01*
X147585000Y-57982240D01*
X147701525Y-58156632D01*
X147908368Y-58363475D01*
X148151589Y-58525990D01*
X148421842Y-58637932D01*
X148708740Y-58695000D01*
X149001260Y-58695000D01*
X149288158Y-58637932D01*
X149558411Y-58525990D01*
X149801632Y-58363475D01*
X150008475Y-58156632D01*
X150125000Y-57982240D01*
X150241525Y-58156632D01*
G37*
G04 #@! TD.AperFunction*
D32*
X110909536Y-60625939D02*
X111374061Y-61090464D01*
X111920285Y-61455439D01*
X112527216Y-61706838D01*
X113171531Y-61835000D01*
X113828469Y-61835000D01*
X114472784Y-61706838D01*
X115079715Y-61455439D01*
X115625939Y-61090464D01*
X115792500Y-60923903D01*
X115792500Y-62031672D01*
X115787494Y-62082500D01*
X115792500Y-62133328D01*
X115792500Y-62133337D01*
X115807476Y-62285394D01*
X115837242Y-62383517D01*
X115649234Y-62365000D01*
X115649231Y-62365000D01*
X115568912Y-62357089D01*
X115488593Y-62365000D01*
X115419678Y-62365000D01*
X115179484Y-62388657D01*
X114871285Y-62482148D01*
X114587248Y-62633969D01*
X114527636Y-62682891D01*
X114425120Y-62529465D01*
X114230535Y-62334880D01*
X114001727Y-62181995D01*
X113747490Y-62076686D01*
X113477592Y-62023000D01*
X113202408Y-62023000D01*
X112932510Y-62076686D01*
X112678273Y-62181995D01*
X112449465Y-62334880D01*
X112254880Y-62529465D01*
X112101995Y-62758273D01*
X111996686Y-63012510D01*
X111943000Y-63282408D01*
X111943000Y-63557592D01*
X111996686Y-63827490D01*
X112101995Y-64081727D01*
X112254880Y-64310535D01*
X112449465Y-64505120D01*
X112513466Y-64547884D01*
X112427248Y-64593969D01*
X112178286Y-64798286D01*
X111973969Y-65047248D01*
X111822148Y-65331285D01*
X111728657Y-65639484D01*
X111697089Y-65960000D01*
X111728657Y-66280516D01*
X111822148Y-66588715D01*
X111973969Y-66872752D01*
X112178286Y-67121714D01*
X112427248Y-67326031D01*
X112711285Y-67477852D01*
X113019484Y-67571343D01*
X113259678Y-67595000D01*
X113740392Y-67595000D01*
X114164999Y-68019608D01*
X114165000Y-69646133D01*
X114102000Y-69639928D01*
X112578000Y-69639928D01*
X112453518Y-69652188D01*
X112333820Y-69688498D01*
X112223506Y-69747463D01*
X112126815Y-69826815D01*
X112047463Y-69923506D01*
X111988498Y-70033820D01*
X111952188Y-70153518D01*
X111939928Y-70278000D01*
X111939928Y-71802000D01*
X111952188Y-71926482D01*
X111988498Y-72046180D01*
X112047463Y-72156494D01*
X112126815Y-72253185D01*
X112223506Y-72332537D01*
X112333820Y-72391502D01*
X112453518Y-72427812D01*
X112578000Y-72440072D01*
X114102000Y-72440072D01*
X114226482Y-72427812D01*
X114346180Y-72391502D01*
X114456494Y-72332537D01*
X114553185Y-72253185D01*
X114632537Y-72156494D01*
X114691502Y-72046180D01*
X114727812Y-71926482D01*
X114740072Y-71802000D01*
X114740072Y-71462312D01*
X115877077Y-72599318D01*
X115928284Y-72661714D01*
X115965000Y-72691846D01*
X115965001Y-75519671D01*
X115957089Y-75600000D01*
X115988658Y-75920516D01*
X116082148Y-76228714D01*
X116200199Y-76449571D01*
X116233970Y-76512752D01*
X116438287Y-76761714D01*
X116500682Y-76812920D01*
X119400676Y-79712915D01*
X119587247Y-79866030D01*
X119812574Y-79986470D01*
X115559045Y-84240000D01*
X115097313Y-84240000D01*
X115096008Y-84226746D01*
X115045472Y-84060150D01*
X114963405Y-83906614D01*
X114852962Y-83772038D01*
X114718386Y-83661595D01*
X114564850Y-83579528D01*
X114398254Y-83528992D01*
X114225000Y-83511928D01*
X112934990Y-83511928D01*
X112934990Y-77877248D01*
X113177239Y-77635000D01*
X113580322Y-77635000D01*
X113820516Y-77611343D01*
X114128715Y-77517852D01*
X114184429Y-77488072D01*
X114250000Y-77488072D01*
X114423254Y-77471008D01*
X114589850Y-77420472D01*
X114743386Y-77338405D01*
X114877962Y-77227962D01*
X114988405Y-77093386D01*
X115070472Y-76939850D01*
X115121008Y-76773254D01*
X115138072Y-76600000D01*
X115138072Y-76049131D01*
X115142911Y-76000000D01*
X115138072Y-75950869D01*
X115138072Y-75400000D01*
X115121008Y-75226746D01*
X115070472Y-75060150D01*
X114988405Y-74906614D01*
X114877962Y-74772038D01*
X114743386Y-74661595D01*
X114589850Y-74579528D01*
X114423254Y-74528992D01*
X114250000Y-74511928D01*
X114184429Y-74511928D01*
X114128715Y-74482148D01*
X113820516Y-74388657D01*
X113580322Y-74365000D01*
X112580319Y-74365000D01*
X112499999Y-74357089D01*
X112419680Y-74365000D01*
X112419678Y-74365000D01*
X112179484Y-74388657D01*
X111871285Y-74482148D01*
X111587248Y-74633969D01*
X111338286Y-74838286D01*
X111287079Y-74900682D01*
X110660000Y-75527762D01*
X110660000Y-60252482D01*
X110909536Y-60625939D01*
G04 #@! TA.AperFunction,Conductor*
D33*
G36*
X110909536Y-60625939D02*
G01*
X111374061Y-61090464D01*
X111920285Y-61455439D01*
X112527216Y-61706838D01*
X113171531Y-61835000D01*
X113828469Y-61835000D01*
X114472784Y-61706838D01*
X115079715Y-61455439D01*
X115625939Y-61090464D01*
X115792500Y-60923903D01*
X115792500Y-62031672D01*
X115787494Y-62082500D01*
X115792500Y-62133328D01*
X115792500Y-62133337D01*
X115807476Y-62285394D01*
X115837242Y-62383517D01*
X115649234Y-62365000D01*
X115649231Y-62365000D01*
X115568912Y-62357089D01*
X115488593Y-62365000D01*
X115419678Y-62365000D01*
X115179484Y-62388657D01*
X114871285Y-62482148D01*
X114587248Y-62633969D01*
X114527636Y-62682891D01*
X114425120Y-62529465D01*
X114230535Y-62334880D01*
X114001727Y-62181995D01*
X113747490Y-62076686D01*
X113477592Y-62023000D01*
X113202408Y-62023000D01*
X112932510Y-62076686D01*
X112678273Y-62181995D01*
X112449465Y-62334880D01*
X112254880Y-62529465D01*
X112101995Y-62758273D01*
X111996686Y-63012510D01*
X111943000Y-63282408D01*
X111943000Y-63557592D01*
X111996686Y-63827490D01*
X112101995Y-64081727D01*
X112254880Y-64310535D01*
X112449465Y-64505120D01*
X112513466Y-64547884D01*
X112427248Y-64593969D01*
X112178286Y-64798286D01*
X111973969Y-65047248D01*
X111822148Y-65331285D01*
X111728657Y-65639484D01*
X111697089Y-65960000D01*
X111728657Y-66280516D01*
X111822148Y-66588715D01*
X111973969Y-66872752D01*
X112178286Y-67121714D01*
X112427248Y-67326031D01*
X112711285Y-67477852D01*
X113019484Y-67571343D01*
X113259678Y-67595000D01*
X113740392Y-67595000D01*
X114164999Y-68019608D01*
X114165000Y-69646133D01*
X114102000Y-69639928D01*
X112578000Y-69639928D01*
X112453518Y-69652188D01*
X112333820Y-69688498D01*
X112223506Y-69747463D01*
X112126815Y-69826815D01*
X112047463Y-69923506D01*
X111988498Y-70033820D01*
X111952188Y-70153518D01*
X111939928Y-70278000D01*
X111939928Y-71802000D01*
X111952188Y-71926482D01*
X111988498Y-72046180D01*
X112047463Y-72156494D01*
X112126815Y-72253185D01*
X112223506Y-72332537D01*
X112333820Y-72391502D01*
X112453518Y-72427812D01*
X112578000Y-72440072D01*
X114102000Y-72440072D01*
X114226482Y-72427812D01*
X114346180Y-72391502D01*
X114456494Y-72332537D01*
X114553185Y-72253185D01*
X114632537Y-72156494D01*
X114691502Y-72046180D01*
X114727812Y-71926482D01*
X114740072Y-71802000D01*
X114740072Y-71462312D01*
X115877077Y-72599318D01*
X115928284Y-72661714D01*
X115965000Y-72691846D01*
X115965001Y-75519671D01*
X115957089Y-75600000D01*
X115988658Y-75920516D01*
X116082148Y-76228714D01*
X116200199Y-76449571D01*
X116233970Y-76512752D01*
X116438287Y-76761714D01*
X116500682Y-76812920D01*
X119400676Y-79712915D01*
X119587247Y-79866030D01*
X119812574Y-79986470D01*
X115559045Y-84240000D01*
X115097313Y-84240000D01*
X115096008Y-84226746D01*
X115045472Y-84060150D01*
X114963405Y-83906614D01*
X114852962Y-83772038D01*
X114718386Y-83661595D01*
X114564850Y-83579528D01*
X114398254Y-83528992D01*
X114225000Y-83511928D01*
X112934990Y-83511928D01*
X112934990Y-77877248D01*
X113177239Y-77635000D01*
X113580322Y-77635000D01*
X113820516Y-77611343D01*
X114128715Y-77517852D01*
X114184429Y-77488072D01*
X114250000Y-77488072D01*
X114423254Y-77471008D01*
X114589850Y-77420472D01*
X114743386Y-77338405D01*
X114877962Y-77227962D01*
X114988405Y-77093386D01*
X115070472Y-76939850D01*
X115121008Y-76773254D01*
X115138072Y-76600000D01*
X115138072Y-76049131D01*
X115142911Y-76000000D01*
X115138072Y-75950869D01*
X115138072Y-75400000D01*
X115121008Y-75226746D01*
X115070472Y-75060150D01*
X114988405Y-74906614D01*
X114877962Y-74772038D01*
X114743386Y-74661595D01*
X114589850Y-74579528D01*
X114423254Y-74528992D01*
X114250000Y-74511928D01*
X114184429Y-74511928D01*
X114128715Y-74482148D01*
X113820516Y-74388657D01*
X113580322Y-74365000D01*
X112580319Y-74365000D01*
X112499999Y-74357089D01*
X112419680Y-74365000D01*
X112419678Y-74365000D01*
X112179484Y-74388657D01*
X111871285Y-74482148D01*
X111587248Y-74633969D01*
X111338286Y-74838286D01*
X111287079Y-74900682D01*
X110660000Y-75527762D01*
X110660000Y-60252482D01*
X110909536Y-60625939D01*
G37*
G04 #@! TD.AperFunction*
M02*
