G04 #@! TF.GenerationSoftware,KiCad,Pcbnew,5.1.10-88a1d61d58~88~ubuntu20.04.1*
G04 #@! TF.CreationDate,2021-09-15T20:12:52+01:00*
G04 #@! TF.ProjectId,ogsolar,6f67736f-6c61-4722-9e6b-696361645f70,1.5*
G04 #@! TF.SameCoordinates,Original*
G04 #@! TF.FileFunction,Legend,Bot*
G04 #@! TF.FilePolarity,Positive*
%FSLAX46Y46*%
G04 Gerber Fmt 4.6, Leading zero omitted, Abs format (unit mm)*
G04 Created by KiCad (PCBNEW 5.1.10-88a1d61d58~88~ubuntu20.04.1) date 2021-09-15 20:12:52*
%MOMM*%
%LPD*%
G01*
G04 APERTURE LIST*
%ADD10C,0.120000*%
%ADD11C,0.150000*%
G04 APERTURE END LIST*
D10*
X116565000Y-63790000D02*
X123500000Y-63790000D01*
X116565000Y-67210000D02*
X116565000Y-63790000D01*
X123500000Y-67210000D02*
X116565000Y-67210000D01*
X117770531Y-63120000D02*
X117974469Y-63120000D01*
X117770531Y-61880000D02*
X117974469Y-61880000D01*
X116820000Y-67570000D02*
X120650000Y-67570000D01*
X116820000Y-69430000D02*
X116820000Y-67570000D01*
X120650000Y-69430000D02*
X116820000Y-69430000D01*
X123254724Y-63022500D02*
X122745276Y-63022500D01*
X123254724Y-61977500D02*
X122745276Y-61977500D01*
X122400000Y-73000000D02*
X116700000Y-73000000D01*
X116700000Y-73000000D02*
X116700000Y-70000000D01*
X116700000Y-70000000D02*
X122400000Y-70000000D01*
D11*
X125166666Y-65857142D02*
X125214285Y-65904761D01*
X125357142Y-65952380D01*
X125452380Y-65952380D01*
X125595238Y-65904761D01*
X125690476Y-65809523D01*
X125738095Y-65714285D01*
X125785714Y-65523809D01*
X125785714Y-65380952D01*
X125738095Y-65190476D01*
X125690476Y-65095238D01*
X125595238Y-65000000D01*
X125452380Y-64952380D01*
X125357142Y-64952380D01*
X125214285Y-65000000D01*
X125166666Y-65047619D01*
X124833333Y-64952380D02*
X124166666Y-64952380D01*
X124595238Y-65952380D01*
X120039166Y-62857142D02*
X120086785Y-62904761D01*
X120229642Y-62952380D01*
X120324880Y-62952380D01*
X120467738Y-62904761D01*
X120562976Y-62809523D01*
X120610595Y-62714285D01*
X120658214Y-62523809D01*
X120658214Y-62380952D01*
X120610595Y-62190476D01*
X120562976Y-62095238D01*
X120467738Y-62000000D01*
X120324880Y-61952380D01*
X120229642Y-61952380D01*
X120086785Y-62000000D01*
X120039166Y-62047619D01*
X119467738Y-62380952D02*
X119562976Y-62333333D01*
X119610595Y-62285714D01*
X119658214Y-62190476D01*
X119658214Y-62142857D01*
X119610595Y-62047619D01*
X119562976Y-62000000D01*
X119467738Y-61952380D01*
X119277261Y-61952380D01*
X119182023Y-62000000D01*
X119134404Y-62047619D01*
X119086785Y-62142857D01*
X119086785Y-62190476D01*
X119134404Y-62285714D01*
X119182023Y-62333333D01*
X119277261Y-62380952D01*
X119467738Y-62380952D01*
X119562976Y-62428571D01*
X119610595Y-62476190D01*
X119658214Y-62571428D01*
X119658214Y-62761904D01*
X119610595Y-62857142D01*
X119562976Y-62904761D01*
X119467738Y-62952380D01*
X119277261Y-62952380D01*
X119182023Y-62904761D01*
X119134404Y-62857142D01*
X119086785Y-62761904D01*
X119086785Y-62571428D01*
X119134404Y-62476190D01*
X119182023Y-62428571D01*
X119277261Y-62380952D01*
X124238095Y-68952380D02*
X124238095Y-67952380D01*
X124000000Y-67952380D01*
X123857142Y-68000000D01*
X123761904Y-68095238D01*
X123714285Y-68190476D01*
X123666666Y-68380952D01*
X123666666Y-68523809D01*
X123714285Y-68714285D01*
X123761904Y-68809523D01*
X123857142Y-68904761D01*
X124000000Y-68952380D01*
X124238095Y-68952380D01*
X123333333Y-67952380D02*
X122714285Y-67952380D01*
X123047619Y-68333333D01*
X122904761Y-68333333D01*
X122809523Y-68380952D01*
X122761904Y-68428571D01*
X122714285Y-68523809D01*
X122714285Y-68761904D01*
X122761904Y-68857142D01*
X122809523Y-68904761D01*
X122904761Y-68952380D01*
X123190476Y-68952380D01*
X123285714Y-68904761D01*
X123333333Y-68857142D01*
X126166666Y-62952380D02*
X126500000Y-62476190D01*
X126738095Y-62952380D02*
X126738095Y-61952380D01*
X126357142Y-61952380D01*
X126261904Y-62000000D01*
X126214285Y-62047619D01*
X126166666Y-62142857D01*
X126166666Y-62285714D01*
X126214285Y-62380952D01*
X126261904Y-62428571D01*
X126357142Y-62476190D01*
X126738095Y-62476190D01*
X125261904Y-61952380D02*
X125738095Y-61952380D01*
X125785714Y-62428571D01*
X125738095Y-62380952D01*
X125642857Y-62333333D01*
X125404761Y-62333333D01*
X125309523Y-62380952D01*
X125261904Y-62428571D01*
X125214285Y-62523809D01*
X125214285Y-62761904D01*
X125261904Y-62857142D01*
X125309523Y-62904761D01*
X125404761Y-62952380D01*
X125642857Y-62952380D01*
X125738095Y-62904761D01*
X125785714Y-62857142D01*
X125238095Y-71952380D02*
X125238095Y-70952380D01*
X125000000Y-70952380D01*
X124857142Y-71000000D01*
X124761904Y-71095238D01*
X124714285Y-71190476D01*
X124666666Y-71380952D01*
X124666666Y-71523809D01*
X124714285Y-71714285D01*
X124761904Y-71809523D01*
X124857142Y-71904761D01*
X125000000Y-71952380D01*
X125238095Y-71952380D01*
X123714285Y-71952380D02*
X124285714Y-71952380D01*
X124000000Y-71952380D02*
X124000000Y-70952380D01*
X124095238Y-71095238D01*
X124190476Y-71190476D01*
X124285714Y-71238095D01*
M02*
