M48
; DRILL file {KiCad 5.1.10-88a1d61d58~88~ubuntu20.04.1} date Wed Sep 15 20:12:56 2021
; FORMAT={-:-/ absolute / inch / decimal}
; #@! TF.CreationDate,2021-09-15T20:12:56+01:00
; #@! TF.GenerationSoftware,Kicad,Pcbnew,5.1.10-88a1d61d58~88~ubuntu20.04.1
; #@! TF.FileFunction,Plated,1,2,PTH
FMAT,2
INCH
T1C0.0157
T2C0.0197
T3C0.0295
T4C0.0300
T5C0.0374
T6C0.0393
T7C0.0394
T8C0.0591
T9C0.1063
T10C0.1260
%
G90
G05
T1
X4.5472Y-2.5197
X4.7441Y-2.4606
X4.7441Y-3.0906
X4.7638Y-2.9528
X4.7835Y-3.4252
X4.872Y-3.7205
X4.8819Y-2.8322
X4.9104Y-2.874
X4.9606Y-2.6181
X4.9764Y-3.2598
X4.9961Y-2.9488
X5.0394Y-2.5394
X5.0787Y-2.5
X5.0787Y-2.8051
X5.1083Y-2.4705
X5.1083Y-2.8346
X5.1398Y-3.624
X5.2165Y-3.4055
X5.2264Y-2.7264
X5.3543Y-3.3465
X5.4429Y-2.9921
X5.5236Y-4.0728
X5.6299Y-2.9921
X5.6398Y-3.2677
X5.6398Y-3.5433
X5.6594Y-3.1496
X5.6988Y-2.6083
X5.748Y-3.0807
X5.748Y-3.5138
X5.748Y-4.0157
X5.8169Y-3.0906
X5.8563Y-2.7657
X5.876Y-2.8445
X5.8957Y-2.7362
X5.9941Y-3.3071
X6.0039Y-2.5492
X6.0039Y-2.6181
X6.0728Y-3.4646
X6.1575Y-2.8583
X6.1654Y-3.7343
X6.2205Y-3.2776
X6.2697Y-3.1594
X6.3091Y-3.5335
X6.378Y-2.7756
X6.378Y-2.9724
X6.378Y-3.5236
X6.5453Y-3.4547
X6.6732Y-3.3465
T2
X4.6102Y-4.1142
X4.6379Y-4.0474
X4.6379Y-4.181
X4.7047Y-4.0197
X4.7047Y-4.2087
X4.7715Y-4.0474
X4.7715Y-4.181
X4.7992Y-4.1142
X4.9055Y-4.1142
X4.9332Y-4.0474
X4.9332Y-4.181
X5.0Y-4.0197
X5.0Y-4.2087
X5.0668Y-4.0474
X5.0668Y-4.181
X5.0945Y-4.1142
X5.8701Y-4.1142
X5.8978Y-4.0474
X5.8978Y-4.181
X5.9646Y-4.0197
X5.9646Y-4.2087
X6.0314Y-4.0474
X6.0314Y-4.181
X6.0591Y-4.1142
X6.1654Y-4.1142
X6.193Y-4.0474
X6.193Y-4.181
X6.2598Y-4.0197
X6.2598Y-4.2087
X6.3267Y-4.0474
X6.3267Y-4.181
X6.3543Y-4.1142
T3
X5.4134Y-3.1496
X5.4634Y-3.0996
X5.5134Y-3.1496
X5.5315Y-4.2717
X5.5815Y-4.2217
X5.6315Y-4.2717
T4
X4.4622Y-2.4969
X4.4622Y-2.5969
X4.4622Y-2.6969
X4.4622Y-2.7969
T5
X4.4685Y-3.3465
X4.4685Y-3.4449
X4.4685Y-3.5433
T6
X5.3839Y-2.5099
X5.3839Y-2.6869
X5.6397Y-2.5099
X5.6397Y-2.6869
T7
X4.4685Y-2.9921
X4.4685Y-3.0906
X4.6604Y-2.2524
X4.6604Y-2.3524
X4.7604Y-2.2524
X4.7604Y-2.3524
X4.8604Y-2.2524
X4.8604Y-2.3524
X4.9604Y-2.2524
X4.9604Y-2.3524
X5.0604Y-2.2524
X5.0604Y-2.3524
X5.1604Y-2.2524
X5.1604Y-2.3524
X5.2604Y-2.2524
X5.2604Y-2.3524
X5.3604Y-2.2524
X5.3604Y-2.3524
X5.4604Y-2.2524
X5.4604Y-2.3524
X5.5604Y-2.2524
X5.5604Y-2.3524
X5.6604Y-2.2524
X5.6604Y-2.3524
X5.7604Y-2.2524
X5.7604Y-2.3524
X5.8604Y-2.2524
X5.8604Y-2.3524
X5.9604Y-2.2524
X5.9604Y-2.3524
X6.0604Y-2.2524
X6.0604Y-2.3524
X6.1604Y-2.2524
X6.1604Y-2.3524
X6.2604Y-2.2524
X6.2604Y-2.3524
X6.3604Y-2.2524
X6.3604Y-2.3524
X6.4604Y-2.2524
X6.4604Y-2.3524
X6.5604Y-2.2524
X6.5604Y-2.3524
X6.7717Y-2.5394
X6.7717Y-2.6378
X6.7717Y-2.8937
X6.7717Y-2.9921
T8
X4.748Y-4.2717
X4.9626Y-4.2717
X5.1772Y-4.2717
X6.0472Y-4.2717
X6.2618Y-4.2717
X6.4764Y-4.2717
T9
X4.4685Y-2.3031
X4.4685Y-4.2323
X6.752Y-2.3031
X6.752Y-4.2323
T10
X4.7047Y-4.1142
X5.0Y-4.1142
X5.9646Y-4.1142
X6.2598Y-4.1142
T0
M30
