G04 #@! TF.GenerationSoftware,KiCad,Pcbnew,5.1.10-88a1d61d58~88~ubuntu20.04.1*
G04 #@! TF.CreationDate,2021-09-15T20:12:52+01:00*
G04 #@! TF.ProjectId,ogsolar,6f67736f-6c61-4722-9e6b-696361645f70,1.5*
G04 #@! TF.SameCoordinates,Original*
G04 #@! TF.FileFunction,Soldermask,Top*
G04 #@! TF.FilePolarity,Negative*
%FSLAX46Y46*%
G04 Gerber Fmt 4.6, Leading zero omitted, Abs format (unit mm)*
G04 Created by KiCad (PCBNEW 5.1.10-88a1d61d58~88~ubuntu20.04.1) date 2021-09-15 20:12:52*
%MOMM*%
%LPD*%
G01*
G04 APERTURE LIST*
%ADD10C,1.300000*%
%ADD11R,1.300000X1.300000*%
%ADD12C,5.400000*%
%ADD13R,1.500000X2.200000*%
%ADD14O,2.000000X1.700000*%
%ADD15O,1.950000X1.700000*%
%ADD16R,2.006600X1.498600*%
%ADD17R,1.930400X3.810000*%
%ADD18R,1.700000X1.700000*%
%ADD19O,1.700000X1.700000*%
%ADD20R,1.524000X1.524000*%
%ADD21C,1.524000*%
%ADD22R,2.200000X1.500000*%
%ADD23R,2.700000X1.500000*%
%ADD24R,0.800000X0.900000*%
%ADD25O,2.500000X3.500000*%
%ADD26R,2.500000X3.500000*%
%ADD27R,0.900000X0.800000*%
%ADD28O,3.014980X1.506220*%
%ADD29C,0.800000*%
%ADD30C,6.400000*%
G04 APERTURE END LIST*
D10*
X141770000Y-107230000D03*
X143040000Y-108500000D03*
D11*
X140500000Y-108500000D03*
D12*
X113500000Y-107500000D03*
X171500000Y-107500000D03*
X171500000Y-58500000D03*
X113500000Y-58500000D03*
G36*
G01*
X118425000Y-89225001D02*
X118425000Y-87374999D01*
G75*
G02*
X118674999Y-87125000I249999J0D01*
G01*
X120425001Y-87125000D01*
G75*
G02*
X120675000Y-87374999I0J-249999D01*
G01*
X120675000Y-89225001D01*
G75*
G02*
X120425001Y-89475000I-249999J0D01*
G01*
X118674999Y-89475000D01*
G75*
G02*
X118425000Y-89225001I0J249999D01*
G01*
G37*
G36*
G01*
X123525000Y-89225001D02*
X123525000Y-87374999D01*
G75*
G02*
X123774999Y-87125000I249999J0D01*
G01*
X125525001Y-87125000D01*
G75*
G02*
X125775000Y-87374999I0J-249999D01*
G01*
X125775000Y-89225001D01*
G75*
G02*
X125525001Y-89475000I-249999J0D01*
G01*
X123774999Y-89475000D01*
G75*
G02*
X123525000Y-89225001I0J249999D01*
G01*
G37*
G36*
G01*
X125574999Y-78625000D02*
X127425001Y-78625000D01*
G75*
G02*
X127675000Y-78874999I0J-249999D01*
G01*
X127675000Y-80625001D01*
G75*
G02*
X127425001Y-80875000I-249999J0D01*
G01*
X125574999Y-80875000D01*
G75*
G02*
X125325000Y-80625001I0J249999D01*
G01*
X125325000Y-78874999D01*
G75*
G02*
X125574999Y-78625000I249999J0D01*
G01*
G37*
G36*
G01*
X125574999Y-83725000D02*
X127425001Y-83725000D01*
G75*
G02*
X127675000Y-83974999I0J-249999D01*
G01*
X127675000Y-85725001D01*
G75*
G02*
X127425001Y-85975000I-249999J0D01*
G01*
X125574999Y-85975000D01*
G75*
G02*
X125325000Y-85725001I0J249999D01*
G01*
X125325000Y-83974999D01*
G75*
G02*
X125574999Y-83725000I249999J0D01*
G01*
G37*
D13*
X117000000Y-85500000D03*
X117000000Y-88400000D03*
G36*
G01*
X123750000Y-73574999D02*
X123750000Y-76425001D01*
G75*
G02*
X123500001Y-76675000I-249999J0D01*
G01*
X122474999Y-76675000D01*
G75*
G02*
X122225000Y-76425001I0J249999D01*
G01*
X122225000Y-73574999D01*
G75*
G02*
X122474999Y-73325000I249999J0D01*
G01*
X123500001Y-73325000D01*
G75*
G02*
X123750000Y-73574999I0J-249999D01*
G01*
G37*
G36*
G01*
X117775000Y-73574999D02*
X117775000Y-76425001D01*
G75*
G02*
X117525001Y-76675000I-249999J0D01*
G01*
X116499999Y-76675000D01*
G75*
G02*
X116250000Y-76425001I0J249999D01*
G01*
X116250000Y-73574999D01*
G75*
G02*
X116499999Y-73325000I249999J0D01*
G01*
X117525001Y-73325000D01*
G75*
G02*
X117775000Y-73574999I0J-249999D01*
G01*
G37*
G36*
G01*
X112750000Y-75150000D02*
X114250000Y-75150000D01*
G75*
G02*
X114500000Y-75400000I0J-250000D01*
G01*
X114500000Y-76600000D01*
G75*
G02*
X114250000Y-76850000I-250000J0D01*
G01*
X112750000Y-76850000D01*
G75*
G02*
X112500000Y-76600000I0J250000D01*
G01*
X112500000Y-75400000D01*
G75*
G02*
X112750000Y-75150000I250000J0D01*
G01*
G37*
D14*
X113500000Y-78500000D03*
G36*
G01*
X112775000Y-84150000D02*
X114225000Y-84150000D01*
G75*
G02*
X114475000Y-84400000I0J-250000D01*
G01*
X114475000Y-85600000D01*
G75*
G02*
X114225000Y-85850000I-250000J0D01*
G01*
X112775000Y-85850000D01*
G75*
G02*
X112525000Y-85600000I0J250000D01*
G01*
X112525000Y-84400000D01*
G75*
G02*
X112775000Y-84150000I250000J0D01*
G01*
G37*
D15*
X113500000Y-87500000D03*
X113500000Y-90000000D03*
G36*
G01*
X127700000Y-77262500D02*
X127700000Y-77737500D01*
G75*
G02*
X127462500Y-77975000I-237500J0D01*
G01*
X126962500Y-77975000D01*
G75*
G02*
X126725000Y-77737500I0J237500D01*
G01*
X126725000Y-77262500D01*
G75*
G02*
X126962500Y-77025000I237500J0D01*
G01*
X127462500Y-77025000D01*
G75*
G02*
X127700000Y-77262500I0J-237500D01*
G01*
G37*
G36*
G01*
X125875000Y-77262500D02*
X125875000Y-77737500D01*
G75*
G02*
X125637500Y-77975000I-237500J0D01*
G01*
X125137500Y-77975000D01*
G75*
G02*
X124900000Y-77737500I0J237500D01*
G01*
X124900000Y-77262500D01*
G75*
G02*
X125137500Y-77025000I237500J0D01*
G01*
X125637500Y-77025000D01*
G75*
G02*
X125875000Y-77262500I0J-237500D01*
G01*
G37*
D16*
X123233420Y-82798700D03*
X123233420Y-80500000D03*
X123233420Y-78201300D03*
D17*
X116825000Y-80500000D03*
D18*
X118375000Y-59750000D03*
D19*
X118375000Y-57210000D03*
X120915000Y-59750000D03*
X120915000Y-57210000D03*
X123455000Y-59750000D03*
X123455000Y-57210000D03*
X125995000Y-59750000D03*
X125995000Y-57210000D03*
X128535000Y-59750000D03*
X128535000Y-57210000D03*
X131075000Y-59750000D03*
X131075000Y-57210000D03*
X133615000Y-59750000D03*
X133615000Y-57210000D03*
X136155000Y-59750000D03*
X136155000Y-57210000D03*
X138695000Y-59750000D03*
X138695000Y-57210000D03*
X141235000Y-59750000D03*
X141235000Y-57210000D03*
X143775000Y-59750000D03*
X143775000Y-57210000D03*
X146315000Y-59750000D03*
X146315000Y-57210000D03*
X148855000Y-59750000D03*
X148855000Y-57210000D03*
X151395000Y-59750000D03*
X151395000Y-57210000D03*
X153935000Y-59750000D03*
X153935000Y-57210000D03*
X156475000Y-59750000D03*
X156475000Y-57210000D03*
X159015000Y-59750000D03*
X159015000Y-57210000D03*
X161555000Y-59750000D03*
X161555000Y-57210000D03*
X164095000Y-59750000D03*
X164095000Y-57210000D03*
X166635000Y-59750000D03*
X166635000Y-57210000D03*
D20*
X113340000Y-71040000D03*
D21*
X113340000Y-68500000D03*
X113340000Y-65960000D03*
X113340000Y-63420000D03*
G36*
G01*
X129387500Y-73799998D02*
X129387500Y-76000002D01*
G75*
G02*
X129137502Y-76250000I-249998J0D01*
G01*
X128312498Y-76250000D01*
G75*
G02*
X128062500Y-76000002I0J249998D01*
G01*
X128062500Y-73799998D01*
G75*
G02*
X128312498Y-73550000I249998J0D01*
G01*
X129137502Y-73550000D01*
G75*
G02*
X129387500Y-73799998I0J-249998D01*
G01*
G37*
G36*
G01*
X126262500Y-73799998D02*
X126262500Y-76000002D01*
G75*
G02*
X126012502Y-76250000I-249998J0D01*
G01*
X125187498Y-76250000D01*
G75*
G02*
X124937500Y-76000002I0J249998D01*
G01*
X124937500Y-73799998D01*
G75*
G02*
X125187498Y-73550000I249998J0D01*
G01*
X126012502Y-73550000D01*
G75*
G02*
X126262500Y-73799998I0J-249998D01*
G01*
G37*
G36*
G01*
X138350000Y-75237500D02*
X138350000Y-74762500D01*
G75*
G02*
X138587500Y-74525000I237500J0D01*
G01*
X139187500Y-74525000D01*
G75*
G02*
X139425000Y-74762500I0J-237500D01*
G01*
X139425000Y-75237500D01*
G75*
G02*
X139187500Y-75475000I-237500J0D01*
G01*
X138587500Y-75475000D01*
G75*
G02*
X138350000Y-75237500I0J237500D01*
G01*
G37*
G36*
G01*
X140075000Y-75237500D02*
X140075000Y-74762500D01*
G75*
G02*
X140312500Y-74525000I237500J0D01*
G01*
X140912500Y-74525000D01*
G75*
G02*
X141150000Y-74762500I0J-237500D01*
G01*
X141150000Y-75237500D01*
G75*
G02*
X140912500Y-75475000I-237500J0D01*
G01*
X140312500Y-75475000D01*
G75*
G02*
X140075000Y-75237500I0J237500D01*
G01*
G37*
G36*
G01*
X155762500Y-84737500D02*
X156237500Y-84737500D01*
G75*
G02*
X156475000Y-84975000I0J-237500D01*
G01*
X156475000Y-85575000D01*
G75*
G02*
X156237500Y-85812500I-237500J0D01*
G01*
X155762500Y-85812500D01*
G75*
G02*
X155525000Y-85575000I0J237500D01*
G01*
X155525000Y-84975000D01*
G75*
G02*
X155762500Y-84737500I237500J0D01*
G01*
G37*
G36*
G01*
X155762500Y-86462500D02*
X156237500Y-86462500D01*
G75*
G02*
X156475000Y-86700000I0J-237500D01*
G01*
X156475000Y-87300000D01*
G75*
G02*
X156237500Y-87537500I-237500J0D01*
G01*
X155762500Y-87537500D01*
G75*
G02*
X155525000Y-87300000I0J237500D01*
G01*
X155525000Y-86700000D01*
G75*
G02*
X155762500Y-86462500I237500J0D01*
G01*
G37*
G36*
G01*
X168825000Y-83987500D02*
X168825000Y-83512500D01*
G75*
G02*
X169062500Y-83275000I237500J0D01*
G01*
X169662500Y-83275000D01*
G75*
G02*
X169900000Y-83512500I0J-237500D01*
G01*
X169900000Y-83987500D01*
G75*
G02*
X169662500Y-84225000I-237500J0D01*
G01*
X169062500Y-84225000D01*
G75*
G02*
X168825000Y-83987500I0J237500D01*
G01*
G37*
G36*
G01*
X167100000Y-83987500D02*
X167100000Y-83512500D01*
G75*
G02*
X167337500Y-83275000I237500J0D01*
G01*
X167937500Y-83275000D01*
G75*
G02*
X168175000Y-83512500I0J-237500D01*
G01*
X168175000Y-83987500D01*
G75*
G02*
X167937500Y-84225000I-237500J0D01*
G01*
X167337500Y-84225000D01*
G75*
G02*
X167100000Y-83987500I0J237500D01*
G01*
G37*
D22*
X140000000Y-73000000D03*
X137100000Y-73000000D03*
D13*
X158250000Y-85800000D03*
X158250000Y-88700000D03*
X152250000Y-85800000D03*
X152250000Y-88700000D03*
G36*
G01*
X146800000Y-66875000D02*
X146800000Y-65625000D01*
G75*
G02*
X147050000Y-65375000I250000J0D01*
G01*
X147975000Y-65375000D01*
G75*
G02*
X148225000Y-65625000I0J-250000D01*
G01*
X148225000Y-66875000D01*
G75*
G02*
X147975000Y-67125000I-250000J0D01*
G01*
X147050000Y-67125000D01*
G75*
G02*
X146800000Y-66875000I0J250000D01*
G01*
G37*
G36*
G01*
X149775000Y-66875000D02*
X149775000Y-65625000D01*
G75*
G02*
X150025000Y-65375000I250000J0D01*
G01*
X150950000Y-65375000D01*
G75*
G02*
X151200000Y-65625000I0J-250000D01*
G01*
X151200000Y-66875000D01*
G75*
G02*
X150950000Y-67125000I-250000J0D01*
G01*
X150025000Y-67125000D01*
G75*
G02*
X149775000Y-66875000I0J250000D01*
G01*
G37*
D23*
X159000000Y-99650000D03*
X159000000Y-94850000D03*
X127000000Y-94850000D03*
X127000000Y-99650000D03*
X161600000Y-63400000D03*
X161600000Y-68200000D03*
X161800000Y-77400000D03*
X161800000Y-72600000D03*
D14*
X172000000Y-64500000D03*
G36*
G01*
X172750000Y-67850000D02*
X171250000Y-67850000D01*
G75*
G02*
X171000000Y-67600000I0J250000D01*
G01*
X171000000Y-66400000D01*
G75*
G02*
X171250000Y-66150000I250000J0D01*
G01*
X172750000Y-66150000D01*
G75*
G02*
X173000000Y-66400000I0J-250000D01*
G01*
X173000000Y-67600000D01*
G75*
G02*
X172750000Y-67850000I-250000J0D01*
G01*
G37*
G36*
G01*
X172750000Y-76850000D02*
X171250000Y-76850000D01*
G75*
G02*
X171000000Y-76600000I0J250000D01*
G01*
X171000000Y-75400000D01*
G75*
G02*
X171250000Y-75150000I250000J0D01*
G01*
X172750000Y-75150000D01*
G75*
G02*
X173000000Y-75400000I0J-250000D01*
G01*
X173000000Y-76600000D01*
G75*
G02*
X172750000Y-76850000I-250000J0D01*
G01*
G37*
X172000000Y-73500000D03*
D24*
X135950000Y-89250000D03*
X134050000Y-89250000D03*
X135000000Y-91250000D03*
X168500000Y-91250000D03*
X167550000Y-89250000D03*
X169450000Y-89250000D03*
X131500000Y-95000000D03*
X130550000Y-93000000D03*
X132450000Y-93000000D03*
X165950000Y-93000000D03*
X164050000Y-93000000D03*
X165000000Y-95000000D03*
D25*
X120600000Y-108500000D03*
X126050000Y-108500000D03*
D26*
X131500000Y-108500000D03*
X164500000Y-108500000D03*
D25*
X159050000Y-108500000D03*
X153600000Y-108500000D03*
D27*
X155800000Y-64850000D03*
X155800000Y-66750000D03*
X157800000Y-65800000D03*
X157800000Y-75200000D03*
X155800000Y-76150000D03*
X155800000Y-74250000D03*
G36*
G01*
X165175000Y-86737500D02*
X165175000Y-86262500D01*
G75*
G02*
X165412500Y-86025000I237500J0D01*
G01*
X165912500Y-86025000D01*
G75*
G02*
X166150000Y-86262500I0J-237500D01*
G01*
X166150000Y-86737500D01*
G75*
G02*
X165912500Y-86975000I-237500J0D01*
G01*
X165412500Y-86975000D01*
G75*
G02*
X165175000Y-86737500I0J237500D01*
G01*
G37*
G36*
G01*
X163350000Y-86737500D02*
X163350000Y-86262500D01*
G75*
G02*
X163587500Y-86025000I237500J0D01*
G01*
X164087500Y-86025000D01*
G75*
G02*
X164325000Y-86262500I0J-237500D01*
G01*
X164325000Y-86737500D01*
G75*
G02*
X164087500Y-86975000I-237500J0D01*
G01*
X163587500Y-86975000D01*
G75*
G02*
X163350000Y-86737500I0J237500D01*
G01*
G37*
G36*
G01*
X166150000Y-80512500D02*
X166150000Y-80987500D01*
G75*
G02*
X165912500Y-81225000I-237500J0D01*
G01*
X165412500Y-81225000D01*
G75*
G02*
X165175000Y-80987500I0J237500D01*
G01*
X165175000Y-80512500D01*
G75*
G02*
X165412500Y-80275000I237500J0D01*
G01*
X165912500Y-80275000D01*
G75*
G02*
X166150000Y-80512500I0J-237500D01*
G01*
G37*
G36*
G01*
X164325000Y-80512500D02*
X164325000Y-80987500D01*
G75*
G02*
X164087500Y-81225000I-237500J0D01*
G01*
X163587500Y-81225000D01*
G75*
G02*
X163350000Y-80987500I0J237500D01*
G01*
X163350000Y-80512500D01*
G75*
G02*
X163587500Y-80275000I237500J0D01*
G01*
X164087500Y-80275000D01*
G75*
G02*
X164325000Y-80512500I0J-237500D01*
G01*
G37*
G36*
G01*
X168075000Y-80512500D02*
X168075000Y-80987500D01*
G75*
G02*
X167837500Y-81225000I-237500J0D01*
G01*
X167337500Y-81225000D01*
G75*
G02*
X167100000Y-80987500I0J237500D01*
G01*
X167100000Y-80512500D01*
G75*
G02*
X167337500Y-80275000I237500J0D01*
G01*
X167837500Y-80275000D01*
G75*
G02*
X168075000Y-80512500I0J-237500D01*
G01*
G37*
G36*
G01*
X169900000Y-80512500D02*
X169900000Y-80987500D01*
G75*
G02*
X169662500Y-81225000I-237500J0D01*
G01*
X169162500Y-81225000D01*
G75*
G02*
X168925000Y-80987500I0J237500D01*
G01*
X168925000Y-80512500D01*
G75*
G02*
X169162500Y-80275000I237500J0D01*
G01*
X169662500Y-80275000D01*
G75*
G02*
X169900000Y-80512500I0J-237500D01*
G01*
G37*
G36*
G01*
X132650000Y-89012500D02*
X132650000Y-89487500D01*
G75*
G02*
X132412500Y-89725000I-237500J0D01*
G01*
X131912500Y-89725000D01*
G75*
G02*
X131675000Y-89487500I0J237500D01*
G01*
X131675000Y-89012500D01*
G75*
G02*
X131912500Y-88775000I237500J0D01*
G01*
X132412500Y-88775000D01*
G75*
G02*
X132650000Y-89012500I0J-237500D01*
G01*
G37*
G36*
G01*
X130825000Y-89012500D02*
X130825000Y-89487500D01*
G75*
G02*
X130587500Y-89725000I-237500J0D01*
G01*
X130087500Y-89725000D01*
G75*
G02*
X129850000Y-89487500I0J237500D01*
G01*
X129850000Y-89012500D01*
G75*
G02*
X130087500Y-88775000I237500J0D01*
G01*
X130587500Y-88775000D01*
G75*
G02*
X130825000Y-89012500I0J-237500D01*
G01*
G37*
G36*
G01*
X136650000Y-92762500D02*
X136650000Y-93237500D01*
G75*
G02*
X136412500Y-93475000I-237500J0D01*
G01*
X135912500Y-93475000D01*
G75*
G02*
X135675000Y-93237500I0J237500D01*
G01*
X135675000Y-92762500D01*
G75*
G02*
X135912500Y-92525000I237500J0D01*
G01*
X136412500Y-92525000D01*
G75*
G02*
X136650000Y-92762500I0J-237500D01*
G01*
G37*
G36*
G01*
X134825000Y-92762500D02*
X134825000Y-93237500D01*
G75*
G02*
X134587500Y-93475000I-237500J0D01*
G01*
X134087500Y-93475000D01*
G75*
G02*
X133850000Y-93237500I0J237500D01*
G01*
X133850000Y-92762500D01*
G75*
G02*
X134087500Y-92525000I237500J0D01*
G01*
X134587500Y-92525000D01*
G75*
G02*
X134825000Y-92762500I0J-237500D01*
G01*
G37*
G36*
G01*
X136400000Y-86262500D02*
X136400000Y-86737500D01*
G75*
G02*
X136162500Y-86975000I-237500J0D01*
G01*
X135662500Y-86975000D01*
G75*
G02*
X135425000Y-86737500I0J237500D01*
G01*
X135425000Y-86262500D01*
G75*
G02*
X135662500Y-86025000I237500J0D01*
G01*
X136162500Y-86025000D01*
G75*
G02*
X136400000Y-86262500I0J-237500D01*
G01*
G37*
G36*
G01*
X134575000Y-86262500D02*
X134575000Y-86737500D01*
G75*
G02*
X134337500Y-86975000I-237500J0D01*
G01*
X133837500Y-86975000D01*
G75*
G02*
X133600000Y-86737500I0J237500D01*
G01*
X133600000Y-86262500D01*
G75*
G02*
X133837500Y-86025000I237500J0D01*
G01*
X134337500Y-86025000D01*
G75*
G02*
X134575000Y-86262500I0J-237500D01*
G01*
G37*
G36*
G01*
X166400000Y-89012500D02*
X166400000Y-89487500D01*
G75*
G02*
X166162500Y-89725000I-237500J0D01*
G01*
X165662500Y-89725000D01*
G75*
G02*
X165425000Y-89487500I0J237500D01*
G01*
X165425000Y-89012500D01*
G75*
G02*
X165662500Y-88775000I237500J0D01*
G01*
X166162500Y-88775000D01*
G75*
G02*
X166400000Y-89012500I0J-237500D01*
G01*
G37*
G36*
G01*
X164575000Y-89012500D02*
X164575000Y-89487500D01*
G75*
G02*
X164337500Y-89725000I-237500J0D01*
G01*
X163837500Y-89725000D01*
G75*
G02*
X163600000Y-89487500I0J237500D01*
G01*
X163600000Y-89012500D01*
G75*
G02*
X163837500Y-88775000I237500J0D01*
G01*
X164337500Y-88775000D01*
G75*
G02*
X164575000Y-89012500I0J-237500D01*
G01*
G37*
G36*
G01*
X168075000Y-86262500D02*
X168075000Y-86737500D01*
G75*
G02*
X167837500Y-86975000I-237500J0D01*
G01*
X167337500Y-86975000D01*
G75*
G02*
X167100000Y-86737500I0J237500D01*
G01*
X167100000Y-86262500D01*
G75*
G02*
X167337500Y-86025000I237500J0D01*
G01*
X167837500Y-86025000D01*
G75*
G02*
X168075000Y-86262500I0J-237500D01*
G01*
G37*
G36*
G01*
X169900000Y-86262500D02*
X169900000Y-86737500D01*
G75*
G02*
X169662500Y-86975000I-237500J0D01*
G01*
X169162500Y-86975000D01*
G75*
G02*
X168925000Y-86737500I0J237500D01*
G01*
X168925000Y-86262500D01*
G75*
G02*
X169162500Y-86025000I237500J0D01*
G01*
X169662500Y-86025000D01*
G75*
G02*
X169900000Y-86262500I0J-237500D01*
G01*
G37*
G36*
G01*
X148575000Y-62512500D02*
X148575000Y-62987500D01*
G75*
G02*
X148337500Y-63225000I-237500J0D01*
G01*
X147837500Y-63225000D01*
G75*
G02*
X147600000Y-62987500I0J237500D01*
G01*
X147600000Y-62512500D01*
G75*
G02*
X147837500Y-62275000I237500J0D01*
G01*
X148337500Y-62275000D01*
G75*
G02*
X148575000Y-62512500I0J-237500D01*
G01*
G37*
G36*
G01*
X150400000Y-62512500D02*
X150400000Y-62987500D01*
G75*
G02*
X150162500Y-63225000I-237500J0D01*
G01*
X149662500Y-63225000D01*
G75*
G02*
X149425000Y-62987500I0J237500D01*
G01*
X149425000Y-62512500D01*
G75*
G02*
X149662500Y-62275000I237500J0D01*
G01*
X150162500Y-62275000D01*
G75*
G02*
X150400000Y-62512500I0J-237500D01*
G01*
G37*
G36*
G01*
X168237500Y-92762500D02*
X168237500Y-93237500D01*
G75*
G02*
X168000000Y-93475000I-237500J0D01*
G01*
X167500000Y-93475000D01*
G75*
G02*
X167262500Y-93237500I0J237500D01*
G01*
X167262500Y-92762500D01*
G75*
G02*
X167500000Y-92525000I237500J0D01*
G01*
X168000000Y-92525000D01*
G75*
G02*
X168237500Y-92762500I0J-237500D01*
G01*
G37*
G36*
G01*
X170062500Y-92762500D02*
X170062500Y-93237500D01*
G75*
G02*
X169825000Y-93475000I-237500J0D01*
G01*
X169325000Y-93475000D01*
G75*
G02*
X169087500Y-93237500I0J237500D01*
G01*
X169087500Y-92762500D01*
G75*
G02*
X169325000Y-92525000I237500J0D01*
G01*
X169825000Y-92525000D01*
G75*
G02*
X170062500Y-92762500I0J-237500D01*
G01*
G37*
G36*
G01*
X161675000Y-86737500D02*
X161675000Y-86262500D01*
G75*
G02*
X161912500Y-86025000I237500J0D01*
G01*
X162412500Y-86025000D01*
G75*
G02*
X162650000Y-86262500I0J-237500D01*
G01*
X162650000Y-86737500D01*
G75*
G02*
X162412500Y-86975000I-237500J0D01*
G01*
X161912500Y-86975000D01*
G75*
G02*
X161675000Y-86737500I0J237500D01*
G01*
G37*
G36*
G01*
X159850000Y-86737500D02*
X159850000Y-86262500D01*
G75*
G02*
X160087500Y-86025000I237500J0D01*
G01*
X160587500Y-86025000D01*
G75*
G02*
X160825000Y-86262500I0J-237500D01*
G01*
X160825000Y-86737500D01*
G75*
G02*
X160587500Y-86975000I-237500J0D01*
G01*
X160087500Y-86975000D01*
G75*
G02*
X159850000Y-86737500I0J237500D01*
G01*
G37*
G36*
G01*
X128175000Y-91487500D02*
X128175000Y-91012500D01*
G75*
G02*
X128412500Y-90775000I237500J0D01*
G01*
X128912500Y-90775000D01*
G75*
G02*
X129150000Y-91012500I0J-237500D01*
G01*
X129150000Y-91487500D01*
G75*
G02*
X128912500Y-91725000I-237500J0D01*
G01*
X128412500Y-91725000D01*
G75*
G02*
X128175000Y-91487500I0J237500D01*
G01*
G37*
G36*
G01*
X126350000Y-91487500D02*
X126350000Y-91012500D01*
G75*
G02*
X126587500Y-90775000I237500J0D01*
G01*
X127087500Y-90775000D01*
G75*
G02*
X127325000Y-91012500I0J-237500D01*
G01*
X127325000Y-91487500D01*
G75*
G02*
X127087500Y-91725000I-237500J0D01*
G01*
X126587500Y-91725000D01*
G75*
G02*
X126350000Y-91487500I0J237500D01*
G01*
G37*
G36*
G01*
X131012500Y-66837500D02*
X131487500Y-66837500D01*
G75*
G02*
X131725000Y-67075000I0J-237500D01*
G01*
X131725000Y-67575000D01*
G75*
G02*
X131487500Y-67812500I-237500J0D01*
G01*
X131012500Y-67812500D01*
G75*
G02*
X130775000Y-67575000I0J237500D01*
G01*
X130775000Y-67075000D01*
G75*
G02*
X131012500Y-66837500I237500J0D01*
G01*
G37*
G36*
G01*
X131012500Y-65012500D02*
X131487500Y-65012500D01*
G75*
G02*
X131725000Y-65250000I0J-237500D01*
G01*
X131725000Y-65750000D01*
G75*
G02*
X131487500Y-65987500I-237500J0D01*
G01*
X131012500Y-65987500D01*
G75*
G02*
X130775000Y-65750000I0J237500D01*
G01*
X130775000Y-65250000D01*
G75*
G02*
X131012500Y-65012500I237500J0D01*
G01*
G37*
G36*
G01*
X161762500Y-92600000D02*
X162237500Y-92600000D01*
G75*
G02*
X162475000Y-92837500I0J-237500D01*
G01*
X162475000Y-93337500D01*
G75*
G02*
X162237500Y-93575000I-237500J0D01*
G01*
X161762500Y-93575000D01*
G75*
G02*
X161525000Y-93337500I0J237500D01*
G01*
X161525000Y-92837500D01*
G75*
G02*
X161762500Y-92600000I237500J0D01*
G01*
G37*
G36*
G01*
X161762500Y-94425000D02*
X162237500Y-94425000D01*
G75*
G02*
X162475000Y-94662500I0J-237500D01*
G01*
X162475000Y-95162500D01*
G75*
G02*
X162237500Y-95400000I-237500J0D01*
G01*
X161762500Y-95400000D01*
G75*
G02*
X161525000Y-95162500I0J237500D01*
G01*
X161525000Y-94662500D01*
G75*
G02*
X161762500Y-94425000I237500J0D01*
G01*
G37*
G36*
G01*
X131350000Y-63987500D02*
X131350000Y-63512500D01*
G75*
G02*
X131587500Y-63275000I237500J0D01*
G01*
X132087500Y-63275000D01*
G75*
G02*
X132325000Y-63512500I0J-237500D01*
G01*
X132325000Y-63987500D01*
G75*
G02*
X132087500Y-64225000I-237500J0D01*
G01*
X131587500Y-64225000D01*
G75*
G02*
X131350000Y-63987500I0J237500D01*
G01*
G37*
G36*
G01*
X133175000Y-63987500D02*
X133175000Y-63512500D01*
G75*
G02*
X133412500Y-63275000I237500J0D01*
G01*
X133912500Y-63275000D01*
G75*
G02*
X134150000Y-63512500I0J-237500D01*
G01*
X134150000Y-63987500D01*
G75*
G02*
X133912500Y-64225000I-237500J0D01*
G01*
X133412500Y-64225000D01*
G75*
G02*
X133175000Y-63987500I0J237500D01*
G01*
G37*
G36*
G01*
X132762500Y-65100000D02*
X133237500Y-65100000D01*
G75*
G02*
X133475000Y-65337500I0J-237500D01*
G01*
X133475000Y-65837500D01*
G75*
G02*
X133237500Y-66075000I-237500J0D01*
G01*
X132762500Y-66075000D01*
G75*
G02*
X132525000Y-65837500I0J237500D01*
G01*
X132525000Y-65337500D01*
G75*
G02*
X132762500Y-65100000I237500J0D01*
G01*
G37*
G36*
G01*
X132762500Y-66925000D02*
X133237500Y-66925000D01*
G75*
G02*
X133475000Y-67162500I0J-237500D01*
G01*
X133475000Y-67662500D01*
G75*
G02*
X133237500Y-67900000I-237500J0D01*
G01*
X132762500Y-67900000D01*
G75*
G02*
X132525000Y-67662500I0J237500D01*
G01*
X132525000Y-67162500D01*
G75*
G02*
X132762500Y-66925000I237500J0D01*
G01*
G37*
D28*
X136751340Y-63752100D03*
X143248660Y-63752100D03*
X136751340Y-68247900D03*
X143248660Y-68247900D03*
G36*
G01*
X142575000Y-73075000D02*
X142575000Y-72925000D01*
G75*
G02*
X142650000Y-72850000I75000J0D01*
G01*
X143950000Y-72850000D01*
G75*
G02*
X144025000Y-72925000I0J-75000D01*
G01*
X144025000Y-73075000D01*
G75*
G02*
X143950000Y-73150000I-75000J0D01*
G01*
X142650000Y-73150000D01*
G75*
G02*
X142575000Y-73075000I0J75000D01*
G01*
G37*
G36*
G01*
X142575000Y-73575000D02*
X142575000Y-73425000D01*
G75*
G02*
X142650000Y-73350000I75000J0D01*
G01*
X143950000Y-73350000D01*
G75*
G02*
X144025000Y-73425000I0J-75000D01*
G01*
X144025000Y-73575000D01*
G75*
G02*
X143950000Y-73650000I-75000J0D01*
G01*
X142650000Y-73650000D01*
G75*
G02*
X142575000Y-73575000I0J75000D01*
G01*
G37*
G36*
G01*
X142575000Y-74075000D02*
X142575000Y-73925000D01*
G75*
G02*
X142650000Y-73850000I75000J0D01*
G01*
X143950000Y-73850000D01*
G75*
G02*
X144025000Y-73925000I0J-75000D01*
G01*
X144025000Y-74075000D01*
G75*
G02*
X143950000Y-74150000I-75000J0D01*
G01*
X142650000Y-74150000D01*
G75*
G02*
X142575000Y-74075000I0J75000D01*
G01*
G37*
G36*
G01*
X142575000Y-74575000D02*
X142575000Y-74425000D01*
G75*
G02*
X142650000Y-74350000I75000J0D01*
G01*
X143950000Y-74350000D01*
G75*
G02*
X144025000Y-74425000I0J-75000D01*
G01*
X144025000Y-74575000D01*
G75*
G02*
X143950000Y-74650000I-75000J0D01*
G01*
X142650000Y-74650000D01*
G75*
G02*
X142575000Y-74575000I0J75000D01*
G01*
G37*
G36*
G01*
X142575000Y-75075000D02*
X142575000Y-74925000D01*
G75*
G02*
X142650000Y-74850000I75000J0D01*
G01*
X143950000Y-74850000D01*
G75*
G02*
X144025000Y-74925000I0J-75000D01*
G01*
X144025000Y-75075000D01*
G75*
G02*
X143950000Y-75150000I-75000J0D01*
G01*
X142650000Y-75150000D01*
G75*
G02*
X142575000Y-75075000I0J75000D01*
G01*
G37*
G36*
G01*
X146975000Y-75075000D02*
X146975000Y-74925000D01*
G75*
G02*
X147050000Y-74850000I75000J0D01*
G01*
X148350000Y-74850000D01*
G75*
G02*
X148425000Y-74925000I0J-75000D01*
G01*
X148425000Y-75075000D01*
G75*
G02*
X148350000Y-75150000I-75000J0D01*
G01*
X147050000Y-75150000D01*
G75*
G02*
X146975000Y-75075000I0J75000D01*
G01*
G37*
G36*
G01*
X146975000Y-74575000D02*
X146975000Y-74425000D01*
G75*
G02*
X147050000Y-74350000I75000J0D01*
G01*
X148350000Y-74350000D01*
G75*
G02*
X148425000Y-74425000I0J-75000D01*
G01*
X148425000Y-74575000D01*
G75*
G02*
X148350000Y-74650000I-75000J0D01*
G01*
X147050000Y-74650000D01*
G75*
G02*
X146975000Y-74575000I0J75000D01*
G01*
G37*
G36*
G01*
X146975000Y-74075000D02*
X146975000Y-73925000D01*
G75*
G02*
X147050000Y-73850000I75000J0D01*
G01*
X148350000Y-73850000D01*
G75*
G02*
X148425000Y-73925000I0J-75000D01*
G01*
X148425000Y-74075000D01*
G75*
G02*
X148350000Y-74150000I-75000J0D01*
G01*
X147050000Y-74150000D01*
G75*
G02*
X146975000Y-74075000I0J75000D01*
G01*
G37*
G36*
G01*
X146975000Y-73575000D02*
X146975000Y-73425000D01*
G75*
G02*
X147050000Y-73350000I75000J0D01*
G01*
X148350000Y-73350000D01*
G75*
G02*
X148425000Y-73425000I0J-75000D01*
G01*
X148425000Y-73575000D01*
G75*
G02*
X148350000Y-73650000I-75000J0D01*
G01*
X147050000Y-73650000D01*
G75*
G02*
X146975000Y-73575000I0J75000D01*
G01*
G37*
G36*
G01*
X146975000Y-73075000D02*
X146975000Y-72925000D01*
G75*
G02*
X147050000Y-72850000I75000J0D01*
G01*
X148350000Y-72850000D01*
G75*
G02*
X148425000Y-72925000I0J-75000D01*
G01*
X148425000Y-73075000D01*
G75*
G02*
X148350000Y-73150000I-75000J0D01*
G01*
X147050000Y-73150000D01*
G75*
G02*
X146975000Y-73075000I0J75000D01*
G01*
G37*
D29*
X128697056Y-102802944D03*
X127000000Y-102100000D03*
X125302944Y-102802944D03*
X124600000Y-104500000D03*
X125302944Y-106197056D03*
X127000000Y-106900000D03*
X128697056Y-106197056D03*
X129400000Y-104500000D03*
D30*
X127000000Y-104500000D03*
X159000000Y-104500000D03*
D29*
X161400000Y-104500000D03*
X160697056Y-106197056D03*
X159000000Y-106900000D03*
X157302944Y-106197056D03*
X156600000Y-104500000D03*
X157302944Y-102802944D03*
X159000000Y-102100000D03*
X160697056Y-102802944D03*
X121197056Y-102802944D03*
X119500000Y-102100000D03*
X117802944Y-102802944D03*
X117100000Y-104500000D03*
X117802944Y-106197056D03*
X119500000Y-106900000D03*
X121197056Y-106197056D03*
X121900000Y-104500000D03*
D30*
X119500000Y-104500000D03*
X151500000Y-104500000D03*
D29*
X153900000Y-104500000D03*
X153197056Y-106197056D03*
X151500000Y-106900000D03*
X149802944Y-106197056D03*
X149100000Y-104500000D03*
X149802944Y-102802944D03*
X151500000Y-102100000D03*
X153197056Y-102802944D03*
G36*
G01*
X140900000Y-70762500D02*
X140900000Y-71237500D01*
G75*
G02*
X140662500Y-71475000I-237500J0D01*
G01*
X140162500Y-71475000D01*
G75*
G02*
X139925000Y-71237500I0J237500D01*
G01*
X139925000Y-70762500D01*
G75*
G02*
X140162500Y-70525000I237500J0D01*
G01*
X140662500Y-70525000D01*
G75*
G02*
X140900000Y-70762500I0J-237500D01*
G01*
G37*
G36*
G01*
X139075000Y-70762500D02*
X139075000Y-71237500D01*
G75*
G02*
X138837500Y-71475000I-237500J0D01*
G01*
X138337500Y-71475000D01*
G75*
G02*
X138100000Y-71237500I0J237500D01*
G01*
X138100000Y-70762500D01*
G75*
G02*
X138337500Y-70525000I237500J0D01*
G01*
X138837500Y-70525000D01*
G75*
G02*
X139075000Y-70762500I0J-237500D01*
G01*
G37*
G36*
G01*
X138237500Y-110200000D02*
X137762500Y-110200000D01*
G75*
G02*
X137525000Y-109962500I0J237500D01*
G01*
X137525000Y-109362500D01*
G75*
G02*
X137762500Y-109125000I237500J0D01*
G01*
X138237500Y-109125000D01*
G75*
G02*
X138475000Y-109362500I0J-237500D01*
G01*
X138475000Y-109962500D01*
G75*
G02*
X138237500Y-110200000I-237500J0D01*
G01*
G37*
G36*
G01*
X138237500Y-108475000D02*
X137762500Y-108475000D01*
G75*
G02*
X137525000Y-108237500I0J237500D01*
G01*
X137525000Y-107637500D01*
G75*
G02*
X137762500Y-107400000I237500J0D01*
G01*
X138237500Y-107400000D01*
G75*
G02*
X138475000Y-107637500I0J-237500D01*
G01*
X138475000Y-108237500D01*
G75*
G02*
X138237500Y-108475000I-237500J0D01*
G01*
G37*
G36*
G01*
X141400000Y-105037500D02*
X141400000Y-104562500D01*
G75*
G02*
X141637500Y-104325000I237500J0D01*
G01*
X142237500Y-104325000D01*
G75*
G02*
X142475000Y-104562500I0J-237500D01*
G01*
X142475000Y-105037500D01*
G75*
G02*
X142237500Y-105275000I-237500J0D01*
G01*
X141637500Y-105275000D01*
G75*
G02*
X141400000Y-105037500I0J237500D01*
G01*
G37*
G36*
G01*
X143125000Y-105037500D02*
X143125000Y-104562500D01*
G75*
G02*
X143362500Y-104325000I237500J0D01*
G01*
X143962500Y-104325000D01*
G75*
G02*
X144200000Y-104562500I0J-237500D01*
G01*
X144200000Y-105037500D01*
G75*
G02*
X143962500Y-105275000I-237500J0D01*
G01*
X143362500Y-105275000D01*
G75*
G02*
X143125000Y-105037500I0J237500D01*
G01*
G37*
G36*
G01*
X135487500Y-78925000D02*
X135012500Y-78925000D01*
G75*
G02*
X134775000Y-78687500I0J237500D01*
G01*
X134775000Y-78087500D01*
G75*
G02*
X135012500Y-77850000I237500J0D01*
G01*
X135487500Y-77850000D01*
G75*
G02*
X135725000Y-78087500I0J-237500D01*
G01*
X135725000Y-78687500D01*
G75*
G02*
X135487500Y-78925000I-237500J0D01*
G01*
G37*
G36*
G01*
X135487500Y-80650000D02*
X135012500Y-80650000D01*
G75*
G02*
X134775000Y-80412500I0J237500D01*
G01*
X134775000Y-79812500D01*
G75*
G02*
X135012500Y-79575000I237500J0D01*
G01*
X135487500Y-79575000D01*
G75*
G02*
X135725000Y-79812500I0J-237500D01*
G01*
X135725000Y-80412500D01*
G75*
G02*
X135487500Y-80650000I-237500J0D01*
G01*
G37*
D22*
X140300000Y-101600000D03*
X143200000Y-101600000D03*
G36*
G01*
X156650000Y-89012500D02*
X156650000Y-89487500D01*
G75*
G02*
X156412500Y-89725000I-237500J0D01*
G01*
X155912500Y-89725000D01*
G75*
G02*
X155675000Y-89487500I0J237500D01*
G01*
X155675000Y-89012500D01*
G75*
G02*
X155912500Y-88775000I237500J0D01*
G01*
X156412500Y-88775000D01*
G75*
G02*
X156650000Y-89012500I0J-237500D01*
G01*
G37*
G36*
G01*
X154825000Y-89012500D02*
X154825000Y-89487500D01*
G75*
G02*
X154587500Y-89725000I-237500J0D01*
G01*
X154087500Y-89725000D01*
G75*
G02*
X153850000Y-89487500I0J237500D01*
G01*
X153850000Y-89012500D01*
G75*
G02*
X154087500Y-88775000I237500J0D01*
G01*
X154587500Y-88775000D01*
G75*
G02*
X154825000Y-89012500I0J-237500D01*
G01*
G37*
D11*
X137500000Y-80000000D03*
D10*
X140040000Y-80000000D03*
X138770000Y-78730000D03*
G36*
G01*
X156575000Y-68262500D02*
X156575000Y-68737500D01*
G75*
G02*
X156337500Y-68975000I-237500J0D01*
G01*
X155837500Y-68975000D01*
G75*
G02*
X155600000Y-68737500I0J237500D01*
G01*
X155600000Y-68262500D01*
G75*
G02*
X155837500Y-68025000I237500J0D01*
G01*
X156337500Y-68025000D01*
G75*
G02*
X156575000Y-68262500I0J-237500D01*
G01*
G37*
G36*
G01*
X158400000Y-68262500D02*
X158400000Y-68737500D01*
G75*
G02*
X158162500Y-68975000I-237500J0D01*
G01*
X157662500Y-68975000D01*
G75*
G02*
X157425000Y-68737500I0J237500D01*
G01*
X157425000Y-68262500D01*
G75*
G02*
X157662500Y-68025000I237500J0D01*
G01*
X158162500Y-68025000D01*
G75*
G02*
X158400000Y-68262500I0J-237500D01*
G01*
G37*
G36*
G01*
X155350000Y-77987500D02*
X155350000Y-77512500D01*
G75*
G02*
X155587500Y-77275000I237500J0D01*
G01*
X156087500Y-77275000D01*
G75*
G02*
X156325000Y-77512500I0J-237500D01*
G01*
X156325000Y-77987500D01*
G75*
G02*
X156087500Y-78225000I-237500J0D01*
G01*
X155587500Y-78225000D01*
G75*
G02*
X155350000Y-77987500I0J237500D01*
G01*
G37*
G36*
G01*
X157175000Y-77987500D02*
X157175000Y-77512500D01*
G75*
G02*
X157412500Y-77275000I237500J0D01*
G01*
X157912500Y-77275000D01*
G75*
G02*
X158150000Y-77512500I0J-237500D01*
G01*
X158150000Y-77987500D01*
G75*
G02*
X157912500Y-78225000I-237500J0D01*
G01*
X157412500Y-78225000D01*
G75*
G02*
X157175000Y-77987500I0J237500D01*
G01*
G37*
G36*
G01*
X146900000Y-70012500D02*
X146900000Y-70487500D01*
G75*
G02*
X146662500Y-70725000I-237500J0D01*
G01*
X146062500Y-70725000D01*
G75*
G02*
X145825000Y-70487500I0J237500D01*
G01*
X145825000Y-70012500D01*
G75*
G02*
X146062500Y-69775000I237500J0D01*
G01*
X146662500Y-69775000D01*
G75*
G02*
X146900000Y-70012500I0J-237500D01*
G01*
G37*
G36*
G01*
X145175000Y-70012500D02*
X145175000Y-70487500D01*
G75*
G02*
X144937500Y-70725000I-237500J0D01*
G01*
X144337500Y-70725000D01*
G75*
G02*
X144100000Y-70487500I0J237500D01*
G01*
X144100000Y-70012500D01*
G75*
G02*
X144337500Y-69775000I237500J0D01*
G01*
X144937500Y-69775000D01*
G75*
G02*
X145175000Y-70012500I0J-237500D01*
G01*
G37*
M02*
